{
  "header": {
    "PPQ": 480,
    "bpm": 120,
    "name": ""
  },
  "tempo": [
    {
      "absoluteTime": 0,
      "seconds": 0,
      "bpm": 120
    }
  ],
  "timeSignature": [],
  "startTime": 0,
  "duration": 176.0968750000001,
  "tracks": [
    {
      "startTime": 0,
      "duration": 0,
      "length": 0,
      "notes": [],
      "controlChanges": {},
      "id": 0,
      "name": ""
    },
    {
      "startTime": 0.209375,
      "duration": 176.0968750000001,
      "length": 1786,
      "notes": [
        {
          "name": "C5",
          "midi": 72,
          "time": 0.209375,
          "velocity": 0.5354330708661418,
          "duration": 0.12812500000000002
        },
        {
          "name": "D#4",
          "midi": 63,
          "time": 0.209375,
          "velocity": 0.5275590551181102,
          "duration": 0.9989583333333335
        },
        {
          "name": "C4",
          "midi": 60,
          "time": 0.22083333333333333,
          "velocity": 0.5354330708661418,
          "duration": 0.11562500000000003
        },
        {
          "name": "G#3",
          "midi": 56,
          "time": 0.26666666666666666,
          "velocity": 0.6771653543307087,
          "duration": 0.0697916666666667
        },
        {
          "name": "F3",
          "midi": 53,
          "time": 0.290625,
          "velocity": 0.31496062992125984,
          "duration": 0.128125
        },
        {
          "name": "C5",
          "midi": 72,
          "time": 0.33645833333333336,
          "velocity": 0.4645669291338583,
          "duration": 0.325
        },
        {
          "name": "C4",
          "midi": 60,
          "time": 0.33645833333333336,
          "velocity": 0.5196850393700787,
          "duration": 0.16249999999999998
        },
        {
          "name": "G#3",
          "midi": 56,
          "time": 0.33645833333333336,
          "velocity": 0.5905511811023622,
          "duration": 0.7895833333333335
        },
        {
          "name": "C4",
          "midi": 60,
          "time": 0.49895833333333334,
          "velocity": 0.4566929133858268,
          "duration": 0.7666666666666668
        },
        {
          "name": "C5",
          "midi": 72,
          "time": 0.6614583333333334,
          "velocity": 0.6220472440944882,
          "duration": 0.18541666666666667
        },
        {
          "name": "C5",
          "midi": 72,
          "time": 0.8479166666666668,
          "velocity": 0.5118110236220472,
          "duration": 0.23229166666666667
        },
        {
          "name": "C5",
          "midi": 72,
          "time": 1.0802083333333334,
          "velocity": 0.5118110236220472,
          "duration": 0.12812500000000004
        },
        {
          "name": "G#3",
          "midi": 56,
          "time": 1.1260416666666668,
          "velocity": 0.4881889763779528,
          "duration": 1.138541666666667
        },
        {
          "name": "C5",
          "midi": 72,
          "time": 1.2072916666666669,
          "velocity": 0.4409448818897638,
          "duration": 0.08125000000000004
        },
        {
          "name": "D#4",
          "midi": 63,
          "time": 1.2072916666666669,
          "velocity": 0.5511811023622047,
          "duration": 0.5229166666666669
        },
        {
          "name": "C5",
          "midi": 72,
          "time": 1.288541666666667,
          "velocity": 0.5590551181102362,
          "duration": 0.12812500000000004
        },
        {
          "name": "C5",
          "midi": 72,
          "time": 1.416666666666667,
          "velocity": 0.5354330708661418,
          "duration": 0.3020833333333335
        },
        {
          "name": "C4",
          "midi": 60,
          "time": 1.451041666666667,
          "velocity": 0.31496062992125984,
          "duration": 0.5697916666666669
        },
        {
          "name": "F3",
          "midi": 53,
          "time": 1.4625000000000004,
          "velocity": 0.33070866141732286,
          "duration": 0.24375000000000013
        },
        {
          "name": "G#4",
          "midi": 68,
          "time": 1.5906250000000004,
          "velocity": 0.33858267716535434,
          "duration": 0.2781250000000002
        },
        {
          "name": "C5",
          "midi": 72,
          "time": 1.7187500000000004,
          "velocity": 0.4330708661417323,
          "duration": 0.10416666666666674
        },
        {
          "name": "D#4",
          "midi": 63,
          "time": 1.7302083333333338,
          "velocity": 0.5039370078740157,
          "duration": 0.36145833333333344
        },
        {
          "name": "C5",
          "midi": 72,
          "time": 1.8229166666666672,
          "velocity": 0.5748031496062992,
          "duration": 0.08125000000000004
        },
        {
          "name": "C5",
          "midi": 72,
          "time": 1.9041666666666672,
          "velocity": 0.4645669291338583,
          "duration": 0.12916666666666687
        },
        {
          "name": "C5",
          "midi": 72,
          "time": 2.033333333333334,
          "velocity": 0.3464566929133858,
          "duration": 0.12812499999999982
        },
        {
          "name": "C5",
          "midi": 72,
          "time": 2.1604166666666673,
          "velocity": 0.3543307086614173,
          "duration": 0.11562499999999964
        },
        {
          "name": "F3",
          "midi": 53,
          "time": 2.1604166666666673,
          "velocity": 0.44881889763779526,
          "duration": 0.4645833333333327
        },
        {
          "name": "F4",
          "midi": 65,
          "time": 2.2656250000000004,
          "velocity": 0.31496062992125984,
          "duration": 0.08124999999999982
        },
        {
          "name": "G#3",
          "midi": 56,
          "time": 2.2656250000000004,
          "velocity": 0.5748031496062992,
          "duration": 0.23229166666666634
        },
        {
          "name": "C5",
          "midi": 72,
          "time": 2.2770833333333336,
          "velocity": 0.3543307086614173,
          "duration": 0.3020833333333335
        },
        {
          "name": "C4",
          "midi": 60,
          "time": 2.2770833333333336,
          "velocity": 0.4881889763779528,
          "duration": 0.3135416666666666
        },
        {
          "name": "G#4",
          "midi": 68,
          "time": 2.3000000000000003,
          "velocity": 0.3700787401574803,
          "duration": 0.2666666666666666
        },
        {
          "name": "F5",
          "midi": 77,
          "time": 2.3000000000000003,
          "velocity": 0.30708661417322836,
          "duration": 0.0697916666666667
        },
        {
          "name": "D#4",
          "midi": 63,
          "time": 2.3468750000000003,
          "velocity": 0.4330708661417323,
          "duration": 0.7312499999999997
        },
        {
          "name": "G#3",
          "midi": 56,
          "time": 2.497916666666667,
          "velocity": 0.49606299212598426,
          "duration": 0.15104166666666652
        },
        {
          "name": "C5",
          "midi": 72,
          "time": 2.579166666666667,
          "velocity": 0.5669291338582677,
          "duration": 0.33645833333333286
        },
        {
          "name": "C4",
          "midi": 60,
          "time": 2.590625,
          "velocity": 0.6299212598425197,
          "duration": 0.06979166666666625
        },
        {
          "name": "G#3",
          "midi": 56,
          "time": 2.6479166666666667,
          "velocity": 0.6062992125984252,
          "duration": 0.6041666666666665
        },
        {
          "name": "C4",
          "midi": 60,
          "time": 2.6604166666666664,
          "velocity": 0.5905511811023622,
          "duration": 0.2552083333333335
        },
        {
          "name": "F3",
          "midi": 53,
          "time": 2.86875,
          "velocity": 0.3779527559055118,
          "duration": 0.11562500000000009
        },
        {
          "name": "C5",
          "midi": 72,
          "time": 2.915625,
          "velocity": 0.5118110236220472,
          "duration": 0.3135416666666666
        },
        {
          "name": "C4",
          "midi": 60,
          "time": 2.915625,
          "velocity": 0.5748031496062992,
          "duration": 0.2437499999999999
        },
        {
          "name": "C4",
          "midi": 60,
          "time": 3.159375,
          "velocity": 0.3858267716535433,
          "duration": 0.48750000000000027
        },
        {
          "name": "G#3",
          "midi": 56,
          "time": 3.252083333333333,
          "velocity": 0.4015748031496063,
          "duration": 0.6270833333333332
        },
        {
          "name": "C5",
          "midi": 72,
          "time": 3.484375,
          "velocity": 0.4566929133858268,
          "duration": 0.3020833333333335
        },
        {
          "name": "C4",
          "midi": 60,
          "time": 3.646875,
          "velocity": 0.3779527559055118,
          "duration": 0.23229166666666634
        },
        {
          "name": "F3",
          "midi": 53,
          "time": 3.7510416666666666,
          "velocity": 0.3464566929133858,
          "duration": 0.22187499999999982
        },
        {
          "name": "C5",
          "midi": 72,
          "time": 3.7979166666666666,
          "velocity": 0.5275590551181102,
          "duration": 0.22187499999999982
        },
        {
          "name": "C4",
          "midi": 60,
          "time": 3.8791666666666664,
          "velocity": 0.4409448818897638,
          "duration": 0.12916666666666643
        },
        {
          "name": "C3",
          "midi": 48,
          "time": 4.182291666666666,
          "velocity": 0.31496062992125984,
          "duration": 0.4645833333333327
        },
        {
          "name": "D#3",
          "midi": 51,
          "time": 4.19375,
          "velocity": 0.23622047244094488,
          "duration": 0.08124999999999982
        },
        {
          "name": "G4",
          "midi": 67,
          "time": 4.205208333333333,
          "velocity": 0.29133858267716534,
          "duration": 0.11562499999999964
        },
        {
          "name": "D#4",
          "midi": 63,
          "time": 4.205208333333333,
          "velocity": 0.47244094488188976,
          "duration": 0.47604166666666536
        },
        {
          "name": "A#3",
          "midi": 58,
          "time": 4.205208333333333,
          "velocity": 0.47244094488188976,
          "duration": 0.11562499999999964
        },
        {
          "name": "G3",
          "midi": 55,
          "time": 4.2281249999999995,
          "velocity": 0.4094488188976378,
          "duration": 1.2302083333333318
        },
        {
          "name": "A#3",
          "midi": 58,
          "time": 4.3218749999999995,
          "velocity": 0.5433070866141733,
          "duration": 0.12812499999999982
        },
        {
          "name": "A#3",
          "midi": 58,
          "time": 4.448958333333333,
          "velocity": 0.6456692913385826,
          "duration": 0.08124999999999982
        },
        {
          "name": "A#3",
          "midi": 58,
          "time": 4.5302083333333325,
          "velocity": 0.5118110236220472,
          "duration": 1.1843749999999975
        },
        {
          "name": "D#4",
          "midi": 63,
          "time": 4.681249999999999,
          "velocity": 0.6377952755905512,
          "duration": 1.0333333333333314
        },
        {
          "name": "C3",
          "midi": 48,
          "time": 4.936458333333332,
          "velocity": 0.4015748031496063,
          "duration": 0.6041666666666661
        },
        {
          "name": "G#4",
          "midi": 68,
          "time": 5.656249999999997,
          "velocity": 0.4015748031496063,
          "duration": 0.39583333333333215
        },
        {
          "name": "C3",
          "midi": 48,
          "time": 5.691666666666664,
          "velocity": 0.3228346456692913,
          "duration": 0.20937499999999876
        },
        {
          "name": "D#4",
          "midi": 63,
          "time": 5.71458333333333,
          "velocity": 0.5196850393700787,
          "duration": 0.3260416666666659
        },
        {
          "name": "A#3",
          "midi": 58,
          "time": 5.71458333333333,
          "velocity": 0.5196850393700787,
          "duration": 0.1854166666666659
        },
        {
          "name": "D#5",
          "midi": 75,
          "time": 5.784374999999996,
          "velocity": 0.3858267716535433,
          "duration": 0.11562499999999964
        },
        {
          "name": "C5",
          "midi": 72,
          "time": 5.912499999999996,
          "velocity": 0.33858267716535434,
          "duration": 0.05937500000000018
        },
        {
          "name": "C4",
          "midi": 60,
          "time": 6.180208333333329,
          "velocity": 0.5196850393700787,
          "duration": 0.06979166666666625
        },
        {
          "name": "C4",
          "midi": 60,
          "time": 6.261458333333329,
          "velocity": 0.5118110236220472,
          "duration": 0.2208333333333341
        },
        {
          "name": "G#3",
          "midi": 56,
          "time": 6.261458333333329,
          "velocity": 0.3779527559055118,
          "duration": 0.3020833333333339
        },
        {
          "name": "F4",
          "midi": 65,
          "time": 6.272916666666663,
          "velocity": 0.4645669291338583,
          "duration": 0.20937500000000053
        },
        {
          "name": "F3",
          "midi": 53,
          "time": 6.284374999999996,
          "velocity": 0.4566929133858268,
          "duration": 0.604166666666667
        },
        {
          "name": "A#3",
          "midi": 58,
          "time": 6.30833333333333,
          "velocity": 0.33858267716535434,
          "duration": 0.7895833333333337
        },
        {
          "name": "D#4",
          "midi": 63,
          "time": 6.435416666666663,
          "velocity": 0.4015748031496063,
          "duration": 0.6854166666666668
        },
        {
          "name": "C4",
          "midi": 60,
          "time": 6.482291666666663,
          "velocity": 0.6299212598425197,
          "duration": 0.06979166666666625
        },
        {
          "name": "G#4",
          "midi": 68,
          "time": 6.516666666666663,
          "velocity": 0.33858267716535434,
          "duration": 0.2781250000000002
        },
        {
          "name": "C4",
          "midi": 60,
          "time": 6.5520833333333295,
          "velocity": 0.49606299212598426,
          "duration": 0.2666666666666675
        },
        {
          "name": "C5",
          "midi": 72,
          "time": 6.563541666666663,
          "velocity": 0.3228346456692913,
          "duration": 0.42916666666666714
        },
        {
          "name": "C4",
          "midi": 60,
          "time": 6.818749999999997,
          "velocity": 0.48031496062992124,
          "duration": 0.16249999999999964
        },
        {
          "name": "C5",
          "midi": 72,
          "time": 6.99270833333333,
          "velocity": 0.4330708661417323,
          "duration": 0.09270833333333339
        },
        {
          "name": "C5",
          "midi": 72,
          "time": 7.08645833333333,
          "velocity": 0.33858267716535434,
          "duration": 0.10416666666666607
        },
        {
          "name": "F3",
          "midi": 53,
          "time": 7.2604166666666625,
          "velocity": 0.4015748031496063,
          "duration": 0.30208333333333215
        },
        {
          "name": "A#3",
          "midi": 58,
          "time": 7.341666666666662,
          "velocity": 0.31496062992125984,
          "duration": 0.2322916666666659
        },
        {
          "name": "A#4",
          "midi": 70,
          "time": 7.422916666666662,
          "velocity": 0.2992125984251969,
          "duration": 0.0927083333333325
        },
        {
          "name": "D#4",
          "midi": 63,
          "time": 7.445833333333328,
          "velocity": 0.3228346456692913,
          "duration": 0.18541666666666679
        },
        {
          "name": "F3",
          "midi": 53,
          "time": 8.190624999999995,
          "velocity": 0.3937007874015748,
          "duration": 0.580208333333335
        },
        {
          "name": "G#3",
          "midi": 56,
          "time": 8.202083333333329,
          "velocity": 0.6377952755905512,
          "duration": 0.11562499999999964
        },
        {
          "name": "C5",
          "midi": 72,
          "time": 8.213541666666663,
          "velocity": 0.4566929133858268,
          "duration": 0.4416666666666682
        },
        {
          "name": "C4",
          "midi": 60,
          "time": 8.213541666666663,
          "velocity": 0.5511811023622047,
          "duration": 0.17395833333333321
        },
        {
          "name": "G#3",
          "midi": 56,
          "time": 8.317708333333329,
          "velocity": 0.5905511811023622,
          "duration": 0.41770833333333535
        },
        {
          "name": "C4",
          "midi": 60,
          "time": 8.387499999999996,
          "velocity": 0.48031496062992124,
          "duration": 0.41770833333333535
        },
        {
          "name": "D#4",
          "midi": 63,
          "time": 8.468749999999996,
          "velocity": 0.2755905511811024,
          "duration": 0.37187500000000284
        },
        {
          "name": "C5",
          "midi": 72,
          "time": 8.654166666666663,
          "velocity": 0.6456692913385826,
          "duration": 0.08125000000000071
        },
        {
          "name": "C5",
          "midi": 72,
          "time": 8.735416666666664,
          "velocity": 0.5984251968503937,
          "duration": 0.10416666666666785
        },
        {
          "name": "G#3",
          "midi": 56,
          "time": 8.735416666666664,
          "velocity": 0.47244094488188976,
          "duration": 1.2666666666666675
        },
        {
          "name": "C5",
          "midi": 72,
          "time": 8.840625,
          "velocity": 0.44881889763779526,
          "duration": 0.39479166666666643
        },
        {
          "name": "G#4",
          "midi": 68,
          "time": 8.852083333333333,
          "velocity": 0.3464566929133858,
          "duration": 0.15104166666666607
        },
        {
          "name": "C4",
          "midi": 60,
          "time": 9.003124999999999,
          "velocity": 0.33070866141732286,
          "duration": 0.15104166666666607
        },
        {
          "name": "C#3",
          "midi": 49,
          "time": 9.003124999999999,
          "velocity": 0.31496062992125984,
          "duration": 0.0927083333333325
        },
        {
          "name": "C5",
          "midi": 72,
          "time": 9.235416666666666,
          "velocity": 0.3700787401574803,
          "duration": 0.24374999999999858
        },
        {
          "name": "G4",
          "midi": 67,
          "time": 9.235416666666666,
          "velocity": 0.5669291338582677,
          "duration": 0.15104166666666607
        },
        {
          "name": "A#4",
          "midi": 70,
          "time": 9.351041666666665,
          "velocity": 0.3464566929133858,
          "duration": 0.12812499999999893
        },
        {
          "name": "C5",
          "midi": 72,
          "time": 9.479166666666664,
          "velocity": 0.47244094488188976,
          "duration": 0.22083333333333321
        },
        {
          "name": "F3",
          "midi": 53,
          "time": 9.571874999999997,
          "velocity": 0.36220472440944884,
          "duration": 0.10416666666666785
        },
        {
          "name": "F4",
          "midi": 65,
          "time": 9.606249999999998,
          "velocity": 0.4094488188976378,
          "duration": 0.11562499999999964
        },
        {
          "name": "G4",
          "midi": 67,
          "time": 9.768749999999997,
          "velocity": 0.49606299212598426,
          "duration": 0.13958333333333428
        },
        {
          "name": "D#5",
          "midi": 75,
          "time": 9.849999999999998,
          "velocity": 0.2992125984251969,
          "duration": 0.16354166666666714
        },
        {
          "name": "A#4",
          "midi": 70,
          "time": 9.885416666666664,
          "velocity": 0.48031496062992124,
          "duration": 0.16354166666666714
        },
        {
          "name": "G4",
          "midi": 67,
          "time": 10.060416666666665,
          "velocity": 0.3700787401574803,
          "duration": 0.06979166666666714
        },
        {
          "name": "F3",
          "midi": 53,
          "time": 10.153125,
          "velocity": 0.3543307086614173,
          "duration": 0.3833333333333364
        },
        {
          "name": "G#3",
          "midi": 56,
          "time": 10.2,
          "velocity": 0.4015748031496063,
          "duration": 0.09270833333333428
        },
        {
          "name": "F5",
          "midi": 77,
          "time": 10.2,
          "velocity": 0.30708661417322836,
          "duration": 0.08125000000000071
        },
        {
          "name": "C5",
          "midi": 72,
          "time": 10.234375,
          "velocity": 0.3464566929133858,
          "duration": 0.3364583333333364
        },
        {
          "name": "C4",
          "midi": 60,
          "time": 10.269791666666666,
          "velocity": 0.3779527559055118,
          "duration": 0.34791666666667
        },
        {
          "name": "D#4",
          "midi": 63,
          "time": 10.292708333333334,
          "velocity": 0.4409448818897638,
          "duration": 0.4177083333333371
        },
        {
          "name": "G#3",
          "midi": 56,
          "time": 10.292708333333334,
          "velocity": 0.5118110236220472,
          "duration": 1.7781250000000028
        },
        {
          "name": "G#4",
          "midi": 68,
          "time": 10.315625,
          "velocity": 0.3543307086614173,
          "duration": 0.06979166666666714
        },
        {
          "name": "F4",
          "midi": 65,
          "time": 10.466666666666669,
          "velocity": 0.4409448818897638,
          "duration": 0.16250000000000142
        },
        {
          "name": "G4",
          "midi": 67,
          "time": 10.559375000000003,
          "velocity": 0.5511811023622047,
          "duration": 0.16250000000000142
        },
        {
          "name": "C5",
          "midi": 72,
          "time": 10.571875000000004,
          "velocity": 0.41732283464566927,
          "duration": 0.6270833333333332
        },
        {
          "name": "C4",
          "midi": 60,
          "time": 10.617708333333336,
          "velocity": 0.4645669291338583,
          "duration": 0.37187500000000107
        },
        {
          "name": "D#4",
          "midi": 63,
          "time": 10.71041666666667,
          "velocity": 0.4881889763779528,
          "duration": 0.3020833333333339
        },
        {
          "name": "C4",
          "midi": 60,
          "time": 10.989583333333337,
          "velocity": 0.4015748031496063,
          "duration": 0.17395833333333321
        },
        {
          "name": "C4",
          "midi": 60,
          "time": 11.16354166666667,
          "velocity": 0.3464566929133858,
          "duration": 0.48749999999999893
        },
        {
          "name": "F4",
          "midi": 65,
          "time": 11.221875000000004,
          "velocity": 0.33070866141732286,
          "duration": 0.15104166666666607
        },
        {
          "name": "F3",
          "midi": 53,
          "time": 11.384375000000004,
          "velocity": 0.3543307086614173,
          "duration": 0.6052083333333318
        },
        {
          "name": "C5",
          "midi": 72,
          "time": 11.511458333333337,
          "velocity": 0.44881889763779526,
          "duration": 0.33645833333333286
        },
        {
          "name": "C4",
          "midi": 60,
          "time": 11.65104166666667,
          "velocity": 0.33858267716535434,
          "duration": 0.3145833333333332
        },
        {
          "name": "C5",
          "midi": 72,
          "time": 11.86041666666667,
          "velocity": 0.5039370078740157,
          "duration": 0.15208333333333357
        },
        {
          "name": "G3",
          "midi": 55,
          "time": 12.186458333333336,
          "velocity": 0.29133858267716534,
          "duration": 0.15104166666666607
        },
        {
          "name": "G4",
          "midi": 67,
          "time": 12.19791666666667,
          "velocity": 0.3700787401574803,
          "duration": 0.5802083333333332
        },
        {
          "name": "D#4",
          "midi": 63,
          "time": 12.209375000000003,
          "velocity": 0.4409448818897638,
          "duration": 0.22083333333333321
        },
        {
          "name": "A#3",
          "midi": 58,
          "time": 12.209375000000003,
          "velocity": 0.4566929133858268,
          "duration": 0.185416666666665
        },
        {
          "name": "D#3",
          "midi": 51,
          "time": 12.24479166666667,
          "velocity": 0.4566929133858268,
          "duration": 1.4395833333333332
        },
        {
          "name": "G#3",
          "midi": 56,
          "time": 12.337500000000002,
          "velocity": 0.3543307086614173,
          "duration": 0.20937500000000142
        },
        {
          "name": "A#3",
          "midi": 58,
          "time": 12.395833333333336,
          "velocity": 0.5669291338582677,
          "duration": 0.8010416666666664
        },
        {
          "name": "G3",
          "midi": 55,
          "time": 12.546875000000004,
          "velocity": 0.4330708661417323,
          "duration": 0.6729166666666657
        },
        {
          "name": "D#5",
          "midi": 75,
          "time": 12.639583333333336,
          "velocity": 0.4251968503937008,
          "duration": 0.2666666666666657
        },
        {
          "name": "D#4",
          "midi": 63,
          "time": 12.86041666666667,
          "velocity": 0.3937007874015748,
          "duration": 0.2781249999999993
        },
        {
          "name": "D#4",
          "midi": 63,
          "time": 13.150000000000002,
          "velocity": 0.5118110236220472,
          "duration": 0.10416666666666785
        },
        {
          "name": "A#3",
          "midi": 58,
          "time": 13.196875000000002,
          "velocity": 0.4094488188976378,
          "duration": 0.32500000000000107
        },
        {
          "name": "D#4",
          "midi": 63,
          "time": 13.255208333333337,
          "velocity": 0.6299212598425197,
          "duration": 0.06979166666666714
        },
        {
          "name": "D#4",
          "midi": 63,
          "time": 13.323958333333337,
          "velocity": 0.48031496062992124,
          "duration": 0.41770833333333357
        },
        {
          "name": "F4",
          "midi": 65,
          "time": 13.370833333333337,
          "velocity": 0.4094488188976378,
          "duration": 0.10416666666666607
        },
        {
          "name": "G4",
          "midi": 67,
          "time": 13.51041666666667,
          "velocity": 0.4251968503937008,
          "duration": 0.06979166666666714
        },
        {
          "name": "D#5",
          "midi": 75,
          "time": 13.556250000000004,
          "velocity": 0.36220472440944884,
          "duration": 0.11562499999999964
        },
        {
          "name": "C4",
          "midi": 60,
          "time": 13.637500000000003,
          "velocity": 0.49606299212598426,
          "duration": 0.10416666666666785
        },
        {
          "name": "G#4",
          "midi": 68,
          "time": 13.637500000000003,
          "velocity": 0.3937007874015748,
          "duration": 0.41875000000000284
        },
        {
          "name": "A#3",
          "midi": 58,
          "time": 13.718750000000004,
          "velocity": 0.3779527559055118,
          "duration": 0.11562500000000142
        },
        {
          "name": "D#4",
          "midi": 63,
          "time": 13.742708333333338,
          "velocity": 0.5433070866141733,
          "duration": 0.21041666666666714
        },
        {
          "name": "C4",
          "midi": 60,
          "time": 14.057291666666673,
          "velocity": 0.5196850393700787,
          "duration": 0.15104166666666785
        },
        {
          "name": "G3",
          "midi": 55,
          "time": 14.138541666666674,
          "velocity": 0.41732283464566927,
          "duration": 0.08125000000000071
        },
        {
          "name": "C4",
          "midi": 60,
          "time": 14.208333333333341,
          "velocity": 0.5039370078740157,
          "duration": 0.33645833333333464
        },
        {
          "name": "A#3",
          "midi": 58,
          "time": 14.254166666666675,
          "velocity": 0.4015748031496063,
          "duration": 0.11562499999999964
        },
        {
          "name": "F4",
          "midi": 65,
          "time": 14.265625000000009,
          "velocity": 0.33070866141732286,
          "duration": 0.23229166666666679
        },
        {
          "name": "F3",
          "midi": 53,
          "time": 14.323958333333342,
          "velocity": 0.5196850393700787,
          "duration": 0.08125000000000071
        },
        {
          "name": "A#3",
          "midi": 58,
          "time": 14.370833333333342,
          "velocity": 0.3228346456692913,
          "duration": 0.06979166666666714
        },
        {
          "name": "F3",
          "midi": 53,
          "time": 14.405208333333343,
          "velocity": 0.5433070866141733,
          "duration": 0.1395833333333325
        },
        {
          "name": "C4",
          "midi": 60,
          "time": 14.544791666666676,
          "velocity": 0.4015748031496063,
          "duration": 0.41770833333333535
        },
        {
          "name": "F3",
          "midi": 53,
          "time": 14.55625000000001,
          "velocity": 0.3228346456692913,
          "duration": 0.10416666666666785
        },
        {
          "name": "G#3",
          "midi": 56,
          "time": 14.579166666666676,
          "velocity": 0.2992125984251969,
          "duration": 0.18541666666666679
        },
        {
          "name": "D#3",
          "midi": 51,
          "time": 14.648958333333344,
          "velocity": 0.30708661417322836,
          "duration": 0.06979166666666714
        },
        {
          "name": "G#4",
          "midi": 68,
          "time": 14.67187500000001,
          "velocity": 0.33070866141732286,
          "duration": 0.06979166666666714
        },
        {
          "name": "F3",
          "midi": 53,
          "time": 14.754166666666677,
          "velocity": 0.30708661417322836,
          "duration": 0.10416666666666607
        },
        {
          "name": "F3",
          "midi": 53,
          "time": 14.858333333333343,
          "velocity": 0.3700787401574803,
          "duration": 0.06979166666666714
        },
        {
          "name": "C3",
          "midi": 48,
          "time": 14.939583333333344,
          "velocity": 0.36220472440944884,
          "duration": 0.09270833333333428
        },
        {
          "name": "D#3",
          "midi": 51,
          "time": 15.032291666666678,
          "velocity": 0.3779527559055118,
          "duration": 0.10416666666666607
        },
        {
          "name": "G#2",
          "midi": 44,
          "time": 16.264583333333345,
          "velocity": 0.3937007874015748,
          "duration": 0.16250000000000142
        },
        {
          "name": "C4",
          "midi": 60,
          "time": 16.27604166666668,
          "velocity": 0.3858267716535433,
          "duration": 0.20937500000000142
        },
        {
          "name": "G#3",
          "midi": 56,
          "time": 16.287500000000012,
          "velocity": 0.33858267716535434,
          "duration": 0.27812500000000284
        },
        {
          "name": "D#4",
          "midi": 63,
          "time": 16.321875000000013,
          "velocity": 0.33070866141732286,
          "duration": 0.10416666666666785
        },
        {
          "name": "F1",
          "midi": 29,
          "time": 16.380208333333346,
          "velocity": 0.33070866141732286,
          "duration": 0.1281250000000007
        },
        {
          "name": "G#2",
          "midi": 44,
          "time": 16.427083333333346,
          "velocity": 0.47244094488188976,
          "duration": 0.173958333333335
        },
        {
          "name": "G#3",
          "midi": 56,
          "time": 16.578125000000014,
          "velocity": 0.29133858267716534,
          "duration": 0.220833333333335
        },
        {
          "name": "G#2",
          "midi": 44,
          "time": 16.60104166666668,
          "velocity": 0.4094488188976378,
          "duration": 0.173958333333335
        },
        {
          "name": "C4",
          "midi": 60,
          "time": 16.716666666666683,
          "velocity": 0.3937007874015748,
          "duration": 0.11562500000000142
        },
        {
          "name": "G#2",
          "midi": 44,
          "time": 16.775000000000016,
          "velocity": 0.5275590551181102,
          "duration": 0.23229166666666856
        },
        {
          "name": "F2",
          "midi": 41,
          "time": 16.94895833333335,
          "velocity": 0.4409448818897638,
          "duration": 0.08125000000000071
        },
        {
          "name": "G#3",
          "midi": 56,
          "time": 16.984375000000018,
          "velocity": 0.36220472440944884,
          "duration": 0.06979166666666714
        },
        {
          "name": "G#2",
          "midi": 44,
          "time": 17.007291666666685,
          "velocity": 0.4645669291338583,
          "duration": 0.2906249999999986
        },
        {
          "name": "F2",
          "midi": 41,
          "time": 17.030208333333352,
          "velocity": 0.5039370078740157,
          "duration": 0.11562499999999787
        },
        {
          "name": "G#2",
          "midi": 44,
          "time": 17.297916666666683,
          "velocity": 0.5905511811023622,
          "duration": 0.15104166666666785
        },
        {
          "name": "F1",
          "midi": 29,
          "time": 17.343750000000018,
          "velocity": 0.36220472440944884,
          "duration": 0.1281250000000007
        },
        {
          "name": "G#2",
          "midi": 44,
          "time": 17.44895833333335,
          "velocity": 0.4330708661417323,
          "duration": 0.08125000000000071
        },
        {
          "name": "F3",
          "midi": 53,
          "time": 17.576041666666686,
          "velocity": 0.3779527559055118,
          "duration": 0.09270833333333428
        },
        {
          "name": "G#2",
          "midi": 44,
          "time": 17.738541666666688,
          "velocity": 0.4330708661417323,
          "duration": 0.29166666666666785
        },
        {
          "name": "C#2",
          "midi": 37,
          "time": 17.855208333333355,
          "velocity": 0.33858267716535434,
          "duration": 0.07083333333333286
        },
        {
          "name": "F1",
          "midi": 29,
          "time": 17.879166666666688,
          "velocity": 0.3543307086614173,
          "duration": 0.15104166666666785
        },
        {
          "name": "G#2",
          "midi": 44,
          "time": 18.04166666666669,
          "velocity": 0.49606299212598426,
          "duration": 0.09270833333333428
        },
        {
          "name": "G#3",
          "midi": 56,
          "time": 18.309375000000024,
          "velocity": 0.5275590551181102,
          "duration": 0.6500000000000021
        },
        {
          "name": "F1",
          "midi": 29,
          "time": 18.40208333333336,
          "velocity": 0.48031496062992124,
          "duration": 0.16250000000000142
        },
        {
          "name": "G#2",
          "midi": 44,
          "time": 18.48333333333336,
          "velocity": 0.4015748031496063,
          "duration": 0.09270833333333428
        },
        {
          "name": "G#2",
          "midi": 44,
          "time": 18.587500000000027,
          "velocity": 0.33070866141732286,
          "duration": 0.4875000000000007
        },
        {
          "name": "G#3",
          "midi": 56,
          "time": 18.959375000000026,
          "velocity": 0.5984251968503937,
          "duration": 0.2552083333333357
        },
        {
          "name": "G#2",
          "midi": 44,
          "time": 19.075000000000028,
          "velocity": 0.3858267716535433,
          "duration": 0.06979166666666714
        },
        {
          "name": "G#2",
          "midi": 44,
          "time": 19.272916666666696,
          "velocity": 0.3700787401574803,
          "duration": 0.08125000000000071
        },
        {
          "name": "F3",
          "midi": 53,
          "time": 19.28437500000003,
          "velocity": 0.36220472440944884,
          "duration": 0.19687500000000213
        },
        {
          "name": "F1",
          "midi": 29,
          "time": 19.411458333333364,
          "velocity": 0.3700787401574803,
          "duration": 0.18541666666666856
        },
        {
          "name": "F3",
          "midi": 53,
          "time": 19.48125000000003,
          "velocity": 0.5039370078740157,
          "duration": 0.1281250000000007
        },
        {
          "name": "F3",
          "midi": 53,
          "time": 19.609375000000032,
          "velocity": 0.41732283464566927,
          "duration": 0.10416666666666785
        },
        {
          "name": "F3",
          "midi": 53,
          "time": 19.7135416666667,
          "velocity": 0.3700787401574803,
          "duration": 0.06979166666666714
        },
        {
          "name": "G3",
          "midi": 55,
          "time": 19.817708333333368,
          "velocity": 0.47244094488188976,
          "duration": 0.2447916666666643
        },
        {
          "name": "F1",
          "midi": 29,
          "time": 19.830208333333367,
          "velocity": 0.3937007874015748,
          "duration": 0.25624999999999787
        },
        {
          "name": "G3",
          "midi": 55,
          "time": 20.063541666666698,
          "velocity": 0.5984251968503937,
          "duration": 0.15104166666666785
        },
        {
          "name": "G3",
          "midi": 55,
          "time": 20.214583333333366,
          "velocity": 0.4409448818897638,
          "duration": 0.3020833333333357
        },
        {
          "name": "C2",
          "midi": 36,
          "time": 20.214583333333366,
          "velocity": 0.30708661417322836,
          "duration": 0.26666666666666927
        },
        {
          "name": "D#2",
          "midi": 39,
          "time": 20.271875000000033,
          "velocity": 0.4409448818897638,
          "duration": 0.18541666666666856
        },
        {
          "name": "D#4",
          "midi": 63,
          "time": 20.271875000000033,
          "velocity": 0.41732283464566927,
          "duration": 0.19687500000000213
        },
        {
          "name": "A#3",
          "midi": 58,
          "time": 20.3416666666667,
          "velocity": 0.3464566929133858,
          "duration": 0.15104166666666785
        },
        {
          "name": "D#2",
          "midi": 39,
          "time": 20.458333333333368,
          "velocity": 0.36220472440944884,
          "duration": 0.3020833333333357
        },
        {
          "name": "A#2",
          "midi": 46,
          "time": 20.562500000000036,
          "velocity": 0.31496062992125984,
          "duration": 0.40625000000000355
        },
        {
          "name": "F#2",
          "midi": 42,
          "time": 20.643750000000036,
          "velocity": 0.25196850393700787,
          "duration": 0.10416666666666785
        },
        {
          "name": "D#2",
          "midi": 39,
          "time": 20.759375000000038,
          "velocity": 0.3228346456692913,
          "duration": 0.48750000000000426
        },
        {
          "name": "G3",
          "midi": 55,
          "time": 20.78333333333337,
          "velocity": 0.33070866141732286,
          "duration": 0.08125000000000071
        },
        {
          "name": "A#2",
          "midi": 46,
          "time": 20.96875000000004,
          "velocity": 0.3543307086614173,
          "duration": 0.16250000000000142
        },
        {
          "name": "F2",
          "midi": 41,
          "time": 20.980208333333373,
          "velocity": 0.4566929133858268,
          "duration": 0.13958333333333428
        },
        {
          "name": "D#4",
          "midi": 63,
          "time": 20.991666666666706,
          "velocity": 0.3543307086614173,
          "duration": 0.11562500000000142
        },
        {
          "name": "D#2",
          "midi": 39,
          "time": 21.247916666666708,
          "velocity": 0.4566929133858268,
          "duration": 0.2906249999999986
        },
        {
          "name": "G3",
          "midi": 55,
          "time": 21.247916666666708,
          "velocity": 0.3937007874015748,
          "duration": 0.1281250000000007
        },
        {
          "name": "D#4",
          "midi": 63,
          "time": 21.28229166666671,
          "velocity": 0.3937007874015748,
          "duration": 0.19687499999999858
        },
        {
          "name": "F3",
          "midi": 53,
          "time": 21.58437500000004,
          "velocity": 0.33070866141732286,
          "duration": 0.09270833333333428
        },
        {
          "name": "D#2",
          "midi": 39,
          "time": 21.781250000000043,
          "velocity": 0.4566929133858268,
          "duration": 0.15208333333333357
        },
        {
          "name": "D#4",
          "midi": 63,
          "time": 21.781250000000043,
          "velocity": 0.3228346456692913,
          "duration": 0.07083333333333286
        },
        {
          "name": "C2",
          "midi": 36,
          "time": 21.839583333333376,
          "velocity": 0.31496062992125984,
          "duration": 0.07083333333333286
        },
        {
          "name": "D#2",
          "midi": 39,
          "time": 21.933333333333376,
          "velocity": 0.47244094488188976,
          "duration": 0.16250000000000142
        },
        {
          "name": "G#1",
          "midi": 32,
          "time": 21.980208333333376,
          "velocity": 0.3543307086614173,
          "duration": 0.10416666666666785
        },
        {
          "name": "D#2",
          "midi": 39,
          "time": 22.095833333333378,
          "velocity": 0.3228346456692913,
          "duration": 0.185416666666665
        },
        {
          "name": "D#2",
          "midi": 39,
          "time": 22.28229166666671,
          "velocity": 0.47244094488188976,
          "duration": 0.31354166666666927
        },
        {
          "name": "C2",
          "midi": 36,
          "time": 22.39791666666671,
          "velocity": 0.3779527559055118,
          "duration": 0.10416666666666785
        },
        {
          "name": "D#2",
          "midi": 39,
          "time": 22.595833333333378,
          "velocity": 0.28346456692913385,
          "duration": 0.24375000000000213
        },
        {
          "name": "G3",
          "midi": 55,
          "time": 22.722916666666713,
          "velocity": 0.4330708661417323,
          "duration": 0.24375000000000213
        },
        {
          "name": "G3",
          "midi": 55,
          "time": 22.966666666666715,
          "velocity": 0.6220472440944882,
          "duration": 0.18541666666666856
        },
        {
          "name": "D#2",
          "midi": 39,
          "time": 23.013541666666715,
          "velocity": 0.4015748031496063,
          "duration": 0.11562500000000142
        },
        {
          "name": "D#3",
          "midi": 51,
          "time": 23.31562500000005,
          "velocity": 0.33858267716535434,
          "duration": 0.16250000000000142
        },
        {
          "name": "D#2",
          "midi": 39,
          "time": 23.327083333333384,
          "velocity": 0.3543307086614173,
          "duration": 0.26666666666666927
        },
        {
          "name": "D#3",
          "midi": 51,
          "time": 23.478125000000052,
          "velocity": 0.5118110236220472,
          "duration": 0.16250000000000142
        },
        {
          "name": "F3",
          "midi": 53,
          "time": 23.76770833333339,
          "velocity": 0.5669291338582677,
          "duration": 0.12916666666666643
        },
        {
          "name": "D#3",
          "midi": 51,
          "time": 24.025000000000055,
          "velocity": 0.5118110236220472,
          "duration": 0.09270833333333428
        },
        {
          "name": "F3",
          "midi": 53,
          "time": 24.11770833333339,
          "velocity": 0.4881889763779528,
          "duration": 0.40625000000000355
        },
        {
          "name": "G#2",
          "midi": 44,
          "time": 24.23333333333339,
          "velocity": 0.3779527559055118,
          "duration": 0.13958333333333428
        },
        {
          "name": "F2",
          "midi": 41,
          "time": 24.24583333333339,
          "velocity": 0.33858267716535434,
          "duration": 0.3020833333333357
        },
        {
          "name": "C4",
          "midi": 60,
          "time": 24.24583333333339,
          "velocity": 0.3858267716535433,
          "duration": 0.24375000000000213
        },
        {
          "name": "G#3",
          "midi": 56,
          "time": 24.268750000000058,
          "velocity": 0.3779527559055118,
          "duration": 0.2552083333333357
        },
        {
          "name": "F2",
          "midi": 41,
          "time": 24.54687500000006,
          "velocity": 0.3779527559055118,
          "duration": 0.08125000000000071
        },
        {
          "name": "G#2",
          "midi": 44,
          "time": 24.570833333333393,
          "velocity": 0.33070866141732286,
          "duration": 0.38333333333333286
        },
        {
          "name": "G#2",
          "midi": 44,
          "time": 24.95312500000006,
          "velocity": 0.47244094488188976,
          "duration": 0.13958333333333428
        },
        {
          "name": "F2",
          "midi": 41,
          "time": 25.035416666666727,
          "velocity": 0.4330708661417323,
          "duration": 0.10416666666666785
        },
        {
          "name": "G#2",
          "midi": 44,
          "time": 25.092708333333395,
          "velocity": 0.33858267716535434,
          "duration": 0.3833333333333364
        },
        {
          "name": "F3",
          "midi": 53,
          "time": 25.290625000000063,
          "velocity": 0.3858267716535433,
          "duration": 0.26666666666666927
        },
        {
          "name": "G#1",
          "midi": 32,
          "time": 25.290625000000063,
          "velocity": 0.31496062992125984,
          "duration": 0.06979166666666714
        },
        {
          "name": "F3",
          "midi": 53,
          "time": 25.568750000000065,
          "velocity": 0.4015748031496063,
          "duration": 0.11562500000000142
        },
        {
          "name": "G#2",
          "midi": 44,
          "time": 25.7895833333334,
          "velocity": 0.33858267716535434,
          "duration": 0.05937499999999929
        },
        {
          "name": "G#1",
          "midi": 32,
          "time": 25.8239583333334,
          "velocity": 0.3228346456692913,
          "duration": 0.07083333333333286
        },
        {
          "name": "C#2",
          "midi": 37,
          "time": 25.871875000000067,
          "velocity": 0.3858267716535433,
          "duration": 0.10416666666666785
        },
        {
          "name": "G#2",
          "midi": 44,
          "time": 26.034375000000068,
          "velocity": 0.3464566929133858,
          "duration": 0.06979166666666714
        },
        {
          "name": "G#2",
          "midi": 44,
          "time": 26.266666666666737,
          "velocity": 0.33070866141732286,
          "duration": 0.06979166666666714
        },
        {
          "name": "C3",
          "midi": 48,
          "time": 26.27812500000007,
          "velocity": 0.3543307086614173,
          "duration": 0.06979166666666714
        },
        {
          "name": "F2",
          "midi": 41,
          "time": 26.313541666666737,
          "velocity": 0.3700787401574803,
          "duration": 0.2552083333333357
        },
        {
          "name": "G#1",
          "midi": 32,
          "time": 26.313541666666737,
          "velocity": 0.31496062992125984,
          "duration": 0.16250000000000142
        },
        {
          "name": "C#2",
          "midi": 37,
          "time": 26.336458333333404,
          "velocity": 0.4015748031496063,
          "duration": 0.18541666666666856
        },
        {
          "name": "C4",
          "midi": 60,
          "time": 26.742708333333407,
          "velocity": 0.6377952755905512,
          "duration": 0.173958333333335
        },
        {
          "name": "G#3",
          "midi": 56,
          "time": 26.940625000000075,
          "velocity": 0.6456692913385826,
          "duration": 0.24374999999999858
        },
        {
          "name": "G#2",
          "midi": 44,
          "time": 26.940625000000075,
          "velocity": 0.25984251968503935,
          "duration": 0.185416666666665
        },
        {
          "name": "G#3",
          "midi": 56,
          "time": 27.184375000000074,
          "velocity": 0.44881889763779526,
          "duration": 0.09270833333333428
        },
        {
          "name": "G3",
          "midi": 55,
          "time": 27.277083333333408,
          "velocity": 0.41732283464566927,
          "duration": 0.09270833333333428
        },
        {
          "name": "F3",
          "midi": 53,
          "time": 27.381250000000076,
          "velocity": 0.5118110236220472,
          "duration": 0.29062500000000213
        },
        {
          "name": "F2",
          "midi": 41,
          "time": 27.509375000000077,
          "velocity": 0.33858267716535434,
          "duration": 0.06979166666666714
        },
        {
          "name": "G3",
          "midi": 55,
          "time": 27.717708333333412,
          "velocity": 0.4566929133858268,
          "duration": 0.3500000000000014
        },
        {
          "name": "G2",
          "midi": 43,
          "time": 27.717708333333412,
          "velocity": 0.3464566929133858,
          "duration": 0.08125000000000071
        },
        {
          "name": "C3",
          "midi": 48,
          "time": 27.764583333333412,
          "velocity": 0.33070866141732286,
          "duration": 0.05937499999999929
        },
        {
          "name": "F3",
          "midi": 53,
          "time": 27.952083333333412,
          "velocity": 0.3700787401574803,
          "duration": 0.08125000000000071
        },
        {
          "name": "G3",
          "midi": 55,
          "time": 28.067708333333414,
          "velocity": 0.5984251968503937,
          "duration": 0.1281250000000007
        },
        {
          "name": "G3",
          "midi": 55,
          "time": 28.195833333333415,
          "velocity": 0.4015748031496063,
          "duration": 0.6729166666666693
        },
        {
          "name": "D#3",
          "midi": 51,
          "time": 28.207291666666748,
          "velocity": 0.3228346456692913,
          "duration": 0.15104166666666785
        },
        {
          "name": "D#2",
          "midi": 39,
          "time": 28.24166666666675,
          "velocity": 0.3464566929133858,
          "duration": 0.09270833333333428
        },
        {
          "name": "D#4",
          "midi": 63,
          "time": 28.28854166666675,
          "velocity": 0.3228346456692913,
          "duration": 0.15104166666666785
        },
        {
          "name": "D#2",
          "midi": 39,
          "time": 28.334375000000083,
          "velocity": 0.5039370078740157,
          "duration": 0.06979166666666714
        },
        {
          "name": "D#2",
          "midi": 39,
          "time": 28.40416666666675,
          "velocity": 0.4330708661417323,
          "duration": 0.2781249999999993
        },
        {
          "name": "D#3",
          "midi": 51,
          "time": 28.57812500000008,
          "velocity": 0.33858267716535434,
          "duration": 0.29062500000000213
        },
        {
          "name": "D#2",
          "midi": 39,
          "time": 28.753125000000082,
          "velocity": 0.29133858267716534,
          "duration": 0.2552083333333357
        },
        {
          "name": "A#2",
          "midi": 46,
          "time": 28.787500000000083,
          "velocity": 0.30708661417322836,
          "duration": 0.4760416666666707
        },
        {
          "name": "F2",
          "midi": 41,
          "time": 28.927083333333417,
          "velocity": 0.2992125984251969,
          "duration": 0.11562500000000142
        },
        {
          "name": "D#2",
          "midi": 39,
          "time": 29.008333333333418,
          "velocity": 0.3464566929133858,
          "duration": 0.11562500000000142
        },
        {
          "name": "D#3",
          "midi": 51,
          "time": 29.065625000000086,
          "velocity": 0.36220472440944884,
          "duration": 0.08125000000000071
        },
        {
          "name": "D#2",
          "midi": 39,
          "time": 29.263541666666754,
          "velocity": 0.5433070866141733,
          "duration": 0.23229166666666856
        },
        {
          "name": "D#4",
          "midi": 63,
          "time": 29.263541666666754,
          "velocity": 0.3464566929133858,
          "duration": 0.16250000000000142
        },
        {
          "name": "D#3",
          "midi": 51,
          "time": 29.297916666666755,
          "velocity": 0.33858267716535434,
          "duration": 0.11562500000000142
        },
        {
          "name": "F3",
          "midi": 53,
          "time": 29.577083333333423,
          "velocity": 0.3228346456692913,
          "duration": 0.08125000000000071
        },
        {
          "name": "D#2",
          "midi": 39,
          "time": 29.786458333333425,
          "velocity": 0.4566929133858268,
          "duration": 0.05937499999999929
        },
        {
          "name": "D#2",
          "midi": 39,
          "time": 29.844791666666758,
          "velocity": 0.4251968503937008,
          "duration": 0.185416666666665
        },
        {
          "name": "G4",
          "midi": 67,
          "time": 29.98437500000009,
          "velocity": 0.33858267716535434,
          "duration": 0.06979166666666714
        },
        {
          "name": "G3",
          "midi": 55,
          "time": 29.98437500000009,
          "velocity": 0.5511811023622047,
          "duration": 0.24375000000000213
        },
        {
          "name": "D#2",
          "midi": 39,
          "time": 30.03125000000009,
          "velocity": 0.41732283464566927,
          "duration": 0.10416666666666785
        },
        {
          "name": "G3",
          "midi": 55,
          "time": 30.22812500000009,
          "velocity": 0.5748031496062992,
          "duration": 0.20937500000000142
        },
        {
          "name": "D#2",
          "midi": 39,
          "time": 30.27500000000009,
          "velocity": 0.41732283464566927,
          "duration": 0.20937500000000142
        },
        {
          "name": "D#3",
          "midi": 51,
          "time": 30.46041666666676,
          "velocity": 0.33858267716535434,
          "duration": 0.08125000000000071
        },
        {
          "name": "D#2",
          "midi": 39,
          "time": 30.495833333333426,
          "velocity": 0.3779527559055118,
          "duration": 0.06979166666666714
        },
        {
          "name": "D#3",
          "midi": 51,
          "time": 30.728125000000095,
          "velocity": 0.47244094488188976,
          "duration": 0.11562500000000142
        },
        {
          "name": "D#2",
          "midi": 39,
          "time": 30.762500000000095,
          "velocity": 0.5039370078740157,
          "duration": 0.09270833333333428
        },
        {
          "name": "G2",
          "midi": 43,
          "time": 30.77395833333343,
          "velocity": 0.36220472440944884,
          "duration": 0.08125000000000071
        },
        {
          "name": "D#2",
          "midi": 39,
          "time": 30.85520833333343,
          "velocity": 0.2992125984251969,
          "duration": 0.25520833333333215
        },
        {
          "name": "G2",
          "midi": 43,
          "time": 31.191666666666762,
          "velocity": 0.2992125984251969,
          "duration": 0.18541666666666856
        },
        {
          "name": "D#3",
          "midi": 51,
          "time": 31.250000000000096,
          "velocity": 0.5905511811023622,
          "duration": 0.20937500000000142
        },
        {
          "name": "D#2",
          "midi": 39,
          "time": 31.296875000000096,
          "velocity": 0.5354330708661418,
          "duration": 0.18541666666666856
        },
        {
          "name": "F3",
          "midi": 53,
          "time": 31.459375000000097,
          "velocity": 0.4881889763779528,
          "duration": 0.18541666666666856
        },
        {
          "name": "D#2",
          "midi": 39,
          "time": 31.482291666666764,
          "velocity": 0.4330708661417323,
          "duration": 0.11562500000000142
        },
        {
          "name": "D#2",
          "midi": 39,
          "time": 31.679166666666767,
          "velocity": 0.33858267716535434,
          "duration": 0.23333333333333428
        },
        {
          "name": "G2",
          "midi": 43,
          "time": 31.772916666666767,
          "velocity": 0.3543307086614173,
          "duration": 0.07083333333333286
        },
        {
          "name": "A#2",
          "midi": 46,
          "time": 32.0062500000001,
          "velocity": 0.5984251968503937,
          "duration": 0.16250000000000142
        },
        {
          "name": "C3",
          "midi": 48,
          "time": 32.19166666666677,
          "velocity": 0.5118110236220472,
          "duration": 0.06979166666666714
        },
        {
          "name": "G#2",
          "midi": 44,
          "time": 32.26145833333344,
          "velocity": 0.3700787401574803,
          "duration": 0.32499999999999574
        },
        {
          "name": "C4",
          "midi": 60,
          "time": 32.27291666666677,
          "velocity": 0.4409448818897638,
          "duration": 0.13958333333333428
        },
        {
          "name": "C3",
          "midi": 48,
          "time": 32.27291666666677,
          "velocity": 0.6062992125984252,
          "duration": 0.3135416666666657
        },
        {
          "name": "G#3",
          "midi": 56,
          "time": 32.30833333333344,
          "velocity": 0.4094488188976378,
          "duration": 0.6499999999999844
        },
        {
          "name": "D#4",
          "midi": 63,
          "time": 32.331250000000104,
          "velocity": 0.36220472440944884,
          "duration": 0.18541666666666146
        },
        {
          "name": "C3",
          "midi": 48,
          "time": 32.58645833333343,
          "velocity": 0.6220472440944882,
          "duration": 0.1041666666666643
        },
        {
          "name": "G#2",
          "midi": 44,
          "time": 32.58645833333343,
          "velocity": 0.5039370078740157,
          "duration": 0.22083333333332433
        },
        {
          "name": "C3",
          "midi": 48,
          "time": 32.6906250000001,
          "velocity": 0.5669291338582677,
          "duration": 0.2666666666666586
        },
        {
          "name": "C4",
          "midi": 60,
          "time": 32.79583333333343,
          "velocity": 0.3228346456692913,
          "duration": 0.08124999999999716
        },
        {
          "name": "G#2",
          "midi": 44,
          "time": 32.80729166666676,
          "velocity": 0.48031496062992124,
          "duration": 0.1510416666666643
        },
        {
          "name": "G#3",
          "midi": 56,
          "time": 32.95833333333342,
          "velocity": 0.3858267716535433,
          "duration": 0.16249999999999432
        },
        {
          "name": "G#2",
          "midi": 44,
          "time": 32.95833333333342,
          "velocity": 0.5275590551181102,
          "duration": 0.24374999999999147
        },
        {
          "name": "F2",
          "midi": 41,
          "time": 32.99270833333342,
          "velocity": 0.4645669291338583,
          "duration": 0.1510416666666643
        },
        {
          "name": "D#3",
          "midi": 51,
          "time": 33.120833333333415,
          "velocity": 0.33858267716535434,
          "duration": 0.08124999999999716
        },
        {
          "name": "G#2",
          "midi": 44,
          "time": 33.20208333333341,
          "velocity": 0.4645669291338583,
          "duration": 0.06979166666666714
        },
        {
          "name": "G#3",
          "midi": 56,
          "time": 33.24791666666675,
          "velocity": 0.33858267716535434,
          "duration": 0.22083333333333144
        },
        {
          "name": "G#2",
          "midi": 44,
          "time": 33.27187500000008,
          "velocity": 0.5433070866141733,
          "duration": 0.2552083333333286
        },
        {
          "name": "C4",
          "midi": 60,
          "time": 33.39895833333341,
          "velocity": 0.3858267716535433,
          "duration": 0.3135416666666657
        },
        {
          "name": "F3",
          "midi": 53,
          "time": 33.57291666666674,
          "velocity": 0.3779527559055118,
          "duration": 0.1041666666666643
        },
        {
          "name": "C4",
          "midi": 60,
          "time": 33.72395833333341,
          "velocity": 0.5748031496062992,
          "duration": 0.19895833333333712
        },
        {
          "name": "G#2",
          "midi": 44,
          "time": 33.72395833333341,
          "velocity": 0.4094488188976378,
          "duration": 0.10625000000000284
        },
        {
          "name": "C4",
          "midi": 60,
          "time": 33.922916666666744,
          "velocity": 0.6141732283464567,
          "duration": 0.3135416666666586
        },
        {
          "name": "G#2",
          "midi": 44,
          "time": 33.981250000000074,
          "velocity": 0.33858267716535434,
          "duration": 0.08124999999999716
        },
        {
          "name": "C4",
          "midi": 60,
          "time": 34.2364583333334,
          "velocity": 0.6692913385826772,
          "duration": 0.2906250000000057
        },
        {
          "name": "C3",
          "midi": 48,
          "time": 34.2364583333334,
          "velocity": 0.4094488188976378,
          "duration": 0.17395833333333854
        },
        {
          "name": "G#2",
          "midi": 44,
          "time": 34.2708333333334,
          "velocity": 0.3700787401574803,
          "duration": 0.08125000000000426
        },
        {
          "name": "F2",
          "midi": 41,
          "time": 34.30625000000007,
          "velocity": 0.3700787401574803,
          "duration": 0.08125000000000426
        },
        {
          "name": "G#3",
          "midi": 56,
          "time": 34.59583333333341,
          "velocity": 0.6771653543307087,
          "duration": 0.09270833333333428
        },
        {
          "name": "G#2",
          "midi": 44,
          "time": 34.61979166666674,
          "velocity": 0.3858267716535433,
          "duration": 0.08124999999999716
        },
        {
          "name": "C3",
          "midi": 48,
          "time": 34.64270833333341,
          "velocity": 0.3464566929133858,
          "duration": 0.18541666666666146
        },
        {
          "name": "G#3",
          "midi": 56,
          "time": 34.68958333333341,
          "velocity": 0.5669291338582677,
          "duration": 0.13958333333332718
        },
        {
          "name": "D#3",
          "midi": 51,
          "time": 34.68958333333341,
          "velocity": 0.36220472440944884,
          "duration": 0.13958333333332718
        },
        {
          "name": "G#2",
          "midi": 44,
          "time": 34.70104166666674,
          "velocity": 0.48031496062992124,
          "duration": 0.19687499999999858
        },
        {
          "name": "C3",
          "midi": 48,
          "time": 35.200000000000074,
          "velocity": 0.2677165354330709,
          "duration": 0.12812499999999716
        },
        {
          "name": "G#3",
          "midi": 56,
          "time": 35.246875000000074,
          "velocity": 0.6299212598425197,
          "duration": 0.2552083333333286
        },
        {
          "name": "G#2",
          "midi": 44,
          "time": 35.26979166666674,
          "velocity": 0.41732283464566927,
          "duration": 0.11562499999999432
        },
        {
          "name": "F3",
          "midi": 53,
          "time": 35.59479166666674,
          "velocity": 0.5039370078740157,
          "duration": 0.17499999999999716
        },
        {
          "name": "G#2",
          "midi": 44,
          "time": 35.78229166666674,
          "velocity": 0.3779527559055118,
          "duration": 0.20937500000000142
        },
        {
          "name": "G#2",
          "midi": 44,
          "time": 36.0020833333334,
          "velocity": 0.4645669291338583,
          "duration": 0.13958333333333428
        },
        {
          "name": "G3",
          "midi": 55,
          "time": 36.20000000000007,
          "velocity": 0.4409448818897638,
          "duration": 0.24374999999999147
        },
        {
          "name": "G2",
          "midi": 43,
          "time": 36.20000000000007,
          "velocity": 0.28346456692913385,
          "duration": 0.11562499999999432
        },
        {
          "name": "A#4",
          "midi": 70,
          "time": 36.2114583333334,
          "velocity": 0.25984251968503935,
          "duration": 0.09270833333333428
        },
        {
          "name": "D#4",
          "midi": 63,
          "time": 36.2114583333334,
          "velocity": 0.23622047244094488,
          "duration": 0.06979166666666714
        },
        {
          "name": "G4",
          "midi": 67,
          "time": 36.22291666666673,
          "velocity": 0.29133858267716534,
          "duration": 0.09270833333333428
        },
        {
          "name": "D#3",
          "midi": 51,
          "time": 36.2583333333334,
          "velocity": 0.3937007874015748,
          "duration": 0.09270833333333428
        },
        {
          "name": "D#4",
          "midi": 63,
          "time": 36.281250000000064,
          "velocity": 0.4251968503937008,
          "duration": 0.08124999999999716
        },
        {
          "name": "D#2",
          "midi": 39,
          "time": 36.30416666666673,
          "velocity": 0.2755905511811024,
          "duration": 0.06979166666666003
        },
        {
          "name": "A#3",
          "midi": 58,
          "time": 36.31562500000006,
          "velocity": 0.3543307086614173,
          "duration": 0.08124999999999716
        },
        {
          "name": "C2",
          "midi": 36,
          "time": 36.35104166666673,
          "velocity": 0.3228346456692913,
          "duration": 0.09270833333332718
        },
        {
          "name": "D#4",
          "midi": 63,
          "time": 36.36250000000006,
          "velocity": 0.4409448818897638,
          "duration": 0.13958333333332718
        },
        {
          "name": "A#3",
          "midi": 58,
          "time": 36.39687500000006,
          "velocity": 0.4015748031496063,
          "duration": 0.13958333333332718
        },
        {
          "name": "G3",
          "midi": 55,
          "time": 36.44375000000006,
          "velocity": 0.4015748031496063,
          "duration": 0.09270833333332718
        },
        {
          "name": "D#3",
          "midi": 51,
          "time": 36.536458333333385,
          "velocity": 0.4251968503937008,
          "duration": 0.06979166666666714
        },
        {
          "name": "A#2",
          "midi": 46,
          "time": 36.583333333333385,
          "velocity": 0.30708661417322836,
          "duration": 0.568749999999973
        },
        {
          "name": "D#3",
          "midi": 51,
          "time": 36.60625000000005,
          "velocity": 0.6850393700787402,
          "duration": 0.19687499999999147
        },
        {
          "name": "D#2",
          "midi": 39,
          "time": 36.61770833333338,
          "velocity": 0.3543307086614173,
          "duration": 0.18541666666666146
        },
        {
          "name": "C3",
          "midi": 48,
          "time": 36.72187500000005,
          "velocity": 0.3779527559055118,
          "duration": 0.09270833333332718
        },
        {
          "name": "A#3",
          "midi": 58,
          "time": 36.76875000000005,
          "velocity": 0.3464566929133858,
          "duration": 0.16249999999999432
        },
        {
          "name": "D#3",
          "midi": 51,
          "time": 36.803125000000044,
          "velocity": 0.5275590551181102,
          "duration": 0.13958333333332718
        },
        {
          "name": "D#2",
          "midi": 39,
          "time": 36.803125000000044,
          "velocity": 0.3937007874015748,
          "duration": 0.08124999999999716
        },
        {
          "name": "G3",
          "midi": 55,
          "time": 36.82708333333338,
          "velocity": 0.30708661417322836,
          "duration": 0.23229166666665435
        },
        {
          "name": "A#3",
          "midi": 58,
          "time": 36.94270833333337,
          "velocity": 0.36220472440944884,
          "duration": 0.13958333333332718
        },
        {
          "name": "D#3",
          "midi": 51,
          "time": 36.94270833333337,
          "velocity": 0.4330708661417323,
          "duration": 0.1510416666666572
        },
        {
          "name": "F2",
          "midi": 41,
          "time": 36.94270833333337,
          "velocity": 0.23622047244094488,
          "duration": 0.06979166666666003
        },
        {
          "name": "C3",
          "midi": 48,
          "time": 36.9541666666667,
          "velocity": 0.36220472440944884,
          "duration": 0.11562499999999432
        },
        {
          "name": "D#4",
          "midi": 63,
          "time": 36.9541666666667,
          "velocity": 0.4015748031496063,
          "duration": 0.1510416666666572
        },
        {
          "name": "F2",
          "midi": 41,
          "time": 37.01250000000003,
          "velocity": 0.36220472440944884,
          "duration": 0.06979166666666714
        },
        {
          "name": "C4",
          "midi": 60,
          "time": 37.02395833333336,
          "velocity": 0.30708661417322836,
          "duration": 0.06979166666666714
        },
        {
          "name": "D#3",
          "midi": 51,
          "time": 37.09375000000003,
          "velocity": 0.3858267716535433,
          "duration": 0.08124999999999716
        },
        {
          "name": "G4",
          "midi": 67,
          "time": 37.24479166666669,
          "velocity": 0.4566929133858268,
          "duration": 0.18541666666666856
        },
        {
          "name": "G3",
          "midi": 55,
          "time": 37.24479166666669,
          "velocity": 0.5984251968503937,
          "duration": 0.2552083333333357
        },
        {
          "name": "D#2",
          "midi": 39,
          "time": 37.26770833333336,
          "velocity": 0.4015748031496063,
          "duration": 0.18541666666666856
        },
        {
          "name": "D#4",
          "midi": 63,
          "time": 37.26770833333336,
          "velocity": 0.4566929133858268,
          "duration": 0.2552083333333357
        },
        {
          "name": "D#4",
          "midi": 63,
          "time": 37.60416666666669,
          "velocity": 0.28346456692913385,
          "duration": 0.08124999999999716
        },
        {
          "name": "D#3",
          "midi": 51,
          "time": 37.60416666666669,
          "velocity": 0.6456692913385826,
          "duration": 0.1041666666666643
        },
        {
          "name": "D#2",
          "midi": 39,
          "time": 37.60416666666669,
          "velocity": 0.25196850393700787,
          "duration": 0.1406249999999929
        },
        {
          "name": "G#2",
          "midi": 44,
          "time": 37.68541666666669,
          "velocity": 0.31496062992125984,
          "duration": 0.07083333333332575
        },
        {
          "name": "D#3",
          "midi": 51,
          "time": 37.70937500000002,
          "velocity": 0.5669291338582677,
          "duration": 0.23333333333332718
        },
        {
          "name": "C3",
          "midi": 48,
          "time": 37.72083333333335,
          "velocity": 0.3700787401574803,
          "duration": 0.41874999999999574
        },
        {
          "name": "D#2",
          "midi": 39,
          "time": 37.744791666666686,
          "velocity": 0.5511811023622047,
          "duration": 0.08124999999999716
        },
        {
          "name": "D#2",
          "midi": 39,
          "time": 37.82604166666668,
          "velocity": 0.5118110236220472,
          "duration": 0.3135416666666657
        },
        {
          "name": "D#4",
          "midi": 63,
          "time": 37.96562500000002,
          "velocity": 0.36220472440944884,
          "duration": 0.11562500000000142
        },
        {
          "name": "G4",
          "midi": 67,
          "time": 38.30208333333335,
          "velocity": 0.49606299212598426,
          "duration": 0.20937499999999432
        },
        {
          "name": "G3",
          "midi": 55,
          "time": 38.31458333333335,
          "velocity": 0.6220472440944882,
          "duration": 0.23229166666666146
        },
        {
          "name": "D#2",
          "midi": 39,
          "time": 38.32604166666668,
          "velocity": 0.4251968503937008,
          "duration": 0.1041666666666643
        },
        {
          "name": "D#4",
          "midi": 63,
          "time": 38.36041666666668,
          "velocity": 0.3464566929133858,
          "duration": 0.13958333333333428
        },
        {
          "name": "D#3",
          "midi": 51,
          "time": 38.627083333333346,
          "velocity": 0.7086614173228346,
          "duration": 0.08124999999999716
        },
        {
          "name": "D#3",
          "midi": 51,
          "time": 38.70833333333334,
          "velocity": 0.5511811023622047,
          "duration": 0.3020833333333357
        },
        {
          "name": "C3",
          "midi": 48,
          "time": 38.70833333333334,
          "velocity": 0.3543307086614173,
          "duration": 0.11562500000000142
        },
        {
          "name": "D#2",
          "midi": 39,
          "time": 38.720833333333346,
          "velocity": 0.4409448818897638,
          "duration": 0.19687499999999858
        },
        {
          "name": "D#3",
          "midi": 51,
          "time": 39.01041666666668,
          "velocity": 0.6141732283464567,
          "duration": 0.23229166666666146
        },
        {
          "name": "D#2",
          "midi": 39,
          "time": 39.01041666666668,
          "velocity": 0.3543307086614173,
          "duration": 0.6614583333333357
        },
        {
          "name": "G#2",
          "midi": 44,
          "time": 39.16145833333334,
          "velocity": 0.3543307086614173,
          "duration": 0.1510416666666643
        },
        {
          "name": "C3",
          "midi": 48,
          "time": 39.20833333333334,
          "velocity": 0.4330708661417323,
          "duration": 0.13958333333333428
        },
        {
          "name": "D#3",
          "midi": 51,
          "time": 39.46354166666668,
          "velocity": 0.6220472440944882,
          "duration": 0.26875000000000426
        },
        {
          "name": "F3",
          "midi": 53,
          "time": 39.74375000000001,
          "velocity": 0.5433070866141733,
          "duration": 0.3479166666666629
        },
        {
          "name": "D#3",
          "midi": 51,
          "time": 39.98750000000001,
          "velocity": 0.5905511811023622,
          "duration": 0.11562499999999432
        },
        {
          "name": "F3",
          "midi": 53,
          "time": 40.091666666666676,
          "velocity": 0.6535433070866141,
          "duration": 0.10416666666665719
        },
        {
          "name": "G#2",
          "midi": 44,
          "time": 40.184375,
          "velocity": 0.2992125984251969,
          "duration": 0.1624999999999872
        },
        {
          "name": "G#3",
          "midi": 56,
          "time": 40.19583333333333,
          "velocity": 0.29133858267716534,
          "duration": 0.11562499999999432
        },
        {
          "name": "F3",
          "midi": 53,
          "time": 40.19583333333333,
          "velocity": 0.4881889763779528,
          "duration": 0.4645833333333229
        },
        {
          "name": "C3",
          "midi": 48,
          "time": 40.20729166666666,
          "velocity": 0.29133858267716534,
          "duration": 0.09270833333333428
        },
        {
          "name": "C4",
          "midi": 60,
          "time": 40.27708333333333,
          "velocity": 0.3937007874015748,
          "duration": 0.22083333333332433
        },
        {
          "name": "G#3",
          "midi": 56,
          "time": 40.31249999999999,
          "velocity": 0.4330708661417323,
          "duration": 0.32499999999999574
        },
        {
          "name": "F2",
          "midi": 41,
          "time": 40.486458333333324,
          "velocity": 0.3700787401574803,
          "duration": 0.11562499999999432
        },
        {
          "name": "G#2",
          "midi": 44,
          "time": 40.56770833333332,
          "velocity": 0.3543307086614173,
          "duration": 0.19687499999999858
        },
        {
          "name": "G#2",
          "midi": 44,
          "time": 40.76458333333332,
          "velocity": 0.4566929133858268,
          "duration": 0.11562500000000142
        },
        {
          "name": "G#3",
          "midi": 56,
          "time": 40.77708333333332,
          "velocity": 0.3779527559055118,
          "duration": 0.1510416666666643
        },
        {
          "name": "G#3",
          "midi": 56,
          "time": 40.93958333333332,
          "velocity": 0.3228346456692913,
          "duration": 0.16249999999999432
        },
        {
          "name": "G#2",
          "midi": 44,
          "time": 40.93958333333332,
          "velocity": 0.4015748031496063,
          "duration": 0.1510416666666643
        },
        {
          "name": "F2",
          "midi": 41,
          "time": 40.93958333333332,
          "velocity": 0.36220472440944884,
          "duration": 0.17395833333332433
        },
        {
          "name": "G#2",
          "midi": 44,
          "time": 41.09062499999998,
          "velocity": 0.3937007874015748,
          "duration": 0.37187499999999574
        },
        {
          "name": "F3",
          "midi": 53,
          "time": 41.57812499999998,
          "velocity": 0.4881889763779528,
          "duration": 0.12812499999999716
        },
        {
          "name": "G#2",
          "midi": 44,
          "time": 41.71666666666664,
          "velocity": 0.3228346456692913,
          "duration": 0.05937500000000284
        },
        {
          "name": "C4",
          "midi": 60,
          "time": 41.84583333333331,
          "velocity": 0.5354330708661418,
          "duration": 0.06979166666666714
        },
        {
          "name": "C4",
          "midi": 60,
          "time": 41.92708333333331,
          "velocity": 0.5984251968503937,
          "duration": 0.3135416666666657
        },
        {
          "name": "C4",
          "midi": 60,
          "time": 42.24062499999997,
          "velocity": 0.7244094488188977,
          "duration": 0.11562499999999432
        },
        {
          "name": "C3",
          "midi": 48,
          "time": 42.24062499999997,
          "velocity": 0.3543307086614173,
          "duration": 0.1041666666666643
        },
        {
          "name": "F2",
          "midi": 41,
          "time": 42.31041666666664,
          "velocity": 0.36220472440944884,
          "duration": 0.08124999999999005
        },
        {
          "name": "C4",
          "midi": 60,
          "time": 42.35729166666663,
          "velocity": 0.6141732283464567,
          "duration": 0.13958333333332718
        },
        {
          "name": "G#2",
          "midi": 44,
          "time": 42.57708333333329,
          "velocity": 0.28346456692913385,
          "duration": 0.11562500000000142
        },
        {
          "name": "G#3",
          "midi": 56,
          "time": 42.589583333333294,
          "velocity": 0.7165354330708661,
          "duration": 0.1041666666666643
        },
        {
          "name": "G#3",
          "midi": 56,
          "time": 42.69374999999996,
          "velocity": 0.41732283464566927,
          "duration": 0.48749999999999005
        },
        {
          "name": "G#2",
          "midi": 44,
          "time": 42.69374999999996,
          "velocity": 0.33858267716535434,
          "duration": 0.16249999999999432
        },
        {
          "name": "C3",
          "midi": 48,
          "time": 42.70520833333329,
          "velocity": 0.4566929133858268,
          "duration": 0.1510416666666643
        },
        {
          "name": "F2",
          "midi": 41,
          "time": 42.79791666666662,
          "velocity": 0.3228346456692913,
          "duration": 0.22083333333333144
        },
        {
          "name": "F2",
          "midi": 41,
          "time": 43.030208333333285,
          "velocity": 0.3858267716535433,
          "duration": 0.06979166666666714
        },
        {
          "name": "C3",
          "midi": 48,
          "time": 43.14687499999995,
          "velocity": 0.2992125984251969,
          "duration": 0.1041666666666643
        },
        {
          "name": "G#3",
          "midi": 56,
          "time": 43.18124999999995,
          "velocity": 0.4330708661417323,
          "duration": 0.06979166666666714
        },
        {
          "name": "G#3",
          "midi": 56,
          "time": 43.251041666666616,
          "velocity": 0.6614173228346457,
          "duration": 0.2666666666666657
        },
        {
          "name": "C3",
          "midi": 48,
          "time": 43.251041666666616,
          "velocity": 0.3937007874015748,
          "duration": 0.11562500000000142
        },
        {
          "name": "G#2",
          "midi": 44,
          "time": 43.251041666666616,
          "velocity": 0.28346456692913385,
          "duration": 0.09270833333333428
        },
        {
          "name": "F3",
          "midi": 53,
          "time": 43.610416666666616,
          "velocity": 0.6062992125984252,
          "duration": 0.09270833333333428
        },
        {
          "name": "F3",
          "midi": 53,
          "time": 43.704166666666616,
          "velocity": 0.4330708661417323,
          "duration": 0.08229166666666288
        },
        {
          "name": "F2",
          "midi": 41,
          "time": 43.77499999999995,
          "velocity": 0.4251968503937008,
          "duration": 0.27812499999999574
        },
        {
          "name": "G#3",
          "midi": 56,
          "time": 43.867708333333276,
          "velocity": 0.3464566929133858,
          "duration": 0.06979166666666714
        },
        {
          "name": "D#3",
          "midi": 51,
          "time": 44.14583333333328,
          "velocity": 0.3228346456692913,
          "duration": 0.11562500000000142
        },
        {
          "name": "G3",
          "midi": 55,
          "time": 44.19270833333328,
          "velocity": 0.5196850393700787,
          "duration": 0.23229166666666856
        },
        {
          "name": "D#2",
          "midi": 39,
          "time": 44.19270833333328,
          "velocity": 0.2283464566929134,
          "duration": 0.11562500000000142
        },
        {
          "name": "G4",
          "midi": 67,
          "time": 44.215624999999946,
          "velocity": 0.30708661417322836,
          "duration": 0.13958333333333428
        },
        {
          "name": "D#4",
          "midi": 63,
          "time": 44.262499999999946,
          "velocity": 0.3700787401574803,
          "duration": 0.09270833333333428
        },
        {
          "name": "D#3",
          "midi": 51,
          "time": 44.262499999999946,
          "velocity": 0.5275590551181102,
          "duration": 0.33645833333333286
        },
        {
          "name": "G2",
          "midi": 43,
          "time": 44.262499999999946,
          "velocity": 0.33070866141732286,
          "duration": 0.06979166666666714
        },
        {
          "name": "D#2",
          "midi": 39,
          "time": 44.30833333333328,
          "velocity": 0.36220472440944884,
          "duration": 0.27812500000000284
        },
        {
          "name": "D#4",
          "midi": 63,
          "time": 44.35520833333328,
          "velocity": 0.4094488188976378,
          "duration": 0.09270833333333428
        },
        {
          "name": "A#3",
          "midi": 58,
          "time": 44.40208333333328,
          "velocity": 0.5118110236220472,
          "duration": 0.13958333333333428
        },
        {
          "name": "G3",
          "midi": 55,
          "time": 44.42499999999995,
          "velocity": 0.5039370078740157,
          "duration": 0.13958333333333428
        },
        {
          "name": "D#2",
          "midi": 39,
          "time": 44.58749999999995,
          "velocity": 0.4094488188976378,
          "duration": 0.3020833333333286
        },
        {
          "name": "D#3",
          "midi": 51,
          "time": 44.59895833333328,
          "velocity": 0.7559055118110236,
          "duration": 0.09270833333333428
        },
        {
          "name": "A#2",
          "midi": 46,
          "time": 44.59895833333328,
          "velocity": 0.3700787401574803,
          "duration": 0.49895833333331296
        },
        {
          "name": "D#3",
          "midi": 51,
          "time": 44.69166666666661,
          "velocity": 0.6614173228346457,
          "duration": 0.2666666666666515
        },
        {
          "name": "A#3",
          "midi": 58,
          "time": 44.79583333333328,
          "velocity": 0.4330708661417323,
          "duration": 0.13958333333332718
        },
        {
          "name": "G3",
          "midi": 55,
          "time": 44.80833333333328,
          "velocity": 0.33858267716535434,
          "duration": 0.12812499999999005
        },
        {
          "name": "F2",
          "midi": 41,
          "time": 44.923958333333275,
          "velocity": 0.2283464566929134,
          "duration": 0.1510416666666501
        },
        {
          "name": "A#3",
          "midi": 58,
          "time": 44.946874999999935,
          "velocity": 0.36220472440944884,
          "duration": 0.08124999999999005
        },
        {
          "name": "G3",
          "midi": 55,
          "time": 44.946874999999935,
          "velocity": 0.3543307086614173,
          "duration": 0.3020833333333286
        },
        {
          "name": "D#3",
          "midi": 51,
          "time": 44.95937499999993,
          "velocity": 0.5590551181102362,
          "duration": 0.16249999999999432
        },
        {
          "name": "D#4",
          "midi": 63,
          "time": 44.99374999999993,
          "velocity": 0.3779527559055118,
          "duration": 0.08124999999999716
        },
        {
          "name": "A#2",
          "midi": 46,
          "time": 45.09791666666659,
          "velocity": 0.41732283464566927,
          "duration": 0.09270833333333428
        },
        {
          "name": "D#3",
          "midi": 51,
          "time": 45.121874999999925,
          "velocity": 0.48031496062992124,
          "duration": 0.1041666666666714
        },
        {
          "name": "D#2",
          "midi": 39,
          "time": 45.121874999999925,
          "velocity": 0.25196850393700787,
          "duration": 0.13958333333333428
        },
        {
          "name": "G4",
          "midi": 67,
          "time": 45.24895833333326,
          "velocity": 0.47244094488188976,
          "duration": 0.20937499999999432
        },
        {
          "name": "D#4",
          "midi": 63,
          "time": 45.24895833333326,
          "velocity": 0.44881889763779526,
          "duration": 0.3135416666666586
        },
        {
          "name": "G3",
          "midi": 55,
          "time": 45.24895833333326,
          "velocity": 0.6220472440944882,
          "duration": 0.2666666666666586
        },
        {
          "name": "D#3",
          "midi": 51,
          "time": 45.24895833333326,
          "velocity": 0.41732283464566927,
          "duration": 0.20937499999999432
        },
        {
          "name": "D#2",
          "midi": 39,
          "time": 45.26041666666659,
          "velocity": 0.5039370078740157,
          "duration": 0.22083333333333144
        },
        {
          "name": "F3",
          "midi": 53,
          "time": 45.57395833333325,
          "velocity": 0.4015748031496063,
          "duration": 0.08124999999999716
        },
        {
          "name": "D#3",
          "midi": 51,
          "time": 45.60937499999992,
          "velocity": 0.6535433070866141,
          "duration": 0.08229166666665577
        },
        {
          "name": "D#4",
          "midi": 63,
          "time": 45.62083333333325,
          "velocity": 0.2992125984251969,
          "duration": 0.06979166666666003
        },
        {
          "name": "G#2",
          "midi": 44,
          "time": 45.66666666666658,
          "velocity": 0.2677165354330709,
          "duration": 0.1406249999999929
        },
        {
          "name": "D#3",
          "midi": 51,
          "time": 45.69166666666658,
          "velocity": 0.44881889763779526,
          "duration": 0.4531249999999929
        },
        {
          "name": "D#2",
          "midi": 39,
          "time": 45.70312499999991,
          "velocity": 0.41732283464566927,
          "duration": 0.08124999999999716
        },
        {
          "name": "D#2",
          "midi": 39,
          "time": 45.784374999999905,
          "velocity": 0.5433070866141733,
          "duration": 0.3604166666666657
        },
        {
          "name": "G4",
          "midi": 67,
          "time": 46.30729166666657,
          "velocity": 0.4566929133858268,
          "duration": 0.18541666666666856
        },
        {
          "name": "G3",
          "midi": 55,
          "time": 46.30729166666657,
          "velocity": 0.6062992125984252,
          "duration": 0.23229166666666856
        },
        {
          "name": "D#3",
          "midi": 51,
          "time": 46.632291666666575,
          "velocity": 0.7322834645669292,
          "duration": 0.06979166666666714
        },
        {
          "name": "D#3",
          "midi": 51,
          "time": 46.70208333333324,
          "velocity": 0.5826771653543307,
          "duration": 0.3020833333333357
        },
        {
          "name": "D#2",
          "midi": 39,
          "time": 46.72499999999991,
          "velocity": 0.33070866141732286,
          "duration": 0.16250000000000142
        },
        {
          "name": "D#3",
          "midi": 51,
          "time": 47.00312499999991,
          "velocity": 0.7086614173228346,
          "duration": 0.19687499999999858
        },
        {
          "name": "D#3",
          "midi": 51,
          "time": 47.201041666666576,
          "velocity": 0.5511811023622047,
          "duration": 0.6281249999999972
        },
        {
          "name": "D#3",
          "midi": 51,
          "time": 47.944791666666575,
          "velocity": 0.36220472440944884,
          "duration": 0.11562500000000142
        },
        {
          "name": "A#2",
          "midi": 46,
          "time": 48.26979166666658,
          "velocity": 0.3858267716535433,
          "duration": 0.08124999999999716
        },
        {
          "name": "G#3",
          "midi": 56,
          "time": 48.29374999999991,
          "velocity": 0.3779527559055118,
          "duration": 0.23229166666665435
        },
        {
          "name": "C4",
          "midi": 60,
          "time": 48.32812499999991,
          "velocity": 0.3700787401574803,
          "duration": 0.16249999999999432
        },
        {
          "name": "D#4",
          "midi": 63,
          "time": 48.32812499999991,
          "velocity": 0.3543307086614173,
          "duration": 0.1041666666666643
        },
        {
          "name": "F1",
          "midi": 29,
          "time": 48.397916666666575,
          "velocity": 0.30708661417322836,
          "duration": 0.10416666666665719
        },
        {
          "name": "C3",
          "midi": 48,
          "time": 48.409374999999905,
          "velocity": 0.4330708661417323,
          "duration": 0.12812499999999005
        },
        {
          "name": "G#2",
          "midi": 44,
          "time": 48.409374999999905,
          "velocity": 0.41732283464566927,
          "duration": 0.1510416666666572
        },
        {
          "name": "G#2",
          "midi": 44,
          "time": 48.57187499999989,
          "velocity": 0.31496062992125984,
          "duration": 0.20937500000000142
        },
        {
          "name": "A#2",
          "midi": 46,
          "time": 48.64166666666656,
          "velocity": 0.3858267716535433,
          "duration": 0.22083333333333144
        },
        {
          "name": "G#2",
          "midi": 44,
          "time": 48.78124999999989,
          "velocity": 0.4330708661417323,
          "duration": 0.5104166666666572
        },
        {
          "name": "F2",
          "midi": 41,
          "time": 49.02499999999989,
          "velocity": 0.4645669291338583,
          "duration": 0.09270833333332718
        },
        {
          "name": "D#3",
          "midi": 51,
          "time": 49.05937499999989,
          "velocity": 0.33070866141732286,
          "duration": 0.06979166666666003
        },
        {
          "name": "G#2",
          "midi": 44,
          "time": 49.29166666666655,
          "velocity": 0.4566929133858268,
          "duration": 0.18541666666666146
        },
        {
          "name": "C4",
          "midi": 60,
          "time": 49.33854166666655,
          "velocity": 0.3700787401574803,
          "duration": 0.1041666666666643
        },
        {
          "name": "F1",
          "midi": 29,
          "time": 49.36145833333322,
          "velocity": 0.3543307086614173,
          "duration": 0.1041666666666643
        },
        {
          "name": "C3",
          "midi": 48,
          "time": 49.73437499999988,
          "velocity": 0.4409448818897638,
          "duration": 0.1510416666666643
        },
        {
          "name": "G#2",
          "midi": 44,
          "time": 49.73437499999988,
          "velocity": 0.3779527559055118,
          "duration": 0.37187499999999574
        },
        {
          "name": "D#2",
          "midi": 39,
          "time": 49.757291666666546,
          "velocity": 0.36220472440944884,
          "duration": 0.09270833333332718
        },
        {
          "name": "C4",
          "midi": 60,
          "time": 49.815624999999876,
          "velocity": 0.3464566929133858,
          "duration": 0.08124999999999716
        },
        {
          "name": "D#3",
          "midi": 51,
          "time": 49.98958333333321,
          "velocity": 0.4409448818897638,
          "duration": 0.1510416666666643
        },
        {
          "name": "D#2",
          "midi": 39,
          "time": 50.059374999999875,
          "velocity": 0.33858267716535434,
          "duration": 0.08124999999999716
        },
        {
          "name": "F#2",
          "midi": 42,
          "time": 50.17604166666654,
          "velocity": 0.28346456692913385,
          "duration": 0.06979166666666714
        },
        {
          "name": "C3",
          "midi": 48,
          "time": 50.25729166666654,
          "velocity": 0.31496062992125984,
          "duration": 0.06979166666666714
        },
        {
          "name": "G#2",
          "midi": 44,
          "time": 50.26874999999987,
          "velocity": 0.33858267716535434,
          "duration": 0.08125000000000426
        },
        {
          "name": "D#2",
          "midi": 39,
          "time": 50.3145833333332,
          "velocity": 0.30708661417322836,
          "duration": 0.06979166666666714
        },
        {
          "name": "D#2",
          "midi": 39,
          "time": 50.67499999999987,
          "velocity": 0.25196850393700787,
          "duration": 0.17395833333333144
        },
        {
          "name": "C3",
          "midi": 48,
          "time": 50.744791666666536,
          "velocity": 0.36220472440944884,
          "duration": 0.1041666666666643
        },
        {
          "name": "D#3",
          "midi": 51,
          "time": 51.0114583333332,
          "velocity": 0.4330708661417323,
          "duration": 0.1510416666666643
        },
        {
          "name": "D#2",
          "midi": 39,
          "time": 51.32499999999987,
          "velocity": 0.33858267716535434,
          "duration": 0.06979166666666003
        },
        {
          "name": "G4",
          "midi": 67,
          "time": 51.3364583333332,
          "velocity": 0.33858267716535434,
          "duration": 0.08124999999999716
        },
        {
          "name": "D#3",
          "midi": 51,
          "time": 51.580208333333196,
          "velocity": 0.44881889763779526,
          "duration": 0.15208333333333002
        },
        {
          "name": "D#3",
          "midi": 51,
          "time": 51.73229166666653,
          "velocity": 0.3700787401574803,
          "duration": 0.20937499999999432
        },
        {
          "name": "F3",
          "midi": 53,
          "time": 51.848958333333194,
          "velocity": 0.5118110236220472,
          "duration": 0.08124999999999716
        },
        {
          "name": "D#3",
          "midi": 51,
          "time": 51.94166666666652,
          "velocity": 0.48031496062992124,
          "duration": 0.12812499999999716
        },
        {
          "name": "F4",
          "midi": 65,
          "time": 52.045833333333185,
          "velocity": 0.3937007874015748,
          "duration": 0.08124999999999716
        },
        {
          "name": "B2",
          "midi": 47,
          "time": 52.25520833333318,
          "velocity": 0.2992125984251969,
          "duration": 0.1041666666666643
        },
        {
          "name": "D#4",
          "midi": 63,
          "time": 52.32499999999985,
          "velocity": 0.3464566929133858,
          "duration": 0.11562499999999432
        },
        {
          "name": "A#3",
          "midi": 58,
          "time": 52.52187499999984,
          "velocity": 0.31496062992125984,
          "duration": 0.08124999999999716
        },
        {
          "name": "A#2",
          "midi": 46,
          "time": 52.73124999999983,
          "velocity": 0.3858267716535433,
          "duration": 0.13958333333333428
        },
        {
          "name": "F2",
          "midi": 41,
          "time": 52.93958333333317,
          "velocity": 0.31496062992125984,
          "duration": 0.08124999999999716
        },
        {
          "name": "F2",
          "midi": 41,
          "time": 53.020833333333165,
          "velocity": 0.4015748031496063,
          "duration": 0.09270833333333428
        },
        {
          "name": "D#3",
          "midi": 51,
          "time": 53.0447916666665,
          "velocity": 0.3937007874015748,
          "duration": 0.1041666666666714
        },
        {
          "name": "D#2",
          "midi": 39,
          "time": 53.26562499999984,
          "velocity": 0.3543307086614173,
          "duration": 0.16250000000000142
        },
        {
          "name": "C4",
          "midi": 60,
          "time": 53.33437499999984,
          "velocity": 0.3464566929133858,
          "duration": 0.18541666666666856
        },
        {
          "name": "D#2",
          "midi": 39,
          "time": 53.76562499999984,
          "velocity": 0.4645669291338583,
          "duration": 0.16250000000000142
        },
        {
          "name": "D#2",
          "midi": 39,
          "time": 53.92812499999984,
          "velocity": 0.49606299212598426,
          "duration": 0.09270833333333428
        },
        {
          "name": "F#1",
          "midi": 30,
          "time": 53.93958333333317,
          "velocity": 0.33858267716535434,
          "duration": 0.08125000000000426
        },
        {
          "name": "D#3",
          "midi": 51,
          "time": 53.97499999999984,
          "velocity": 0.3858267716535433,
          "duration": 0.19687500000000568
        },
        {
          "name": "D#2",
          "midi": 39,
          "time": 54.02083333333317,
          "velocity": 0.4645669291338583,
          "duration": 0.11562500000000142
        },
        {
          "name": "D#2",
          "midi": 39,
          "time": 54.26458333333318,
          "velocity": 0.5196850393700787,
          "duration": 0.1041666666666643
        },
        {
          "name": "C3",
          "midi": 48,
          "time": 54.26458333333318,
          "velocity": 0.3543307086614173,
          "duration": 0.08124999999999716
        },
        {
          "name": "D#2",
          "midi": 39,
          "time": 54.381249999999845,
          "velocity": 0.4566929133858268,
          "duration": 0.06979166666666714
        },
        {
          "name": "D#3",
          "midi": 51,
          "time": 54.47395833333318,
          "velocity": 0.4566929133858268,
          "duration": 0.48749999999999716
        },
        {
          "name": "D#2",
          "midi": 39,
          "time": 54.49687499999985,
          "velocity": 0.41732283464566927,
          "duration": 0.16250000000000142
        },
        {
          "name": "D#2",
          "midi": 39,
          "time": 54.65937499999985,
          "velocity": 0.3228346456692913,
          "duration": 0.1041666666666643
        },
        {
          "name": "C3",
          "midi": 48,
          "time": 54.729166666666515,
          "velocity": 0.33858267716535434,
          "duration": 0.09270833333332718
        },
        {
          "name": "D#2",
          "midi": 39,
          "time": 54.76458333333318,
          "velocity": 0.4409448818897638,
          "duration": 0.23229166666666146
        },
        {
          "name": "D#3",
          "midi": 51,
          "time": 54.96145833333318,
          "velocity": 0.6299212598425197,
          "duration": 0.20937499999999432
        },
        {
          "name": "D#2",
          "midi": 39,
          "time": 54.995833333333174,
          "velocity": 0.5354330708661418,
          "duration": 0.06979166666666714
        },
        {
          "name": "D#2",
          "midi": 39,
          "time": 55.06562499999984,
          "velocity": 0.33858267716535434,
          "duration": 0.22083333333333144
        },
        {
          "name": "D#2",
          "midi": 39,
          "time": 55.28645833333317,
          "velocity": 0.41732283464566927,
          "duration": 0.23229166666666856
        },
        {
          "name": "D#3",
          "midi": 51,
          "time": 55.495833333333174,
          "velocity": 0.5039370078740157,
          "duration": 0.3031249999999872
        },
        {
          "name": "D#2",
          "midi": 39,
          "time": 55.51874999999984,
          "velocity": 0.4015748031496063,
          "duration": 0.10625000000000284
        },
        {
          "name": "F#2",
          "midi": 42,
          "time": 55.65937499999984,
          "velocity": 0.29133858267716534,
          "duration": 0.10416666666665719
        },
        {
          "name": "C3",
          "midi": 48,
          "time": 55.71770833333317,
          "velocity": 0.3779527559055118,
          "duration": 0.06979166666666003
        },
        {
          "name": "A#2",
          "midi": 46,
          "time": 55.74062499999984,
          "velocity": 0.3464566929133858,
          "duration": 0.09270833333332007
        },
        {
          "name": "D#2",
          "midi": 39,
          "time": 55.75208333333317,
          "velocity": 0.4015748031496063,
          "duration": 0.2906249999999915
        },
        {
          "name": "C#2",
          "midi": 37,
          "time": 56.32083333333316,
          "velocity": 0.2992125984251969,
          "duration": 0.13958333333332718
        },
        {
          "name": "G#3",
          "midi": 56,
          "time": 56.33229166666649,
          "velocity": 0.31496062992125984,
          "duration": 0.06979166666666714
        },
        {
          "name": "C#3",
          "midi": 49,
          "time": 56.40208333333316,
          "velocity": 0.2755905511811024,
          "duration": 0.1041666666666643
        },
        {
          "name": "C#2",
          "midi": 37,
          "time": 56.46041666666649,
          "velocity": 0.3464566929133858,
          "duration": 0.08125000000000426
        },
        {
          "name": "G#2",
          "midi": 44,
          "time": 56.79687499999983,
          "velocity": 0.31496062992125984,
          "duration": 0.33645833333333286
        },
        {
          "name": "F2",
          "midi": 41,
          "time": 57.052083333333165,
          "velocity": 0.4251968503937008,
          "duration": 0.09270833333332718
        },
        {
          "name": "C3",
          "midi": 48,
          "time": 57.27291666666649,
          "velocity": 0.33858267716535434,
          "duration": 0.09270833333333428
        },
        {
          "name": "F3",
          "midi": 53,
          "time": 57.56354166666649,
          "velocity": 0.28346456692913385,
          "duration": 0.07083333333333286
        },
        {
          "name": "G#2",
          "midi": 44,
          "time": 57.74999999999982,
          "velocity": 0.3543307086614173,
          "duration": 0.08124999999999716
        },
        {
          "name": "C3",
          "midi": 48,
          "time": 57.99374999999982,
          "velocity": 0.31496062992125984,
          "duration": 0.08125000000000426
        },
        {
          "name": "G#2",
          "midi": 44,
          "time": 58.006249999999824,
          "velocity": 0.3779527559055118,
          "duration": 0.09270833333333428
        },
        {
          "name": "C3",
          "midi": 48,
          "time": 58.28437499999983,
          "velocity": 0.3700787401574803,
          "duration": 0.09270833333333428
        },
        {
          "name": "D#3",
          "midi": 51,
          "time": 58.50520833333316,
          "velocity": 0.5433070866141733,
          "duration": 0.16250000000000142
        },
        {
          "name": "D#3",
          "midi": 51,
          "time": 58.94583333333316,
          "velocity": 0.6141732283464567,
          "duration": 0.24374999999999858
        },
        {
          "name": "F#2",
          "midi": 42,
          "time": 59.14374999999983,
          "velocity": 0.31496062992125984,
          "duration": 0.24374999999999858
        },
        {
          "name": "G4",
          "midi": 67,
          "time": 59.329166666666495,
          "velocity": 0.33070866141732286,
          "duration": 0.08124999999999716
        },
        {
          "name": "D#3",
          "midi": 51,
          "time": 59.46874999999982,
          "velocity": 0.4330708661417323,
          "duration": 0.4541666666666657
        },
        {
          "name": "F3",
          "midi": 53,
          "time": 59.80624999999982,
          "velocity": 0.44881889763779526,
          "duration": 0.11562500000000142
        },
        {
          "name": "D#3",
          "midi": 51,
          "time": 59.92291666666649,
          "velocity": 0.48031496062992124,
          "duration": 0.1510416666666643
        },
        {
          "name": "D#2",
          "midi": 39,
          "time": 60.30624999999982,
          "velocity": 0.5354330708661418,
          "duration": 0.1041666666666643
        },
        {
          "name": "D#4",
          "midi": 63,
          "time": 60.34062499999982,
          "velocity": 0.36220472440944884,
          "duration": 0.11562500000000142
        },
        {
          "name": "G3",
          "midi": 55,
          "time": 60.34062499999982,
          "velocity": 0.5590551181102362,
          "duration": 0.2552083333333286
        },
        {
          "name": "D#3",
          "midi": 51,
          "time": 60.37604166666649,
          "velocity": 0.2992125984251969,
          "duration": 0.19687499999999858
        },
        {
          "name": "D#2",
          "midi": 39,
          "time": 60.410416666666485,
          "velocity": 0.4330708661417323,
          "duration": 0.18541666666666146
        },
        {
          "name": "D#3",
          "midi": 51,
          "time": 60.58437499999982,
          "velocity": 0.3779527559055118,
          "duration": 0.16249999999999432
        },
        {
          "name": "D#2",
          "midi": 39,
          "time": 60.59583333333315,
          "velocity": 0.3228346456692913,
          "duration": 0.16249999999999432
        },
        {
          "name": "G2",
          "midi": 43,
          "time": 60.68854166666648,
          "velocity": 0.2992125984251969,
          "duration": 0.17395833333332433
        },
        {
          "name": "D#3",
          "midi": 51,
          "time": 60.74687499999981,
          "velocity": 0.4015748031496063,
          "duration": 0.09270833333332718
        },
        {
          "name": "D#2",
          "midi": 39,
          "time": 60.75833333333314,
          "velocity": 0.3700787401574803,
          "duration": 0.06979166666666714
        },
        {
          "name": "D#2",
          "midi": 39,
          "time": 60.82812499999981,
          "velocity": 0.3464566929133858,
          "duration": 0.1510416666666572
        },
        {
          "name": "F3",
          "midi": 53,
          "time": 60.83958333333314,
          "velocity": 0.4645669291338583,
          "duration": 0.34791666666665577
        },
        {
          "name": "A#2",
          "midi": 46,
          "time": 60.83958333333314,
          "velocity": 0.3543307086614173,
          "duration": 0.2666666666666586
        },
        {
          "name": "G2",
          "midi": 43,
          "time": 60.909374999999805,
          "velocity": 0.2992125984251969,
          "duration": 0.13958333333332718
        },
        {
          "name": "F2",
          "midi": 41,
          "time": 60.909374999999805,
          "velocity": 0.4566929133858268,
          "duration": 0.13958333333332718
        },
        {
          "name": "F1",
          "midi": 29,
          "time": 60.956249999999805,
          "velocity": 0.31496062992125984,
          "duration": 0.1510416666666572
        },
        {
          "name": "C5",
          "midi": 72,
          "time": 60.967708333333135,
          "velocity": 0.3543307086614173,
          "duration": 0.16249999999999432
        },
        {
          "name": "D#2",
          "midi": 39,
          "time": 60.979166666666465,
          "velocity": 0.4409448818897638,
          "duration": 0.12812499999999716
        },
        {
          "name": "F2",
          "midi": 41,
          "time": 61.04895833333313,
          "velocity": 0.44881889763779526,
          "duration": 0.09270833333332718
        },
        {
          "name": "G#2",
          "midi": 44,
          "time": 61.06041666666646,
          "velocity": 0.3228346456692913,
          "duration": 0.06979166666666714
        },
        {
          "name": "D#2",
          "midi": 39,
          "time": 61.10729166666646,
          "velocity": 0.28346456692913385,
          "duration": 0.16249999999999432
        },
        {
          "name": "D#3",
          "midi": 51,
          "time": 61.245833333333124,
          "velocity": 0.5354330708661418,
          "duration": 0.32499999999999574
        },
        {
          "name": "D#2",
          "midi": 39,
          "time": 61.26979166666646,
          "velocity": 0.6141732283464567,
          "duration": 0.12812499999999716
        },
        {
          "name": "D#2",
          "midi": 39,
          "time": 61.39687499999979,
          "velocity": 0.5039370078740157,
          "duration": 0.11562500000000142
        },
        {
          "name": "F3",
          "midi": 53,
          "time": 61.571874999999785,
          "velocity": 0.29133858267716534,
          "duration": 0.05937500000000284
        },
        {
          "name": "D#3",
          "midi": 51,
          "time": 61.571874999999785,
          "velocity": 0.4645669291338583,
          "duration": 0.09375
        },
        {
          "name": "D#2",
          "midi": 39,
          "time": 61.76979166666645,
          "velocity": 0.4409448818897638,
          "duration": 0.16250000000000142
        },
        {
          "name": "F1",
          "midi": 29,
          "time": 61.88645833333312,
          "velocity": 0.3543307086614173,
          "duration": 0.18541666666666146
        },
        {
          "name": "D#2",
          "midi": 39,
          "time": 61.94374999999978,
          "velocity": 0.5984251968503937,
          "duration": 0.12812499999999716
        },
        {
          "name": "G#2",
          "midi": 44,
          "time": 62.02499999999978,
          "velocity": 0.3700787401574803,
          "duration": 0.1041666666666643
        },
        {
          "name": "D#2",
          "midi": 39,
          "time": 62.07187499999978,
          "velocity": 0.41732283464566927,
          "duration": 0.37187499999999574
        },
        {
          "name": "D#3",
          "midi": 51,
          "time": 62.08333333333311,
          "velocity": 0.2440944881889764,
          "duration": 0.12812500000000426
        },
        {
          "name": "D#3",
          "midi": 51,
          "time": 62.22291666666644,
          "velocity": 0.4566929133858268,
          "duration": 0.11562500000000142
        },
        {
          "name": "G3",
          "midi": 55,
          "time": 62.50104166666644,
          "velocity": 0.4094488188976378,
          "duration": 0.06979166666666714
        },
        {
          "name": "G#3",
          "midi": 56,
          "time": 62.582291666666436,
          "velocity": 0.5275590551181102,
          "duration": 0.1510416666666643
        },
        {
          "name": "G#2",
          "midi": 44,
          "time": 62.582291666666436,
          "velocity": 0.2992125984251969,
          "duration": 0.17395833333333144
        },
        {
          "name": "G#2",
          "midi": 44,
          "time": 62.75729166666643,
          "velocity": 0.44881889763779526,
          "duration": 0.13958333333332718
        },
        {
          "name": "D#2",
          "midi": 39,
          "time": 62.79166666666643,
          "velocity": 0.3779527559055118,
          "duration": 0.22083333333333144
        },
        {
          "name": "D#3",
          "midi": 51,
          "time": 62.97708333333309,
          "velocity": 0.5905511811023622,
          "duration": 0.19687499999999858
        },
        {
          "name": "D#2",
          "midi": 39,
          "time": 63.02395833333309,
          "velocity": 0.36220472440944884,
          "duration": 0.27812499999999574
        },
        {
          "name": "D#2",
          "midi": 39,
          "time": 63.30208333333309,
          "velocity": 0.3700787401574803,
          "duration": 0.22083333333333144
        },
        {
          "name": "D#3",
          "midi": 51,
          "time": 63.465624999999754,
          "velocity": 0.6220472440944882,
          "duration": 0.22187499999999716
        },
        {
          "name": "D#2",
          "midi": 39,
          "time": 63.52291666666642,
          "velocity": 0.4015748031496063,
          "duration": 0.15208333333333002
        },
        {
          "name": "D#3",
          "midi": 51,
          "time": 63.68749999999975,
          "velocity": 0.33858267716535434,
          "duration": 0.22083333333333144
        },
        {
          "name": "D#2",
          "midi": 39,
          "time": 63.80312499999975,
          "velocity": 0.36220472440944884,
          "duration": 0.13958333333332718
        },
        {
          "name": "F3",
          "midi": 53,
          "time": 63.81458333333308,
          "velocity": 0.5275590551181102,
          "duration": 0.1041666666666643
        },
        {
          "name": "D#3",
          "midi": 51,
          "time": 63.90729166666642,
          "velocity": 0.5118110236220472,
          "duration": 0.16250000000000142
        },
        {
          "name": "F4",
          "midi": 65,
          "time": 64.01249999999975,
          "velocity": 0.3858267716535433,
          "duration": 0.08125000000001137
        },
        {
          "name": "G#3",
          "midi": 56,
          "time": 64.20937499999975,
          "velocity": 0.4645669291338583,
          "duration": 0.37187500000000284
        },
        {
          "name": "D#4",
          "midi": 63,
          "time": 64.25624999999975,
          "velocity": 0.4330708661417323,
          "duration": 0.2552083333333286
        },
        {
          "name": "A#2",
          "midi": 46,
          "time": 64.26770833333309,
          "velocity": 0.4015748031496063,
          "duration": 0.08124999999999716
        },
        {
          "name": "C4",
          "midi": 60,
          "time": 64.36041666666642,
          "velocity": 0.3228346456692913,
          "duration": 0.10416666666665719
        },
        {
          "name": "C3",
          "midi": 48,
          "time": 64.36041666666642,
          "velocity": 0.48031496062992124,
          "duration": 0.2552083333333286
        },
        {
          "name": "F2",
          "midi": 41,
          "time": 64.44166666666642,
          "velocity": 0.33858267716535434,
          "duration": 0.17395833333333144
        },
        {
          "name": "G#2",
          "midi": 44,
          "time": 64.46458333333308,
          "velocity": 0.5196850393700787,
          "duration": 0.11562500000000853
        },
        {
          "name": "A#2",
          "midi": 46,
          "time": 64.56979166666642,
          "velocity": 0.2677165354330709,
          "duration": 0.11562500000000853
        },
        {
          "name": "G#3",
          "midi": 56,
          "time": 64.58124999999976,
          "velocity": 0.3858267716535433,
          "duration": 0.3604166666666657
        },
        {
          "name": "G#2",
          "midi": 44,
          "time": 64.58124999999976,
          "velocity": 0.4330708661417323,
          "duration": 0.09270833333333428
        },
        {
          "name": "F3",
          "midi": 53,
          "time": 64.61562499999975,
          "velocity": 0.33858267716535434,
          "duration": 0.08125000000001137
        },
        {
          "name": "A#2",
          "midi": 46,
          "time": 64.68541666666643,
          "velocity": 0.5275590551181102,
          "duration": 0.12812499999999716
        },
        {
          "name": "D#4",
          "midi": 63,
          "time": 64.73229166666643,
          "velocity": 0.3543307086614173,
          "duration": 0.10416666666665719
        },
        {
          "name": "C4",
          "midi": 60,
          "time": 64.75520833333309,
          "velocity": 0.33070866141732286,
          "duration": 0.09270833333333428
        },
        {
          "name": "G#2",
          "midi": 44,
          "time": 64.76666666666642,
          "velocity": 0.4330708661417323,
          "duration": 0.09270833333333428
        },
        {
          "name": "G#2",
          "midi": 44,
          "time": 64.85937499999976,
          "velocity": 0.4566929133858268,
          "duration": 0.13958333333333428
        },
        {
          "name": "G#3",
          "midi": 56,
          "time": 64.94062499999976,
          "velocity": 0.4881889763779528,
          "duration": 0.5458333333333343
        },
        {
          "name": "F2",
          "midi": 41,
          "time": 64.95208333333309,
          "velocity": 0.49606299212598426,
          "duration": 0.06979166666666003
        },
        {
          "name": "D#3",
          "midi": 51,
          "time": 64.95208333333309,
          "velocity": 0.33858267716535434,
          "duration": 0.08124999999999716
        },
        {
          "name": "G#2",
          "midi": 44,
          "time": 64.99895833333309,
          "velocity": 0.5196850393700787,
          "duration": 0.12812499999999716
        },
        {
          "name": "D#4",
          "midi": 63,
          "time": 64.99895833333309,
          "velocity": 0.33070866141732286,
          "duration": 0.10416666666665719
        },
        {
          "name": "F2",
          "midi": 41,
          "time": 65.02187499999975,
          "velocity": 0.6535433070866141,
          "duration": 0.13958333333333428
        },
        {
          "name": "F2",
          "midi": 41,
          "time": 65.16145833333309,
          "velocity": 0.44881889763779526,
          "duration": 0.1041666666666714
        },
        {
          "name": "D#4",
          "midi": 63,
          "time": 65.26562499999976,
          "velocity": 0.4015748031496063,
          "duration": 0.12812499999999716
        },
        {
          "name": "C4",
          "midi": 60,
          "time": 65.30104166666642,
          "velocity": 0.3464566929133858,
          "duration": 0.08124999999999716
        },
        {
          "name": "G#2",
          "midi": 44,
          "time": 65.42812499999975,
          "velocity": 0.4251968503937008,
          "duration": 0.08124999999999716
        },
        {
          "name": "D#3",
          "midi": 51,
          "time": 65.45208333333309,
          "velocity": 0.31496062992125984,
          "duration": 0.3499999999999801
        },
        {
          "name": "F3",
          "midi": 53,
          "time": 65.55729166666642,
          "velocity": 0.4645669291338583,
          "duration": 0.16249999999999432
        },
        {
          "name": "G#2",
          "midi": 44,
          "time": 65.60416666666642,
          "velocity": 0.36220472440944884,
          "duration": 0.08124999999999716
        },
        {
          "name": "C4",
          "midi": 60,
          "time": 65.85937499999974,
          "velocity": 0.28346456692913385,
          "duration": 0.09270833333333428
        },
        {
          "name": "C5",
          "midi": 72,
          "time": 65.95208333333308,
          "velocity": 0.4094488188976378,
          "duration": 0.1041666666666714
        },
        {
          "name": "C4",
          "midi": 60,
          "time": 65.95208333333308,
          "velocity": 0.5590551181102362,
          "duration": 0.1041666666666714
        },
        {
          "name": "C5",
          "midi": 72,
          "time": 66.05624999999975,
          "velocity": 0.3937007874015748,
          "duration": 0.19687499999999147
        },
        {
          "name": "C4",
          "midi": 60,
          "time": 66.05624999999975,
          "velocity": 0.7401574803149606,
          "duration": 0.06979166666666003
        },
        {
          "name": "C4",
          "midi": 60,
          "time": 66.12604166666641,
          "velocity": 0.6850393700787402,
          "duration": 0.1041666666666714
        },
        {
          "name": "C4",
          "midi": 60,
          "time": 66.23124999999975,
          "velocity": 0.5354330708661418,
          "duration": 0.11562499999999432
        },
        {
          "name": "A#3",
          "midi": 58,
          "time": 66.31249999999974,
          "velocity": 0.5275590551181102,
          "duration": 0.2666666666666657
        },
        {
          "name": "G#3",
          "midi": 56,
          "time": 66.49791666666641,
          "velocity": 0.4645669291338583,
          "duration": 0.06979166666666003
        },
        {
          "name": "A#3",
          "midi": 58,
          "time": 66.57916666666641,
          "velocity": 0.6614173228346457,
          "duration": 0.3604166666666657
        },
        {
          "name": "A#3",
          "midi": 58,
          "time": 66.93854166666641,
          "velocity": 0.6929133858267716,
          "duration": 0.12812499999999716
        },
        {
          "name": "D6",
          "midi": 86,
          "time": 66.96249999999974,
          "velocity": 0.2677165354330709,
          "duration": 0.1041666666666714
        },
        {
          "name": "A#3",
          "midi": 58,
          "time": 67.0666666666664,
          "velocity": 0.5118110236220472,
          "duration": 0.20937499999999432
        },
        {
          "name": "A#3",
          "midi": 58,
          "time": 67.2760416666664,
          "velocity": 0.6062992125984252,
          "duration": 0.09270833333332007
        },
        {
          "name": "G#3",
          "midi": 56,
          "time": 67.34583333333306,
          "velocity": 0.4409448818897638,
          "duration": 0.09270833333332007
        },
        {
          "name": "G#3",
          "midi": 56,
          "time": 67.62499999999972,
          "velocity": 0.5590551181102362,
          "duration": 0.32500000000000284
        },
        {
          "name": "G#2",
          "midi": 44,
          "time": 67.62499999999972,
          "velocity": 0.25196850393700787,
          "duration": 0.18541666666666856
        },
        {
          "name": "A#3",
          "midi": 58,
          "time": 67.96249999999972,
          "velocity": 0.47244094488188976,
          "duration": 0.12812499999999716
        },
        {
          "name": "D#2",
          "midi": 39,
          "time": 68.27499999999972,
          "velocity": 0.33858267716535434,
          "duration": 0.23229166666666856
        },
        {
          "name": "G5",
          "midi": 79,
          "time": 68.33333333333306,
          "velocity": 0.2992125984251969,
          "duration": 0.08124999999999716
        },
        {
          "name": "G3",
          "midi": 55,
          "time": 68.33333333333306,
          "velocity": 0.41732283464566927,
          "duration": 1.1614583333333286
        },
        {
          "name": "C2",
          "midi": 36,
          "time": 68.33333333333306,
          "velocity": 0.3464566929133858,
          "duration": 0.13958333333333428
        },
        {
          "name": "D#4",
          "midi": 63,
          "time": 68.3447916666664,
          "velocity": 0.3700787401574803,
          "duration": 0.10416666666665719
        },
        {
          "name": "A#3",
          "midi": 58,
          "time": 68.3447916666664,
          "velocity": 0.29133858267716534,
          "duration": 0.22083333333333144
        },
        {
          "name": "A#3",
          "midi": 58,
          "time": 68.57708333333306,
          "velocity": 0.33070866141732286,
          "duration": 0.06979166666666003
        },
        {
          "name": "A#2",
          "midi": 46,
          "time": 68.57708333333306,
          "velocity": 0.33070866141732286,
          "duration": 0.5687499999999801
        },
        {
          "name": "D#2",
          "midi": 39,
          "time": 68.76354166666638,
          "velocity": 0.33070866141732286,
          "duration": 0.37187499999998863
        },
        {
          "name": "A#3",
          "midi": 58,
          "time": 68.77499999999972,
          "velocity": 0.3543307086614173,
          "duration": 0.32499999999998863
        },
        {
          "name": "D#4",
          "midi": 63,
          "time": 68.84479166666638,
          "velocity": 0.3937007874015748,
          "duration": 0.3135416666666657
        },
        {
          "name": "F2",
          "midi": 41,
          "time": 68.94895833333305,
          "velocity": 0.4645669291338583,
          "duration": 0.08124999999999716
        },
        {
          "name": "F1",
          "midi": 29,
          "time": 68.97187499999971,
          "velocity": 0.3228346456692913,
          "duration": 0.08124999999999716
        },
        {
          "name": "F2",
          "midi": 41,
          "time": 69.03020833333305,
          "velocity": 0.44881889763779526,
          "duration": 0.09270833333332007
        },
        {
          "name": "D#3",
          "midi": 51,
          "time": 69.07708333333305,
          "velocity": 0.29133858267716534,
          "duration": 0.24375000000000568
        },
        {
          "name": "D#2",
          "midi": 39,
          "time": 69.28541666666638,
          "velocity": 0.3779527559055118,
          "duration": 0.18541666666666856
        },
        {
          "name": "D#4",
          "midi": 63,
          "time": 69.29687499999972,
          "velocity": 0.41732283464566927,
          "duration": 0.20937500000000853
        },
        {
          "name": "C2",
          "midi": 36,
          "time": 69.34374999999972,
          "velocity": 0.33070866141732286,
          "duration": 0.06979166666666003
        },
        {
          "name": "D#4",
          "midi": 63,
          "time": 69.7510416666664,
          "velocity": 0.3779527559055118,
          "duration": 0.10416666666665719
        },
        {
          "name": "A#3",
          "midi": 58,
          "time": 69.7510416666664,
          "velocity": 0.33070866141732286,
          "duration": 0.06979166666666003
        },
        {
          "name": "D#2",
          "midi": 39,
          "time": 69.7979166666664,
          "velocity": 0.3543307086614173,
          "duration": 0.06979166666666003
        },
        {
          "name": "G#4",
          "midi": 68,
          "time": 69.96041666666639,
          "velocity": 0.2047244094488189,
          "duration": 0.1041666666666714
        },
        {
          "name": "G#3",
          "midi": 56,
          "time": 69.97187499999973,
          "velocity": 0.29133858267716534,
          "duration": 0.09270833333333428
        },
        {
          "name": "G#4",
          "midi": 68,
          "time": 70.06458333333306,
          "velocity": 0.33858267716535434,
          "duration": 0.06979166666666003
        },
        {
          "name": "G#3",
          "midi": 56,
          "time": 70.06458333333306,
          "velocity": 0.3937007874015748,
          "duration": 0.06979166666666003
        },
        {
          "name": "D#2",
          "midi": 39,
          "time": 70.27395833333306,
          "velocity": 0.31496062992125984,
          "duration": 0.16249999999999432
        },
        {
          "name": "G#1",
          "midi": 32,
          "time": 70.30833333333305,
          "velocity": 0.3543307086614173,
          "duration": 0.20937499999999432
        },
        {
          "name": "D#3",
          "midi": 51,
          "time": 70.45937499999971,
          "velocity": 0.31496062992125984,
          "duration": 0.18541666666666856
        },
        {
          "name": "D#3",
          "midi": 51,
          "time": 70.64479166666638,
          "velocity": 0.5275590551181102,
          "duration": 0.08124999999999716
        },
        {
          "name": "D#3",
          "midi": 51,
          "time": 70.72604166666638,
          "velocity": 0.4881889763779528,
          "duration": 0.24374999999999147
        },
        {
          "name": "D#2",
          "midi": 39,
          "time": 70.79583333333304,
          "velocity": 0.3228346456692913,
          "duration": 0.3020833333333286
        },
        {
          "name": "D#3",
          "midi": 51,
          "time": 70.96979166666637,
          "velocity": 0.5275590551181102,
          "duration": 0.27812500000000284
        },
        {
          "name": "D#3",
          "midi": 51,
          "time": 71.24895833333304,
          "velocity": 0.5905511811023622,
          "duration": 0.38437499999997726
        },
        {
          "name": "D#2",
          "midi": 39,
          "time": 71.2718749999997,
          "velocity": 0.36220472440944884,
          "duration": 0.2916666666666572
        },
        {
          "name": "G2",
          "midi": 43,
          "time": 71.2718749999997,
          "velocity": 0.36220472440944884,
          "duration": 0.09270833333333428
        },
        {
          "name": "C2",
          "midi": 36,
          "time": 71.28333333333303,
          "velocity": 0.3543307086614173,
          "duration": 0.10416666666665719
        },
        {
          "name": "G2",
          "midi": 43,
          "time": 71.50416666666635,
          "velocity": 0.3543307086614173,
          "duration": 0.05937500000000284
        },
        {
          "name": "D#3",
          "midi": 51,
          "time": 71.63333333333301,
          "velocity": 0.5433070866141733,
          "duration": 0.06979166666666003
        },
        {
          "name": "D#3",
          "midi": 51,
          "time": 71.70312499999967,
          "velocity": 0.6220472440944882,
          "duration": 0.20937499999999432
        },
        {
          "name": "F3",
          "midi": 53,
          "time": 71.94687499999966,
          "velocity": 0.6062992125984252,
          "duration": 0.19687500000000568
        },
        {
          "name": "D#3",
          "midi": 51,
          "time": 72.23749999999967,
          "velocity": 0.4015748031496063,
          "duration": 0.08124999999999716
        },
        {
          "name": "G#3",
          "midi": 56,
          "time": 72.26041666666633,
          "velocity": 0.33070866141732286,
          "duration": 0.24375000000000568
        },
        {
          "name": "F4",
          "midi": 65,
          "time": 72.330208333333,
          "velocity": 0.3858267716535433,
          "duration": 0.12812499999999716
        },
        {
          "name": "F3",
          "midi": 53,
          "time": 72.330208333333,
          "velocity": 0.49606299212598426,
          "duration": 0.5572916666666572
        },
        {
          "name": "C#2",
          "midi": 37,
          "time": 72.35312499999966,
          "velocity": 0.3228346456692913,
          "duration": 0.08124999999999716
        },
        {
          "name": "G#2",
          "midi": 44,
          "time": 72.46874999999967,
          "velocity": 0.33070866141732286,
          "duration": 0.06979166666666003
        },
        {
          "name": "G#2",
          "midi": 44,
          "time": 72.74791666666633,
          "velocity": 0.33858267716535434,
          "duration": 0.6385416666666544
        },
        {
          "name": "C#3",
          "midi": 49,
          "time": 72.99166666666633,
          "velocity": 0.33070866141732286,
          "duration": 0.12812499999999716
        },
        {
          "name": "F2",
          "midi": 41,
          "time": 73.04999999999967,
          "velocity": 0.3937007874015748,
          "duration": 0.06979166666666003
        },
        {
          "name": "F3",
          "midi": 53,
          "time": 73.29374999999966,
          "velocity": 0.3543307086614173,
          "duration": 0.2562499999999943
        },
        {
          "name": "F1",
          "midi": 29,
          "time": 73.36354166666632,
          "velocity": 0.33070866141732286,
          "duration": 0.08124999999999716
        },
        {
          "name": "C#3",
          "midi": 49,
          "time": 73.43333333333298,
          "velocity": 0.3858267716535433,
          "duration": 0.08229166666667709
        },
        {
          "name": "F3",
          "midi": 53,
          "time": 73.561458333333,
          "velocity": 0.41732283464566927,
          "duration": 0.3604166666666657
        },
        {
          "name": "G#2",
          "midi": 44,
          "time": 73.74791666666633,
          "velocity": 0.3228346456692913,
          "duration": 0.2552083333333286
        },
        {
          "name": "F2",
          "midi": 41,
          "time": 73.79374999999966,
          "velocity": 0.3700787401574803,
          "duration": 0.2666666666666657
        },
        {
          "name": "C#2",
          "midi": 37,
          "time": 73.84062499999966,
          "velocity": 0.31496062992125984,
          "duration": 0.06979166666666003
        },
        {
          "name": "G#2",
          "midi": 44,
          "time": 74.014583333333,
          "velocity": 0.4015748031496063,
          "duration": 0.09270833333333428
        },
        {
          "name": "F2",
          "midi": 41,
          "time": 74.29374999999966,
          "velocity": 0.3937007874015748,
          "duration": 0.2666666666666657
        },
        {
          "name": "C3",
          "midi": 48,
          "time": 74.29374999999966,
          "velocity": 0.36220472440944884,
          "duration": 0.06979166666667425
        },
        {
          "name": "G#1",
          "midi": 32,
          "time": 74.32812499999966,
          "velocity": 0.3228346456692913,
          "duration": 0.1041666666666714
        },
        {
          "name": "C#2",
          "midi": 37,
          "time": 74.339583333333,
          "velocity": 0.33070866141732286,
          "duration": 0.09270833333333428
        },
        {
          "name": "C4",
          "midi": 60,
          "time": 74.75729166666633,
          "velocity": 0.33858267716535434,
          "duration": 0.09270833333333428
        },
        {
          "name": "C#3",
          "midi": 49,
          "time": 74.76979166666634,
          "velocity": 0.3779527559055118,
          "duration": 0.08124999999999716
        },
        {
          "name": "F3",
          "midi": 53,
          "time": 74.792708333333,
          "velocity": 0.31496062992125984,
          "duration": 0.06979166666667425
        },
        {
          "name": "C4",
          "midi": 60,
          "time": 75.01354166666634,
          "velocity": 0.5984251968503937,
          "duration": 0.1510416666666714
        },
        {
          "name": "F#2",
          "midi": 42,
          "time": 75.17604166666635,
          "velocity": 0.29133858267716534,
          "duration": 0.06979166666667425
        },
        {
          "name": "C#4",
          "midi": 61,
          "time": 75.18749999999969,
          "velocity": 0.1968503937007874,
          "duration": 0.09270833333333428
        },
        {
          "name": "C#4",
          "midi": 61,
          "time": 75.28020833333302,
          "velocity": 0.4094488188976378,
          "duration": 0.06979166666666003
        },
        {
          "name": "F2",
          "midi": 41,
          "time": 75.34999999999968,
          "velocity": 0.29133858267716534,
          "duration": 0.1989583333333229
        },
        {
          "name": "C#2",
          "midi": 37,
          "time": 75.36145833333302,
          "velocity": 0.2755905511811024,
          "duration": 0.1874999999999858
        },
        {
          "name": "A#3",
          "midi": 58,
          "time": 75.38437499999968,
          "velocity": 0.5669291338582677,
          "duration": 0.08124999999999716
        },
        {
          "name": "A#3",
          "midi": 58,
          "time": 75.46562499999968,
          "velocity": 0.6377952755905512,
          "duration": 0.12916666666666288
        },
        {
          "name": "A#3",
          "midi": 58,
          "time": 75.59479166666634,
          "velocity": 0.5433070866141733,
          "duration": 0.13958333333333428
        },
        {
          "name": "G2",
          "midi": 43,
          "time": 75.68749999999967,
          "velocity": 0.3228346456692913,
          "duration": 0.08124999999999716
        },
        {
          "name": "A#3",
          "midi": 58,
          "time": 75.73437499999967,
          "velocity": 0.5196850393700787,
          "duration": 0.17395833333333144
        },
        {
          "name": "A#3",
          "midi": 58,
          "time": 76.21041666666633,
          "velocity": 0.29133858267716534,
          "duration": 0.3604166666666657
        },
        {
          "name": "D#2",
          "midi": 39,
          "time": 76.233333333333,
          "velocity": 0.4566929133858268,
          "duration": 0.10416666666665719
        },
        {
          "name": "F3",
          "midi": 53,
          "time": 76.25624999999965,
          "velocity": 0.4645669291338583,
          "duration": 0.08124999999999716
        },
        {
          "name": "D#3",
          "midi": 51,
          "time": 76.33749999999965,
          "velocity": 0.41732283464566927,
          "duration": 1.2083333333333428
        },
        {
          "name": "D#2",
          "midi": 39,
          "time": 76.33749999999965,
          "velocity": 0.5826771653543307,
          "duration": 0.08125000000001137
        },
        {
          "name": "D#4",
          "midi": 63,
          "time": 76.34999999999965,
          "velocity": 0.33070866141732286,
          "duration": 0.08125000000001137
        },
        {
          "name": "G3",
          "midi": 55,
          "time": 76.36145833333299,
          "velocity": 0.5748031496062992,
          "duration": 0.2906250000000057
        },
        {
          "name": "D#2",
          "midi": 39,
          "time": 76.41874999999966,
          "velocity": 0.3779527559055118,
          "duration": 0.3479166666666629
        },
        {
          "name": "A#3",
          "midi": 58,
          "time": 76.56979166666633,
          "velocity": 0.3228346456692913,
          "duration": 0.52291666666666
        },
        {
          "name": "A#2",
          "midi": 46,
          "time": 76.56979166666633,
          "velocity": 0.2992125984251969,
          "duration": 0.4645833333333229
        },
        {
          "name": "D#2",
          "midi": 39,
          "time": 76.76770833333299,
          "velocity": 0.3464566929133858,
          "duration": 0.20937499999999432
        },
        {
          "name": "G3",
          "midi": 55,
          "time": 76.77916666666633,
          "velocity": 0.33070866141732286,
          "duration": 0.3479166666666629
        },
        {
          "name": "G2",
          "midi": 43,
          "time": 76.89479166666632,
          "velocity": 0.31496062992125984,
          "duration": 0.06979166666666003
        },
        {
          "name": "F2",
          "midi": 41,
          "time": 76.89479166666632,
          "velocity": 0.3858267716535433,
          "duration": 0.20937500000000853
        },
        {
          "name": "D#2",
          "midi": 39,
          "time": 76.97604166666632,
          "velocity": 0.44881889763779526,
          "duration": 0.17395833333333144
        },
        {
          "name": "D#4",
          "midi": 63,
          "time": 76.97604166666632,
          "velocity": 0.33858267716535434,
          "duration": 0.42916666666667425
        },
        {
          "name": "F1",
          "midi": 29,
          "time": 76.98854166666632,
          "velocity": 0.3228346456692913,
          "duration": 0.1041666666666714
        },
        {
          "name": "D#2",
          "midi": 39,
          "time": 77.25520833333299,
          "velocity": 0.41732283464566927,
          "duration": 0.22083333333334565
        },
        {
          "name": "G3",
          "midi": 55,
          "time": 77.26666666666632,
          "velocity": 0.3779527559055118,
          "duration": 0.12812499999999716
        },
        {
          "name": "D#3",
          "midi": 51,
          "time": 77.75520833333299,
          "velocity": 0.3858267716535433,
          "duration": 0.16250000000000853
        },
        {
          "name": "D#4",
          "midi": 63,
          "time": 77.75520833333299,
          "velocity": 0.31496062992125984,
          "duration": 0.11562500000000853
        },
        {
          "name": "D#2",
          "midi": 39,
          "time": 77.76770833333299,
          "velocity": 0.3779527559055118,
          "duration": 0.11562500000000853
        },
        {
          "name": "A#3",
          "midi": 58,
          "time": 77.77916666666633,
          "velocity": 0.3543307086614173,
          "duration": 0.1041666666666714
        },
        {
          "name": "F1",
          "midi": 29,
          "time": 77.86041666666632,
          "velocity": 0.3464566929133858,
          "duration": 0.18541666666668277
        },
        {
          "name": "D#2",
          "midi": 39,
          "time": 77.94166666666634,
          "velocity": 0.3700787401574803,
          "duration": 0.1510416666666714
        },
        {
          "name": "G#2",
          "midi": 44,
          "time": 77.99895833333301,
          "velocity": 0.3228346456692913,
          "duration": 0.06979166666666003
        },
        {
          "name": "G#3",
          "midi": 56,
          "time": 78.01145833333301,
          "velocity": 0.41732283464566927,
          "duration": 0.2906249999999915
        },
        {
          "name": "D#2",
          "midi": 39,
          "time": 78.173958333333,
          "velocity": 0.25984251968503935,
          "duration": 0.22083333333333144
        },
        {
          "name": "F3",
          "midi": 53,
          "time": 78.34791666666634,
          "velocity": 0.3464566929133858,
          "duration": 0.08124999999999716
        },
        {
          "name": "D#3",
          "midi": 51,
          "time": 78.62604166666634,
          "velocity": 0.5039370078740157,
          "duration": 0.09270833333333428
        },
        {
          "name": "D#2",
          "midi": 39,
          "time": 78.68437499999968,
          "velocity": 0.31496062992125984,
          "duration": 0.4416666666666629
        },
        {
          "name": "D#3",
          "midi": 51,
          "time": 78.71979166666634,
          "velocity": 0.6299212598425197,
          "duration": 0.24375000000000568
        },
        {
          "name": "D#3",
          "midi": 51,
          "time": 78.96354166666634,
          "velocity": 0.5275590551181102,
          "duration": 0.3604166666666657
        },
        {
          "name": "D#2",
          "midi": 39,
          "time": 79.31145833333301,
          "velocity": 0.3228346456692913,
          "duration": 0.26875000000001137
        },
        {
          "name": "D#4",
          "midi": 63,
          "time": 79.32291666666634,
          "velocity": 0.33070866141732286,
          "duration": 0.08124999999999716
        },
        {
          "name": "D#3",
          "midi": 51,
          "time": 79.32291666666634,
          "velocity": 0.6614173228346457,
          "duration": 0.13958333333333428
        },
        {
          "name": "D#3",
          "midi": 51,
          "time": 79.46249999999968,
          "velocity": 0.6141732283464567,
          "duration": 0.21041666666667425
        },
        {
          "name": "G2",
          "midi": 43,
          "time": 79.48645833333302,
          "velocity": 0.4015748031496063,
          "duration": 0.1041666666666714
        },
        {
          "name": "F3",
          "midi": 53,
          "time": 79.71874999999969,
          "velocity": 0.5669291338582677,
          "duration": 0.19687500000000568
        },
        {
          "name": "D#3",
          "midi": 51,
          "time": 79.98645833333303,
          "velocity": 0.49606299212598426,
          "duration": 0.12812499999999716
        },
        {
          "name": "A#2",
          "midi": 46,
          "time": 80.26458333333304,
          "velocity": 0.3779527559055118,
          "duration": 0.08124999999999716
        },
        {
          "name": "G#2",
          "midi": 44,
          "time": 80.27604166666637,
          "velocity": 0.41732283464566927,
          "duration": 0.3135416666666657
        },
        {
          "name": "G#3",
          "midi": 56,
          "time": 80.31145833333304,
          "velocity": 0.33858267716535434,
          "duration": 0.23229166666666856
        },
        {
          "name": "D#4",
          "midi": 63,
          "time": 80.34583333333303,
          "velocity": 0.33070866141732286,
          "duration": 0.08125000000001137
        },
        {
          "name": "C3",
          "midi": 48,
          "time": 80.35729166666637,
          "velocity": 0.49606299212598426,
          "duration": 0.23229166666666856
        },
        {
          "name": "F1",
          "midi": 29,
          "time": 80.41562499999971,
          "velocity": 0.3228346456692913,
          "duration": 0.18541666666666856
        },
        {
          "name": "D#2",
          "midi": 39,
          "time": 80.50833333333304,
          "velocity": 0.3228346456692913,
          "duration": 0.08124999999999716
        },
        {
          "name": "C3",
          "midi": 48,
          "time": 80.58958333333304,
          "velocity": 0.41732283464566927,
          "duration": 0.23229166666666856
        },
        {
          "name": "G#2",
          "midi": 44,
          "time": 80.60104166666638,
          "velocity": 0.3779527559055118,
          "duration": 0.17395833333333144
        },
        {
          "name": "G#2",
          "midi": 44,
          "time": 80.77604166666637,
          "velocity": 0.48031496062992124,
          "duration": 0.17395833333333144
        },
        {
          "name": "G#2",
          "midi": 44,
          "time": 80.9499999999997,
          "velocity": 0.44881889763779526,
          "duration": 0.3479166666666629
        },
        {
          "name": "F2",
          "midi": 41,
          "time": 80.9499999999997,
          "velocity": 0.4015748031496063,
          "duration": 0.08124999999999716
        },
        {
          "name": "F2",
          "midi": 41,
          "time": 81.0312499999997,
          "velocity": 0.4330708661417323,
          "duration": 0.09270833333333428
        },
        {
          "name": "G#2",
          "midi": 44,
          "time": 81.29791666666637,
          "velocity": 0.49606299212598426,
          "duration": 0.21041666666667425
        },
        {
          "name": "D#2",
          "midi": 39,
          "time": 81.33229166666636,
          "velocity": 0.4015748031496063,
          "duration": 0.1041666666666714
        },
        {
          "name": "F1",
          "midi": 29,
          "time": 81.3562499999997,
          "velocity": 0.36220472440944884,
          "duration": 0.10625000000000284
        },
        {
          "name": "F3",
          "midi": 53,
          "time": 81.56666666666638,
          "velocity": 0.4094488188976378,
          "duration": 0.2666666666666657
        },
        {
          "name": "G#2",
          "midi": 44,
          "time": 81.74062499999971,
          "velocity": 0.4015748031496063,
          "duration": 0.27812500000000284
        },
        {
          "name": "D#2",
          "midi": 39,
          "time": 81.77499999999971,
          "velocity": 0.30708661417322836,
          "duration": 0.27812500000000284
        },
        {
          "name": "F1",
          "midi": 29,
          "time": 81.83333333333304,
          "velocity": 0.31496062992125984,
          "duration": 0.08124999999999716
        },
        {
          "name": "G#2",
          "midi": 44,
          "time": 82.03020833333305,
          "velocity": 0.4330708661417323,
          "duration": 0.09270833333332007
        },
        {
          "name": "G#2",
          "midi": 44,
          "time": 82.29791666666637,
          "velocity": 0.33070866141732286,
          "duration": 0.06979166666666003
        },
        {
          "name": "C3",
          "midi": 48,
          "time": 82.61145833333303,
          "velocity": 0.3700787401574803,
          "duration": 0.24374999999999147
        },
        {
          "name": "G#2",
          "midi": 44,
          "time": 82.78541666666636,
          "velocity": 0.4409448818897638,
          "duration": 0.09270833333332007
        },
        {
          "name": "D#3",
          "midi": 51,
          "time": 83.02916666666636,
          "velocity": 0.4881889763779528,
          "duration": 0.12812499999999716
        },
        {
          "name": "C3",
          "midi": 48,
          "time": 83.27291666666635,
          "velocity": 0.33858267716535434,
          "duration": 0.06979166666666003
        },
        {
          "name": "D#3",
          "midi": 51,
          "time": 83.48333333333301,
          "velocity": 0.6220472440944882,
          "duration": 0.08124999999999716
        },
        {
          "name": "D#3",
          "midi": 51,
          "time": 83.564583333333,
          "velocity": 0.5905511811023622,
          "duration": 0.1510416666666714
        },
        {
          "name": "F3",
          "midi": 53,
          "time": 83.73854166666634,
          "velocity": 0.5354330708661418,
          "duration": 0.1510416666666714
        },
        {
          "name": "D#3",
          "midi": 51,
          "time": 83.98229166666634,
          "velocity": 0.5669291338582677,
          "duration": 0.17395833333333144
        },
        {
          "name": "D#3",
          "midi": 51,
          "time": 84.22604166666633,
          "velocity": 0.4015748031496063,
          "duration": 0.10416666666665719
        },
        {
          "name": "D#2",
          "midi": 39,
          "time": 84.295833333333,
          "velocity": 0.3779527559055118,
          "duration": 0.24375000000000568
        },
        {
          "name": "C2",
          "midi": 36,
          "time": 84.33124999999966,
          "velocity": 0.33858267716535434,
          "duration": 0.1510416666666714
        },
        {
          "name": "A#3",
          "midi": 58,
          "time": 84.342708333333,
          "velocity": 0.3228346456692913,
          "duration": 0.18541666666666856
        },
        {
          "name": "D#4",
          "midi": 63,
          "time": 84.35416666666633,
          "velocity": 0.4409448818897638,
          "duration": 0.16249999999999432
        },
        {
          "name": "D#3",
          "midi": 51,
          "time": 84.620833333333,
          "velocity": 0.3858267716535433,
          "duration": 0.23229166666666856
        },
        {
          "name": "F#2",
          "midi": 42,
          "time": 84.69062499999966,
          "velocity": 0.3464566929133858,
          "duration": 0.06979166666666003
        },
        {
          "name": "A#2",
          "midi": 46,
          "time": 84.72499999999965,
          "velocity": 0.31496062992125984,
          "duration": 0.09270833333333428
        },
        {
          "name": "D#2",
          "midi": 39,
          "time": 84.73749999999966,
          "velocity": 0.2992125984251969,
          "duration": 0.27812500000001705
        },
        {
          "name": "D#4",
          "midi": 63,
          "time": 84.84166666666633,
          "velocity": 0.33070866141732286,
          "duration": 0.27812500000001705
        },
        {
          "name": "A#2",
          "midi": 46,
          "time": 84.85312499999966,
          "velocity": 0.2677165354330709,
          "duration": 0.09270833333333428
        },
        {
          "name": "F2",
          "midi": 41,
          "time": 84.93437499999966,
          "velocity": 0.4409448818897638,
          "duration": 0.08125000000001137
        },
        {
          "name": "A#2",
          "midi": 46,
          "time": 84.945833333333,
          "velocity": 0.3779527559055118,
          "duration": 0.18541666666668277
        },
        {
          "name": "F1",
          "midi": 29,
          "time": 84.96979166666634,
          "velocity": 0.31496062992125984,
          "duration": 0.06979166666667425
        },
        {
          "name": "F2",
          "midi": 41,
          "time": 85.01562499999967,
          "velocity": 0.4566929133858268,
          "duration": 0.1041666666666714
        },
        {
          "name": "D#2",
          "midi": 39,
          "time": 85.02708333333301,
          "velocity": 0.31496062992125984,
          "duration": 0.24375000000000568
        },
        {
          "name": "D#3",
          "midi": 51,
          "time": 85.08541666666635,
          "velocity": 0.4094488188976378,
          "duration": 0.09270833333333428
        },
        {
          "name": "D#2",
          "midi": 39,
          "time": 85.27083333333302,
          "velocity": 0.4645669291338583,
          "duration": 0.17499999999999716
        },
        {
          "name": "D#4",
          "midi": 63,
          "time": 85.27083333333302,
          "velocity": 0.33070866141732286,
          "duration": 0.21041666666666003
        },
        {
          "name": "D#4",
          "midi": 63,
          "time": 85.49270833333301,
          "velocity": 0.33858267716535434,
          "duration": 0.08124999999999716
        },
        {
          "name": "D#3",
          "midi": 51,
          "time": 85.49270833333301,
          "velocity": 0.4881889763779528,
          "duration": 0.09270833333333428
        },
        {
          "name": "D#3",
          "midi": 51,
          "time": 85.58541666666635,
          "velocity": 0.5196850393700787,
          "duration": 0.09270833333333428
        },
        {
          "name": "F3",
          "midi": 53,
          "time": 85.59791666666635,
          "velocity": 0.3543307086614173,
          "duration": 0.09270833333333428
        },
        {
          "name": "F3",
          "midi": 53,
          "time": 85.69062499999968,
          "velocity": 0.5118110236220472,
          "duration": 0.18541666666666856
        },
        {
          "name": "G2",
          "midi": 43,
          "time": 85.70208333333302,
          "velocity": 0.33070866141732286,
          "duration": 0.08124999999999716
        },
        {
          "name": "D#2",
          "midi": 39,
          "time": 85.76041666666636,
          "velocity": 0.4094488188976378,
          "duration": 0.06979166666666003
        },
        {
          "name": "D#2",
          "midi": 39,
          "time": 85.84166666666636,
          "velocity": 0.4330708661417323,
          "duration": 0.12812499999999716
        },
        {
          "name": "D#3",
          "midi": 51,
          "time": 85.86458333333302,
          "velocity": 0.2440944881889764,
          "duration": 0.11562500000000853
        },
        {
          "name": "D#2",
          "midi": 39,
          "time": 85.96874999999969,
          "velocity": 0.4881889763779528,
          "duration": 0.06979166666667425
        },
        {
          "name": "D#3",
          "midi": 51,
          "time": 85.98020833333302,
          "velocity": 0.5984251968503937,
          "duration": 0.22083333333333144
        },
        {
          "name": "G#1",
          "midi": 32,
          "time": 86.02708333333302,
          "velocity": 0.33070866141732286,
          "duration": 0.08124999999999716
        },
        {
          "name": "D#2",
          "midi": 39,
          "time": 86.03854166666636,
          "velocity": 0.5748031496062992,
          "duration": 0.06979166666666003
        },
        {
          "name": "D#2",
          "midi": 39,
          "time": 86.10833333333302,
          "velocity": 0.31496062992125984,
          "duration": 0.18541666666666856
        },
        {
          "name": "C3",
          "midi": 48,
          "time": 86.2593749999997,
          "velocity": 0.3464566929133858,
          "duration": 0.06979166666666003
        },
        {
          "name": "G2",
          "midi": 43,
          "time": 86.27083333333303,
          "velocity": 0.30708661417322836,
          "duration": 0.08124999999998295
        },
        {
          "name": "D#2",
          "midi": 39,
          "time": 86.29374999999969,
          "velocity": 0.5275590551181102,
          "duration": 0.3020833333333286
        },
        {
          "name": "G#1",
          "midi": 32,
          "time": 86.3062499999997,
          "velocity": 0.3858267716535433,
          "duration": 0.1510416666666572
        },
        {
          "name": "C2",
          "midi": 36,
          "time": 86.35208333333301,
          "velocity": 0.36220472440944884,
          "duration": 0.1510416666666714
        },
        {
          "name": "D#2",
          "midi": 39,
          "time": 86.59583333333302,
          "velocity": 0.2755905511811024,
          "duration": 0.16249999999999432
        },
        {
          "name": "G2",
          "midi": 43,
          "time": 86.67708333333302,
          "velocity": 0.2440944881889764,
          "duration": 0.16249999999999432
        },
        {
          "name": "D#2",
          "midi": 39,
          "time": 86.75833333333301,
          "velocity": 0.5590551181102362,
          "duration": 0.17395833333333144
        },
        {
          "name": "C2",
          "midi": 36,
          "time": 86.80520833333301,
          "velocity": 0.2992125984251969,
          "duration": 0.11562499999999432
        },
        {
          "name": "C2",
          "midi": 36,
          "time": 86.94479166666635,
          "velocity": 0.33070866141732286,
          "duration": 0.1041666666666714
        },
        {
          "name": "D#2",
          "midi": 39,
          "time": 86.99062499999968,
          "velocity": 0.48031496062992124,
          "duration": 0.1041666666666714
        },
        {
          "name": "D#2",
          "midi": 39,
          "time": 87.09479166666635,
          "velocity": 0.33070866141732286,
          "duration": 0.17395833333333144
        },
        {
          "name": "D#2",
          "midi": 39,
          "time": 87.26979166666635,
          "velocity": 0.5196850393700787,
          "duration": 0.19895833333333712
        },
        {
          "name": "G2",
          "midi": 43,
          "time": 87.28124999999969,
          "velocity": 0.3858267716535433,
          "duration": 0.08124999999999716
        },
        {
          "name": "D#4",
          "midi": 63,
          "time": 87.46770833333302,
          "velocity": 0.3700787401574803,
          "duration": 0.13958333333333428
        },
        {
          "name": "D#2",
          "midi": 39,
          "time": 87.46770833333302,
          "velocity": 0.4330708661417323,
          "duration": 0.16249999999999432
        },
        {
          "name": "D#3",
          "midi": 51,
          "time": 87.47916666666636,
          "velocity": 0.6141732283464567,
          "duration": 0.20937499999999432
        },
        {
          "name": "G2",
          "midi": 43,
          "time": 87.67708333333302,
          "velocity": 0.29133858267716534,
          "duration": 0.17395833333333144
        },
        {
          "name": "F4",
          "midi": 65,
          "time": 87.71145833333301,
          "velocity": 0.4330708661417323,
          "duration": 0.12812499999999716
        },
        {
          "name": "F3",
          "midi": 53,
          "time": 87.72291666666635,
          "velocity": 0.5748031496062992,
          "duration": 0.18541666666666856
        },
        {
          "name": "D#2",
          "midi": 39,
          "time": 87.83958333333301,
          "velocity": 0.3779527559055118,
          "duration": 0.06979166666667425
        },
        {
          "name": "D#3",
          "midi": 51,
          "time": 87.92083333333302,
          "velocity": 0.5511811023622047,
          "duration": 0.22083333333333144
        },
        {
          "name": "G#3",
          "midi": 56,
          "time": 88.19895833333302,
          "velocity": 0.25984251968503935,
          "duration": 0.11562499999999432
        },
        {
          "name": "C3",
          "midi": 48,
          "time": 88.26874999999968,
          "velocity": 0.4566929133858268,
          "duration": 0.534374999999983
        },
        {
          "name": "G#3",
          "midi": 56,
          "time": 88.31562499999968,
          "velocity": 0.4330708661417323,
          "duration": 0.2666666666666515
        },
        {
          "name": "F3",
          "midi": 53,
          "time": 88.33854166666634,
          "velocity": 0.3464566929133858,
          "duration": 0.12812499999999716
        },
        {
          "name": "C4",
          "midi": 60,
          "time": 88.38541666666634,
          "velocity": 0.3228346456692913,
          "duration": 0.06979166666666003
        },
        {
          "name": "G#2",
          "midi": 44,
          "time": 88.55937499999968,
          "velocity": 0.2755905511811024,
          "duration": 0.06979166666666003
        },
        {
          "name": "G#3",
          "midi": 56,
          "time": 88.58229166666634,
          "velocity": 0.2992125984251969,
          "duration": 0.3604166666666657
        },
        {
          "name": "G#2",
          "midi": 44,
          "time": 88.62916666666634,
          "velocity": 0.41732283464566927,
          "duration": 0.3604166666666657
        },
        {
          "name": "F3",
          "midi": 53,
          "time": 88.72187499999967,
          "velocity": 0.41732283464566927,
          "duration": 0.13958333333333428
        },
        {
          "name": "G#3",
          "midi": 56,
          "time": 88.942708333333,
          "velocity": 0.33070866141732286,
          "duration": 0.09270833333333428
        },
        {
          "name": "G#4",
          "midi": 68,
          "time": 88.95416666666634,
          "velocity": 0.23622047244094488,
          "duration": 0.18541666666666856
        },
        {
          "name": "F2",
          "midi": 41,
          "time": 88.95416666666634,
          "velocity": 0.4409448818897638,
          "duration": 0.17395833333333144
        },
        {
          "name": "G#2",
          "midi": 44,
          "time": 88.98854166666634,
          "velocity": 0.4645669291338583,
          "duration": 0.19687500000000568
        },
        {
          "name": "C4",
          "midi": 60,
          "time": 89.023958333333,
          "velocity": 0.3543307086614173,
          "duration": 0.1510416666666714
        },
        {
          "name": "G#2",
          "midi": 44,
          "time": 89.18645833333301,
          "velocity": 0.4330708661417323,
          "duration": 0.1041666666666714
        },
        {
          "name": "G#2",
          "midi": 44,
          "time": 89.29062499999968,
          "velocity": 0.5039370078740157,
          "duration": 0.10625000000000284
        },
        {
          "name": "G5",
          "midi": 79,
          "time": 89.47812499999968,
          "velocity": 0.33858267716535434,
          "duration": 0.06979166666667425
        },
        {
          "name": "D#4",
          "midi": 63,
          "time": 89.48958333333302,
          "velocity": 0.2755905511811024,
          "duration": 0.1395833333333485
        },
        {
          "name": "D#3",
          "midi": 51,
          "time": 89.48958333333302,
          "velocity": 0.7401574803149606,
          "duration": 0.08125000000001137
        },
        {
          "name": "F3",
          "midi": 53,
          "time": 89.55937499999969,
          "velocity": 0.4015748031496063,
          "duration": 0.12812500000001137
        },
        {
          "name": "D#3",
          "midi": 51,
          "time": 89.57083333333303,
          "velocity": 0.5669291338582677,
          "duration": 0.12812500000001137
        },
        {
          "name": "G#2",
          "midi": 44,
          "time": 89.60520833333302,
          "velocity": 0.3858267716535433,
          "duration": 0.08125000000001137
        },
        {
          "name": "F4",
          "midi": 65,
          "time": 89.68645833333304,
          "velocity": 0.4094488188976378,
          "duration": 0.13958333333333428
        },
        {
          "name": "F3",
          "midi": 53,
          "time": 89.68645833333304,
          "velocity": 0.7401574803149606,
          "duration": 0.1510416666666714
        },
        {
          "name": "G#2",
          "midi": 44,
          "time": 89.68645833333304,
          "velocity": 0.3543307086614173,
          "duration": 0.13958333333333428
        },
        {
          "name": "F2",
          "midi": 41,
          "time": 89.76770833333303,
          "velocity": 0.36220472440944884,
          "duration": 0.06979166666667425
        },
        {
          "name": "F3",
          "midi": 53,
          "time": 89.83749999999971,
          "velocity": 0.5118110236220472,
          "duration": 0.09270833333333428
        },
        {
          "name": "D#3",
          "midi": 51,
          "time": 89.9187499999997,
          "velocity": 0.7322834645669292,
          "duration": 0.17395833333333144
        },
        {
          "name": "G#2",
          "midi": 44,
          "time": 90.0468749999997,
          "velocity": 0.3779527559055118,
          "duration": 0.08124999999999716
        },
        {
          "name": "D#3",
          "midi": 51,
          "time": 90.09270833333304,
          "velocity": 0.6456692913385826,
          "duration": 0.11562499999999432
        },
        {
          "name": "G#2",
          "midi": 44,
          "time": 90.1624999999997,
          "velocity": 0.30708661417322836,
          "duration": 0.18541666666666856
        },
        {
          "name": "D#3",
          "midi": 51,
          "time": 90.2093749999997,
          "velocity": 0.49606299212598426,
          "duration": 0.4989583333333343
        },
        {
          "name": "C3",
          "midi": 48,
          "time": 90.4531249999997,
          "velocity": 0.3700787401574803,
          "duration": 0.1041666666666714
        },
        {
          "name": "F#2",
          "midi": 42,
          "time": 90.67395833333303,
          "velocity": 0.2992125984251969,
          "duration": 0.17395833333333144
        },
        {
          "name": "G#2",
          "midi": 44,
          "time": 90.68541666666637,
          "velocity": 0.3228346456692913,
          "duration": 0.18541666666665435
        },
        {
          "name": "D#3",
          "midi": 51,
          "time": 90.70833333333303,
          "velocity": 0.3700787401574803,
          "duration": 0.2666666666666657
        },
        {
          "name": "C3",
          "midi": 48,
          "time": 90.71979166666637,
          "velocity": 0.3937007874015748,
          "duration": 0.11562499999999432
        },
        {
          "name": "F3",
          "midi": 53,
          "time": 90.75520833333303,
          "velocity": 0.3779527559055118,
          "duration": 0.09270833333333428
        },
        {
          "name": "D#3",
          "midi": 51,
          "time": 90.9749999999997,
          "velocity": 0.5354330708661418,
          "duration": 0.5125000000000028
        },
        {
          "name": "G#2",
          "midi": 44,
          "time": 91.0218749999997,
          "velocity": 0.3937007874015748,
          "duration": 0.1510416666666714
        },
        {
          "name": "C3",
          "midi": 48,
          "time": 91.0687499999997,
          "velocity": 0.3464566929133858,
          "duration": 0.27812500000000284
        },
        {
          "name": "A#2",
          "midi": 46,
          "time": 91.11458333333303,
          "velocity": 0.2755905511811024,
          "duration": 0.19687500000000568
        },
        {
          "name": "F#2",
          "midi": 42,
          "time": 91.12604166666637,
          "velocity": 0.31496062992125984,
          "duration": 0.18541666666666856
        },
        {
          "name": "G#2",
          "midi": 44,
          "time": 91.1843749999997,
          "velocity": 0.2992125984251969,
          "duration": 0.16249999999999432
        },
        {
          "name": "F2",
          "midi": 41,
          "time": 91.3124999999997,
          "velocity": 0.4409448818897638,
          "duration": 0.08229166666666288
        },
        {
          "name": "D#4",
          "midi": 63,
          "time": 91.47604166666636,
          "velocity": 0.3228346456692913,
          "duration": 0.11562500000000853
        },
        {
          "name": "D#3",
          "midi": 51,
          "time": 91.4874999999997,
          "velocity": 0.7322834645669292,
          "duration": 0.09270833333333428
        },
        {
          "name": "D#3",
          "midi": 51,
          "time": 91.58020833333303,
          "velocity": 0.5590551181102362,
          "duration": 0.12812500000001137
        },
        {
          "name": "F2",
          "midi": 41,
          "time": 91.68541666666637,
          "velocity": 0.25196850393700787,
          "duration": 0.17395833333333144
        },
        {
          "name": "F3",
          "midi": 53,
          "time": 91.69687499999971,
          "velocity": 0.6771653543307087,
          "duration": 0.24374999999999147
        },
        {
          "name": "C3",
          "midi": 48,
          "time": 91.7312499999997,
          "velocity": 0.3700787401574803,
          "duration": 0.06979166666666003
        },
        {
          "name": "D#3",
          "midi": 51,
          "time": 91.88229166666636,
          "velocity": 0.4409448818897638,
          "duration": 0.06979166666667425
        },
        {
          "name": "D#3",
          "midi": 51,
          "time": 91.96354166666637,
          "velocity": 0.6929133858267716,
          "duration": 0.24374999999999147
        },
        {
          "name": "D#2",
          "midi": 39,
          "time": 92.1843749999997,
          "velocity": 0.28346456692913385,
          "duration": 0.12812499999999716
        },
        {
          "name": "D#3",
          "midi": 51,
          "time": 92.20729166666636,
          "velocity": 0.6614173228346457,
          "duration": 0.09270833333333428
        },
        {
          "name": "D#4",
          "midi": 63,
          "time": 92.2656249999997,
          "velocity": 0.31496062992125984,
          "duration": 0.10416666666665719
        },
        {
          "name": "D#3",
          "midi": 51,
          "time": 92.2999999999997,
          "velocity": 0.6299212598425197,
          "duration": 0.22083333333333144
        },
        {
          "name": "D#2",
          "midi": 39,
          "time": 92.31145833333304,
          "velocity": 0.3464566929133858,
          "duration": 0.37187499999998863
        },
        {
          "name": "A#3",
          "midi": 58,
          "time": 92.33541666666636,
          "velocity": 0.2992125984251969,
          "duration": 0.17395833333333144
        },
        {
          "name": "G3",
          "midi": 55,
          "time": 92.3468749999997,
          "velocity": 0.28346456692913385,
          "duration": 0.17395833333333144
        },
        {
          "name": "A#2",
          "midi": 46,
          "time": 92.47395833333303,
          "velocity": 0.36220472440944884,
          "duration": 0.11562499999999432
        },
        {
          "name": "D#3",
          "midi": 51,
          "time": 92.52083333333303,
          "velocity": 0.5748031496062992,
          "duration": 0.17395833333333144
        },
        {
          "name": "A#2",
          "midi": 46,
          "time": 92.59062499999969,
          "velocity": 0.3700787401574803,
          "duration": 0.09270833333333428
        },
        {
          "name": "A#2",
          "midi": 46,
          "time": 92.68333333333302,
          "velocity": 0.5039370078740157,
          "duration": 0.06979166666667425
        },
        {
          "name": "D#2",
          "midi": 39,
          "time": 92.68333333333302,
          "velocity": 0.3779527559055118,
          "duration": 0.20937500000000853
        },
        {
          "name": "D#3",
          "midi": 51,
          "time": 92.69479166666636,
          "velocity": 0.6062992125984252,
          "duration": 0.27812499999998863
        },
        {
          "name": "G3",
          "midi": 55,
          "time": 92.74166666666636,
          "velocity": 0.33070866141732286,
          "duration": 0.19687499999999147
        },
        {
          "name": "A#2",
          "midi": 46,
          "time": 92.7531249999997,
          "velocity": 0.4881889763779528,
          "duration": 0.16249999999999432
        },
        {
          "name": "A#3",
          "midi": 58,
          "time": 92.85729166666637,
          "velocity": 0.31496062992125984,
          "duration": 0.08124999999998295
        },
        {
          "name": "A#3",
          "midi": 58,
          "time": 92.94999999999969,
          "velocity": 0.33858267716535434,
          "duration": 0.08124999999999716
        },
        {
          "name": "G3",
          "midi": 55,
          "time": 92.94999999999969,
          "velocity": 0.31496062992125984,
          "duration": 0.06979166666666003
        },
        {
          "name": "A#2",
          "midi": 46,
          "time": 92.94999999999969,
          "velocity": 0.3700787401574803,
          "duration": 0.37187500000001705
        },
        {
          "name": "D#3",
          "midi": 51,
          "time": 92.97395833333302,
          "velocity": 0.6299212598425197,
          "duration": 0.18541666666668277
        },
        {
          "name": "D#2",
          "midi": 39,
          "time": 93.05520833333303,
          "velocity": 0.2992125984251969,
          "duration": 0.18541666666666856
        },
        {
          "name": "D#3",
          "midi": 51,
          "time": 93.1593749999997,
          "velocity": 0.6062992125984252,
          "duration": 0.1041666666666714
        },
        {
          "name": "D#2",
          "midi": 39,
          "time": 93.25208333333303,
          "velocity": 0.4566929133858268,
          "duration": 0.17499999999999716
        },
        {
          "name": "D#3",
          "midi": 51,
          "time": 93.26354166666637,
          "velocity": 0.4881889763779528,
          "duration": 0.23333333333332007
        },
        {
          "name": "D#4",
          "midi": 63,
          "time": 93.31041666666637,
          "velocity": 0.36220472440944884,
          "duration": 0.09375
        },
        {
          "name": "D#3",
          "midi": 51,
          "time": 93.49791666666636,
          "velocity": 0.5433070866141733,
          "duration": 0.1041666666666714
        },
        {
          "name": "D#3",
          "midi": 51,
          "time": 93.60208333333303,
          "velocity": 0.5511811023622047,
          "duration": 0.12812499999999716
        },
        {
          "name": "F3",
          "midi": 53,
          "time": 93.71770833333302,
          "velocity": 0.6141732283464567,
          "duration": 0.24374999999999147
        },
        {
          "name": "D#2",
          "midi": 39,
          "time": 93.75312499999968,
          "velocity": 0.36220472440944884,
          "duration": 0.24374999999999147
        },
        {
          "name": "D#3",
          "midi": 51,
          "time": 93.99687499999968,
          "velocity": 0.7244094488188977,
          "duration": 0.23229166666666856
        },
        {
          "name": "D#2",
          "midi": 39,
          "time": 94.00833333333301,
          "velocity": 0.4566929133858268,
          "duration": 0.12812499999999716
        },
        {
          "name": "D#3",
          "midi": 51,
          "time": 94.22916666666634,
          "velocity": 0.6850393700787402,
          "duration": 0.24375000000000568
        },
        {
          "name": "C3",
          "midi": 48,
          "time": 94.46145833333301,
          "velocity": 0.4015748031496063,
          "duration": 0.38333333333333997
        },
        {
          "name": "D#3",
          "midi": 51,
          "time": 94.70520833333302,
          "velocity": 0.3858267716535433,
          "duration": 0.1041666666666714
        },
        {
          "name": "D#3",
          "midi": 51,
          "time": 94.99479166666636,
          "velocity": 0.6692913385826772,
          "duration": 0.22083333333333144
        },
        {
          "name": "D#3",
          "midi": 51,
          "time": 95.21562499999969,
          "velocity": 0.4094488188976378,
          "duration": 0.26874999999999716
        },
        {
          "name": "D#3",
          "midi": 51,
          "time": 95.48437499999969,
          "velocity": 0.5118110236220472,
          "duration": 0.3135416666666657
        },
        {
          "name": "F3",
          "midi": 53,
          "time": 95.83229166666635,
          "velocity": 0.48031496062992124,
          "duration": 0.08124999999999716
        },
        {
          "name": "A#2",
          "midi": 46,
          "time": 96.23854166666635,
          "velocity": 0.3937007874015748,
          "duration": 0.08124999999999716
        },
        {
          "name": "G#2",
          "midi": 44,
          "time": 96.26145833333301,
          "velocity": 0.3700787401574803,
          "duration": 0.31354166666667993
        },
        {
          "name": "D#4",
          "midi": 63,
          "time": 96.28541666666635,
          "velocity": 0.3858267716535433,
          "duration": 0.17395833333333144
        },
        {
          "name": "G#3",
          "midi": 56,
          "time": 96.29687499999969,
          "velocity": 0.3543307086614173,
          "duration": 0.17395833333333144
        },
        {
          "name": "C4",
          "midi": 60,
          "time": 96.33124999999968,
          "velocity": 0.36220472440944884,
          "duration": 0.09270833333333428
        },
        {
          "name": "C3",
          "midi": 48,
          "time": 96.33124999999968,
          "velocity": 0.5275590551181102,
          "duration": 0.24375000000000568
        },
        {
          "name": "F1",
          "midi": 29,
          "time": 96.36666666666635,
          "velocity": 0.3937007874015748,
          "duration": 0.19687500000000568
        },
        {
          "name": "D#2",
          "midi": 39,
          "time": 96.51770833333302,
          "velocity": 0.2992125984251969,
          "duration": 0.09270833333334849
        },
        {
          "name": "G#2",
          "midi": 44,
          "time": 96.57499999999969,
          "velocity": 0.3858267716535433,
          "duration": 0.22083333333334565
        },
        {
          "name": "C4",
          "midi": 60,
          "time": 96.59895833333303,
          "velocity": 0.3858267716535433,
          "duration": 0.09270833333333428
        },
        {
          "name": "C3",
          "midi": 48,
          "time": 96.77291666666636,
          "velocity": 0.5748031496062992,
          "duration": 0.18541666666668277
        },
        {
          "name": "G#3",
          "midi": 56,
          "time": 96.7843749999997,
          "velocity": 0.3228346456692913,
          "duration": 0.2906250000000057
        },
        {
          "name": "G#2",
          "midi": 44,
          "time": 96.79583333333304,
          "velocity": 0.48031496062992124,
          "duration": 0.1510416666666714
        },
        {
          "name": "F1",
          "midi": 29,
          "time": 96.8312499999997,
          "velocity": 0.3228346456692913,
          "duration": 0.1041666666666714
        },
        {
          "name": "F2",
          "midi": 41,
          "time": 96.93541666666637,
          "velocity": 0.3228346456692913,
          "duration": 0.09270833333333428
        },
        {
          "name": "G#2",
          "midi": 44,
          "time": 96.94687499999971,
          "velocity": 0.49606299212598426,
          "duration": 0.12812499999999716
        },
        {
          "name": "C3",
          "midi": 48,
          "time": 96.95833333333304,
          "velocity": 0.41732283464566927,
          "duration": 0.11562499999999432
        },
        {
          "name": "F2",
          "midi": 41,
          "time": 97.0281249999997,
          "velocity": 0.3858267716535433,
          "duration": 0.09270833333333428
        },
        {
          "name": "D#3",
          "midi": 51,
          "time": 97.03958333333304,
          "velocity": 0.3228346456692913,
          "duration": 0.06979166666666003
        },
        {
          "name": "G#2",
          "midi": 44,
          "time": 97.0749999999997,
          "velocity": 0.3700787401574803,
          "duration": 0.22083333333333144
        },
        {
          "name": "D#2",
          "midi": 39,
          "time": 97.28333333333303,
          "velocity": 0.33858267716535434,
          "duration": 0.10625000000000284
        },
        {
          "name": "G#2",
          "midi": 44,
          "time": 97.29479166666637,
          "velocity": 0.47244094488188976,
          "duration": 0.17499999999999716
        },
        {
          "name": "C4",
          "midi": 60,
          "time": 97.33020833333303,
          "velocity": 0.3464566929133858,
          "duration": 0.09375
        },
        {
          "name": "F1",
          "midi": 29,
          "time": 97.34270833333304,
          "velocity": 0.3700787401574803,
          "duration": 0.12812499999999716
        },
        {
          "name": "F3",
          "midi": 53,
          "time": 97.56354166666637,
          "velocity": 0.33858267716535434,
          "duration": 0.09270833333333428
        },
        {
          "name": "C3",
          "midi": 48,
          "time": 97.71458333333304,
          "velocity": 0.3779527559055118,
          "duration": 0.32500000000000284
        },
        {
          "name": "G#2",
          "midi": 44,
          "time": 97.72604166666638,
          "velocity": 0.4015748031496063,
          "duration": 0.17395833333333144
        },
        {
          "name": "G#2",
          "midi": 44,
          "time": 97.9812499999997,
          "velocity": 0.3937007874015748,
          "duration": 0.13958333333333428
        },
        {
          "name": "D#3",
          "midi": 51,
          "time": 97.99270833333304,
          "velocity": 0.4015748031496063,
          "duration": 0.13958333333333428
        },
        {
          "name": "D#2",
          "midi": 39,
          "time": 98.1093749999997,
          "velocity": 0.3228346456692913,
          "duration": 0.3020833333333428
        },
        {
          "name": "A#2",
          "midi": 46,
          "time": 98.17916666666638,
          "velocity": 0.25196850393700787,
          "duration": 0.09270833333333428
        },
        {
          "name": "F#2",
          "midi": 42,
          "time": 98.17916666666638,
          "velocity": 0.2992125984251969,
          "duration": 0.09270833333333428
        },
        {
          "name": "G#2",
          "midi": 44,
          "time": 98.27187499999971,
          "velocity": 0.33070866141732286,
          "duration": 0.08124999999999716
        },
        {
          "name": "F2",
          "midi": 41,
          "time": 98.30624999999971,
          "velocity": 0.33858267716535434,
          "duration": 0.08124999999999716
        },
        {
          "name": "C3",
          "midi": 48,
          "time": 98.31770833333304,
          "velocity": 0.49606299212598426,
          "duration": 0.13958333333333428
        },
        {
          "name": "G#1",
          "midi": 32,
          "time": 98.31770833333304,
          "velocity": 0.3228346456692913,
          "duration": 0.08124999999999716
        },
        {
          "name": "D#2",
          "midi": 39,
          "time": 98.68958333333305,
          "velocity": 0.2755905511811024,
          "duration": 0.12812499999999716
        },
        {
          "name": "C3",
          "midi": 48,
          "time": 98.73645833333305,
          "velocity": 0.4881889763779528,
          "duration": 0.12812499999999716
        },
        {
          "name": "D#3",
          "midi": 51,
          "time": 99.02604166666637,
          "velocity": 0.48031496062992124,
          "duration": 0.13958333333332007
        },
        {
          "name": "F#2",
          "midi": 42,
          "time": 99.14270833333303,
          "velocity": 0.2440944881889764,
          "duration": 0.1510416666666572
        },
        {
          "name": "G#1",
          "midi": 32,
          "time": 99.29374999999969,
          "velocity": 0.3464566929133858,
          "duration": 0.07083333333332575
        },
        {
          "name": "G4",
          "midi": 67,
          "time": 99.32916666666635,
          "velocity": 0.3779527559055118,
          "duration": 0.08124999999999716
        },
        {
          "name": "D#3",
          "midi": 51,
          "time": 99.48020833333301,
          "velocity": 0.5984251968503937,
          "duration": 0.23229166666666856
        },
        {
          "name": "G#2",
          "midi": 44,
          "time": 99.53854166666635,
          "velocity": 0.36220472440944884,
          "duration": 0.09270833333333428
        },
        {
          "name": "D#3",
          "midi": 51,
          "time": 99.71249999999968,
          "velocity": 0.33858267716535434,
          "duration": 0.24374999999999147
        },
        {
          "name": "F3",
          "midi": 53,
          "time": 99.82916666666634,
          "velocity": 0.5748031496062992,
          "duration": 0.12812499999999716
        },
        {
          "name": "D#3",
          "midi": 51,
          "time": 99.95624999999967,
          "velocity": 0.44881889763779526,
          "duration": 0.11562499999999432
        },
        {
          "name": "D#3",
          "midi": 51,
          "time": 100.223958333333,
          "velocity": 0.28346456692913385,
          "duration": 0.06979166666666003
        },
        {
          "name": "D#4",
          "midi": 63,
          "time": 100.305208333333,
          "velocity": 0.3700787401574803,
          "duration": 0.19687499999999147
        },
        {
          "name": "C4",
          "midi": 60,
          "time": 100.32812499999966,
          "velocity": 0.33070866141732286,
          "duration": 0.06979166666667425
        },
        {
          "name": "C3",
          "midi": 48,
          "time": 100.339583333333,
          "velocity": 0.5039370078740157,
          "duration": 0.20937499999999432
        },
        {
          "name": "C2",
          "midi": 36,
          "time": 100.339583333333,
          "velocity": 0.41732283464566927,
          "duration": 0.18541666666665435
        },
        {
          "name": "D#2",
          "midi": 39,
          "time": 100.386458333333,
          "velocity": 0.33070866141732286,
          "duration": 0.10416666666665719
        },
        {
          "name": "A#3",
          "midi": 58,
          "time": 100.467708333333,
          "velocity": 0.31496062992125984,
          "duration": 0.13958333333333428
        },
        {
          "name": "C4",
          "midi": 60,
          "time": 100.59479166666632,
          "velocity": 0.2992125984251969,
          "duration": 0.26666666666667993
        },
        {
          "name": "F#2",
          "midi": 42,
          "time": 100.67604166666632,
          "velocity": 0.29133858267716534,
          "duration": 0.09270833333333428
        },
        {
          "name": "A#2",
          "midi": 46,
          "time": 100.71145833333298,
          "velocity": 0.5039370078740157,
          "duration": 0.12812500000001137
        },
        {
          "name": "A#2",
          "midi": 46,
          "time": 100.84999999999967,
          "velocity": 0.44881889763779526,
          "duration": 0.13958333333333428
        },
        {
          "name": "D#4",
          "midi": 63,
          "time": 100.97812499999966,
          "velocity": 0.3937007874015748,
          "duration": 0.10416666666665719
        },
        {
          "name": "A#2",
          "midi": 46,
          "time": 100.989583333333,
          "velocity": 0.36220472440944884,
          "duration": 0.1510416666666572
        },
        {
          "name": "F2",
          "midi": 41,
          "time": 100.989583333333,
          "velocity": 0.4409448818897638,
          "duration": 0.13958333333332007
        },
        {
          "name": "D#2",
          "midi": 39,
          "time": 101.01249999999966,
          "velocity": 0.3700787401574803,
          "duration": 0.11562499999999432
        },
        {
          "name": "D#3",
          "midi": 51,
          "time": 101.01249999999966,
          "velocity": 0.3937007874015748,
          "duration": 0.1510416666666572
        },
        {
          "name": "D#2",
          "midi": 39,
          "time": 101.26874999999966,
          "velocity": 0.3543307086614173,
          "duration": 0.15208333333333712
        },
        {
          "name": "C4",
          "midi": 60,
          "time": 101.32812499999966,
          "velocity": 0.3779527559055118,
          "duration": 0.12812499999999716
        },
        {
          "name": "G3",
          "midi": 55,
          "time": 101.73437499999966,
          "velocity": 0.4409448818897638,
          "duration": 0.38333333333331154
        },
        {
          "name": "A#2",
          "midi": 46,
          "time": 101.73437499999966,
          "velocity": 0.3543307086614173,
          "duration": 0.09270833333332007
        },
        {
          "name": "D#2",
          "midi": 39,
          "time": 101.75729166666632,
          "velocity": 0.41732283464566927,
          "duration": 0.27812499999998863
        },
        {
          "name": "F#1",
          "midi": 30,
          "time": 101.91979166666631,
          "velocity": 0.36220472440944884,
          "duration": 0.11562499999999432
        },
        {
          "name": "D#2",
          "midi": 39,
          "time": 102.03541666666631,
          "velocity": 0.4645669291338583,
          "duration": 0.09270833333333428
        },
        {
          "name": "D#2",
          "midi": 39,
          "time": 102.25624999999964,
          "velocity": 0.49606299212598426,
          "duration": 0.16249999999999432
        },
        {
          "name": "D#2",
          "midi": 39,
          "time": 102.51145833333297,
          "velocity": 0.3937007874015748,
          "duration": 0.08124999999999716
        },
        {
          "name": "D#3",
          "midi": 51,
          "time": 102.52395833333297,
          "velocity": 0.5590551181102362,
          "duration": 0.13958333333333428
        },
        {
          "name": "D#2",
          "midi": 39,
          "time": 102.59270833333296,
          "velocity": 0.3228346456692913,
          "duration": 0.4531249999999858
        },
        {
          "name": "G#2",
          "midi": 44,
          "time": 102.75520833333297,
          "velocity": 0.3464566929133858,
          "duration": 0.06979166666666003
        },
        {
          "name": "C5",
          "midi": 72,
          "time": 102.75520833333297,
          "velocity": 0.3228346456692913,
          "duration": 0.06979166666666003
        },
        {
          "name": "D#3",
          "midi": 51,
          "time": 102.8947916666663,
          "velocity": 0.29133858267716534,
          "duration": 0.06979166666666003
        },
        {
          "name": "D#4",
          "midi": 63,
          "time": 102.96458333333295,
          "velocity": 0.2283464566929134,
          "duration": 0.13958333333333428
        },
        {
          "name": "D#3",
          "midi": 51,
          "time": 102.96458333333295,
          "velocity": 0.6062992125984252,
          "duration": 0.20937499999999432
        },
        {
          "name": "D#2",
          "midi": 39,
          "time": 103.04583333333295,
          "velocity": 0.33070866141732286,
          "duration": 0.2552083333333286
        },
        {
          "name": "D#2",
          "midi": 39,
          "time": 103.30104166666628,
          "velocity": 0.49606299212598426,
          "duration": 0.07083333333333997
        },
        {
          "name": "G4",
          "midi": 67,
          "time": 103.31458333333295,
          "velocity": 0.31496062992125984,
          "duration": 0.09270833333333428
        },
        {
          "name": "D#2",
          "midi": 39,
          "time": 103.37187499999962,
          "velocity": 0.33858267716535434,
          "duration": 0.13958333333333428
        },
        {
          "name": "D#3",
          "midi": 51,
          "time": 103.46562499999962,
          "velocity": 0.5275590551181102,
          "duration": 0.3020833333333286
        },
        {
          "name": "D#2",
          "midi": 39,
          "time": 103.51145833333295,
          "velocity": 0.47244094488188976,
          "duration": 0.12812499999999716
        },
        {
          "name": "A#2",
          "midi": 46,
          "time": 103.75520833333294,
          "velocity": 0.36220472440944884,
          "duration": 0.09270833333332007
        },
        {
          "name": "D#2",
          "midi": 39,
          "time": 103.80208333333294,
          "velocity": 0.3858267716535433,
          "duration": 0.08124999999998295
        },
        {
          "name": "F4",
          "midi": 65,
          "time": 103.8249999999996,
          "velocity": 0.3937007874015748,
          "duration": 0.09270833333332007
        },
        {
          "name": "G#3",
          "midi": 56,
          "time": 104.23124999999959,
          "velocity": 0.31496062992125984,
          "duration": 0.13958333333332007
        },
        {
          "name": "C3",
          "midi": 48,
          "time": 104.31249999999959,
          "velocity": 0.5669291338582677,
          "duration": 0.33645833333331154
        },
        {
          "name": "F1",
          "midi": 29,
          "time": 104.34791666666625,
          "velocity": 0.3228346456692913,
          "duration": 0.1510416666666572
        },
        {
          "name": "G#2",
          "midi": 44,
          "time": 104.46354166666625,
          "velocity": 0.36220472440944884,
          "duration": 0.11562499999999432
        },
        {
          "name": "C4",
          "midi": 60,
          "time": 104.8114583333329,
          "velocity": 0.31496062992125984,
          "duration": 0.11562500000000853
        },
        {
          "name": "C3",
          "midi": 48,
          "time": 104.8239583333329,
          "velocity": 0.5118110236220472,
          "duration": 0.31354166666669414
        },
        {
          "name": "F1",
          "midi": 29,
          "time": 104.86979166666623,
          "velocity": 0.31496062992125984,
          "duration": 0.08125000000001137
        },
        {
          "name": "G#2",
          "midi": 44,
          "time": 104.97499999999958,
          "velocity": 0.33070866141732286,
          "duration": 0.18541666666666856
        },
        {
          "name": "F2",
          "midi": 41,
          "time": 105.00937499999958,
          "velocity": 0.4094488188976378,
          "duration": 0.1041666666666714
        },
        {
          "name": "C3",
          "midi": 48,
          "time": 105.26458333333292,
          "velocity": 0.3543307086614173,
          "duration": 0.09375
        },
        {
          "name": "F3",
          "midi": 53,
          "time": 105.5562499999996,
          "velocity": 0.3543307086614173,
          "duration": 0.1041666666666714
        },
        {
          "name": "D#3",
          "midi": 51,
          "time": 105.7187499999996,
          "velocity": 0.3543307086614173,
          "duration": 0.06979166666666003
        },
        {
          "name": "G#2",
          "midi": 44,
          "time": 105.74166666666626,
          "velocity": 0.3700787401574803,
          "duration": 0.1041666666666714
        },
        {
          "name": "C3",
          "midi": 48,
          "time": 105.93958333333293,
          "velocity": 0.33858267716535434,
          "duration": 0.16249999999999432
        },
        {
          "name": "D#2",
          "midi": 39,
          "time": 105.95104166666627,
          "velocity": 0.2992125984251969,
          "duration": 0.18541666666665435
        },
        {
          "name": "D#3",
          "midi": 51,
          "time": 105.97395833333293,
          "velocity": 0.2677165354330709,
          "duration": 0.11562499999999432
        },
        {
          "name": "G#2",
          "midi": 44,
          "time": 105.97395833333293,
          "velocity": 0.4015748031496063,
          "duration": 0.08124999999999716
        },
        {
          "name": "G#2",
          "midi": 44,
          "time": 106.05520833333293,
          "velocity": 0.3858267716535433,
          "duration": 0.08124999999999716
        },
        {
          "name": "D#2",
          "midi": 39,
          "time": 106.2874999999996,
          "velocity": 0.31496062992125984,
          "duration": 0.06979166666667425
        },
        {
          "name": "C3",
          "midi": 48,
          "time": 106.29895833333293,
          "velocity": 0.4566929133858268,
          "duration": 0.11562499999999432
        },
        {
          "name": "G#2",
          "midi": 44,
          "time": 106.29895833333293,
          "velocity": 0.4015748031496063,
          "duration": 0.08124999999999716
        },
        {
          "name": "D#3",
          "midi": 51,
          "time": 106.47395833333293,
          "velocity": 0.48031496062992124,
          "duration": 0.11562499999999432
        },
        {
          "name": "D#3",
          "midi": 51,
          "time": 106.58958333333293,
          "velocity": 0.33858267716535434,
          "duration": 0.19687500000000568
        },
        {
          "name": "F#2",
          "midi": 42,
          "time": 106.63645833333293,
          "velocity": 0.31496062992125984,
          "duration": 0.24375000000000568
        },
        {
          "name": "C3",
          "midi": 48,
          "time": 106.81041666666627,
          "velocity": 0.47244094488188976,
          "duration": 0.10416666666665719
        },
        {
          "name": "D#3",
          "midi": 51,
          "time": 106.98437499999959,
          "velocity": 0.5826771653543307,
          "duration": 0.19687500000000568
        },
        {
          "name": "F#2",
          "midi": 42,
          "time": 107.12395833333292,
          "velocity": 0.2755905511811024,
          "duration": 0.23333333333333428
        },
        {
          "name": "G4",
          "midi": 67,
          "time": 107.3218749999996,
          "velocity": 0.3937007874015748,
          "duration": 0.08124999999999716
        },
        {
          "name": "D#3",
          "midi": 51,
          "time": 107.44999999999959,
          "velocity": 0.5905511811023622,
          "duration": 0.2552083333333144
        },
        {
          "name": "G#2",
          "midi": 44,
          "time": 107.53124999999959,
          "velocity": 0.3543307086614173,
          "duration": 0.08124999999999716
        },
        {
          "name": "F#2",
          "midi": 42,
          "time": 107.63541666666625,
          "velocity": 0.30708661417322836,
          "duration": 0.11562499999999432
        },
        {
          "name": "D#3",
          "midi": 51,
          "time": 107.7052083333329,
          "velocity": 0.48031496062992124,
          "duration": 0.09270833333333428
        },
        {
          "name": "G#1",
          "midi": 32,
          "time": 107.76354166666624,
          "velocity": 0.3228346456692913,
          "duration": 0.09270833333333428
        },
        {
          "name": "F3",
          "midi": 53,
          "time": 107.81041666666624,
          "velocity": 0.5826771653543307,
          "duration": 0.12812499999999716
        },
        {
          "name": "D#3",
          "midi": 51,
          "time": 107.94895833333291,
          "velocity": 0.44881889763779526,
          "duration": 0.11562499999999432
        },
        {
          "name": "G3",
          "midi": 55,
          "time": 108.21666666666624,
          "velocity": 0.4409448818897638,
          "duration": 0.06979166666667425
        },
        {
          "name": "D#3",
          "midi": 51,
          "time": 108.21666666666624,
          "velocity": 0.3464566929133858,
          "duration": 0.5229166666666885
        },
        {
          "name": "D#4",
          "midi": 63,
          "time": 108.22812499999958,
          "velocity": 0.30708661417322836,
          "duration": 0.20937500000000853
        },
        {
          "name": "D#2",
          "midi": 39,
          "time": 108.23958333333292,
          "velocity": 0.2755905511811024,
          "duration": 0.06979166666666003
        },
        {
          "name": "G4",
          "midi": 67,
          "time": 108.28541666666625,
          "velocity": 0.3228346456692913,
          "duration": 0.06979166666666003
        },
        {
          "name": "G3",
          "midi": 55,
          "time": 108.28541666666625,
          "velocity": 0.5511811023622047,
          "duration": 0.3479166666666771
        },
        {
          "name": "D#2",
          "midi": 39,
          "time": 108.30937499999958,
          "velocity": 0.5039370078740157,
          "duration": 0.1041666666666714
        },
        {
          "name": "D#2",
          "midi": 39,
          "time": 108.41354166666625,
          "velocity": 0.4251968503937008,
          "duration": 0.16250000000000853
        },
        {
          "name": "D#3",
          "midi": 51,
          "time": 108.73854166666626,
          "velocity": 0.47244094488188976,
          "duration": 0.08124999999999716
        },
        {
          "name": "A#2",
          "midi": 46,
          "time": 108.8312499999996,
          "velocity": 0.33070866141732286,
          "duration": 0.12812499999999716
        },
        {
          "name": "F3",
          "midi": 53,
          "time": 108.84270833333294,
          "velocity": 0.5196850393700787,
          "duration": 0.18541666666665435
        },
        {
          "name": "F2",
          "midi": 41,
          "time": 108.84270833333294,
          "velocity": 0.33070866141732286,
          "duration": 0.09270833333333428
        },
        {
          "name": "F2",
          "midi": 41,
          "time": 108.93645833333294,
          "velocity": 0.44881889763779526,
          "duration": 0.1510416666666572
        },
        {
          "name": "D#2",
          "midi": 39,
          "time": 109.02916666666626,
          "velocity": 0.3464566929133858,
          "duration": 0.09270833333333428
        },
        {
          "name": "D#3",
          "midi": 51,
          "time": 109.07499999999959,
          "velocity": 0.5590551181102362,
          "duration": 0.1875
        },
        {
          "name": "D#3",
          "midi": 51,
          "time": 109.26249999999959,
          "velocity": 0.49606299212598426,
          "duration": 0.16249999999999432
        },
        {
          "name": "D#2",
          "midi": 39,
          "time": 109.26249999999959,
          "velocity": 0.4566929133858268,
          "duration": 0.19687499999999147
        },
        {
          "name": "F3",
          "midi": 53,
          "time": 109.56458333333292,
          "velocity": 0.3464566929133858,
          "duration": 0.06979166666666003
        },
        {
          "name": "D#2",
          "midi": 39,
          "time": 109.74999999999957,
          "velocity": 0.48031496062992124,
          "duration": 0.06979166666666003
        },
        {
          "name": "D#2",
          "midi": 39,
          "time": 109.83124999999957,
          "velocity": 0.48031496062992124,
          "duration": 0.12812499999999716
        },
        {
          "name": "F1",
          "midi": 29,
          "time": 109.91249999999957,
          "velocity": 0.3228346456692913,
          "duration": 0.08124999999999716
        },
        {
          "name": "D#2",
          "midi": 39,
          "time": 109.95937499999957,
          "velocity": 0.49606299212598426,
          "duration": 0.12812499999999716
        },
        {
          "name": "D#2",
          "midi": 39,
          "time": 110.0864583333329,
          "velocity": 0.4251968503937008,
          "duration": 0.06979166666666003
        },
        {
          "name": "D#2",
          "midi": 39,
          "time": 110.28437499999956,
          "velocity": 0.4015748031496063,
          "duration": 0.11562499999999432
        },
        {
          "name": "D#5",
          "midi": 75,
          "time": 110.51666666666621,
          "velocity": 0.33070866141732286,
          "duration": 0.10416666666665719
        },
        {
          "name": "G#3",
          "midi": 56,
          "time": 110.51666666666621,
          "velocity": 0.5039370078740157,
          "duration": 0.18541666666665435
        },
        {
          "name": "G#2",
          "midi": 44,
          "time": 110.53958333333287,
          "velocity": 0.3543307086614173,
          "duration": 0.06979166666666003
        },
        {
          "name": "G2",
          "midi": 43,
          "time": 110.69062499999953,
          "velocity": 0.25984251968503935,
          "duration": 0.16250000000000853
        },
        {
          "name": "D#3",
          "midi": 51,
          "time": 110.7947916666662,
          "velocity": 0.5196850393700787,
          "duration": 0.16250000000000853
        },
        {
          "name": "D#2",
          "midi": 39,
          "time": 110.7947916666662,
          "velocity": 0.4881889763779528,
          "duration": 0.23229166666666856
        },
        {
          "name": "D#4",
          "midi": 63,
          "time": 110.95729166666621,
          "velocity": 0.25196850393700787,
          "duration": 0.17395833333333144
        },
        {
          "name": "D#3",
          "midi": 51,
          "time": 110.95729166666621,
          "velocity": 0.5196850393700787,
          "duration": 0.27812500000000284
        },
        {
          "name": "D#2",
          "midi": 39,
          "time": 111.02708333333287,
          "velocity": 0.4881889763779528,
          "duration": 0.12812500000001137
        },
        {
          "name": "D#2",
          "midi": 39,
          "time": 111.15520833333288,
          "velocity": 0.2992125984251969,
          "duration": 0.12916666666666288
        },
        {
          "name": "D#3",
          "midi": 51,
          "time": 111.23645833333288,
          "velocity": 0.49606299212598426,
          "duration": 0.4999999999999858
        },
        {
          "name": "D#2",
          "midi": 39,
          "time": 111.28437499999954,
          "velocity": 0.5590551181102362,
          "duration": 0.22083333333333144
        },
        {
          "name": "G2",
          "midi": 43,
          "time": 111.3072916666662,
          "velocity": 0.2992125984251969,
          "duration": 0.2666666666666657
        },
        {
          "name": "D#2",
          "midi": 39,
          "time": 111.50416666666621,
          "velocity": 0.6377952755905512,
          "duration": 0.06979166666666003
        },
        {
          "name": "D#2",
          "midi": 39,
          "time": 111.57395833333287,
          "velocity": 0.4566929133858268,
          "duration": 0.06979166666667425
        },
        {
          "name": "G#2",
          "midi": 44,
          "time": 111.5854166666662,
          "velocity": 0.3464566929133858,
          "duration": 0.08124999999999716
        },
        {
          "name": "D#3",
          "midi": 51,
          "time": 111.73645833333286,
          "velocity": 0.41732283464566927,
          "duration": 0.08124999999999716
        },
        {
          "name": "D#2",
          "midi": 39,
          "time": 111.80624999999952,
          "velocity": 0.4251968503937008,
          "duration": 0.13958333333333428
        },
        {
          "name": "F3",
          "midi": 53,
          "time": 111.8291666666662,
          "velocity": 0.5511811023622047,
          "duration": 0.1510416666666714
        },
        {
          "name": "G1",
          "midi": 31,
          "time": 111.8760416666662,
          "velocity": 0.3228346456692913,
          "duration": 0.08124999999999716
        },
        {
          "name": "D#3",
          "midi": 51,
          "time": 111.96874999999953,
          "velocity": 0.48031496062992124,
          "duration": 0.1510416666666714
        },
        {
          "name": "D#4",
          "midi": 63,
          "time": 112.21249999999954,
          "velocity": 0.4251968503937008,
          "duration": 1.8468750000000114
        },
        {
          "name": "G#3",
          "midi": 56,
          "time": 112.22395833333287,
          "velocity": 0.4409448818897638,
          "duration": 0.1041666666666714
        },
        {
          "name": "A#2",
          "midi": 46,
          "time": 112.23541666666621,
          "velocity": 0.5354330708661418,
          "duration": 0.16249999999999432
        },
        {
          "name": "G#3",
          "midi": 56,
          "time": 112.32916666666621,
          "velocity": 0.49606299212598426,
          "duration": 1.7312500000000028
        },
        {
          "name": "C3",
          "midi": 48,
          "time": 112.3979166666662,
          "velocity": 0.6220472440944882,
          "duration": 0.33645833333333997
        },
        {
          "name": "C4",
          "midi": 60,
          "time": 112.59583333333288,
          "velocity": 0.36220472440944884,
          "duration": 0.6156250000000085
        },
        {
          "name": "C5",
          "midi": 72,
          "time": 112.64270833333288,
          "velocity": 0.4251968503937008,
          "duration": 0.18541666666666856
        },
        {
          "name": "C5",
          "midi": 72,
          "time": 112.83958333333288,
          "velocity": 0.3543307086614173,
          "duration": 0.5697916666666742
        },
        {
          "name": "C5",
          "midi": 72,
          "time": 113.40937499999956,
          "velocity": 0.4094488188976378,
          "duration": 0.22083333333333144
        },
        {
          "name": "C4",
          "midi": 60,
          "time": 113.45624999999956,
          "velocity": 0.33858267716535434,
          "duration": 0.09270833333333428
        },
        {
          "name": "C5",
          "midi": 72,
          "time": 113.69999999999955,
          "velocity": 0.31496062992125984,
          "duration": 0.20937499999999432
        },
        {
          "name": "F3",
          "midi": 53,
          "time": 114.11770833333289,
          "velocity": 0.3543307086614173,
          "duration": 0.06979166666666003
        },
        {
          "name": "G#3",
          "midi": 56,
          "time": 114.23437499999955,
          "velocity": 0.30708661417322836,
          "duration": 0.27812499999998863
        },
        {
          "name": "D#5",
          "midi": 75,
          "time": 114.24583333333288,
          "velocity": 0.25984251968503935,
          "duration": 0.18541666666665435
        },
        {
          "name": "C4",
          "midi": 60,
          "time": 114.31562499999954,
          "velocity": 0.6614173228346457,
          "duration": 0.08124999999999716
        },
        {
          "name": "G#4",
          "midi": 68,
          "time": 114.32708333333288,
          "velocity": 0.29133858267716534,
          "duration": 0.17395833333331723
        },
        {
          "name": "C4",
          "midi": 60,
          "time": 114.39687499999954,
          "velocity": 0.44881889763779526,
          "duration": 0.48749999999999716
        },
        {
          "name": "G#4",
          "midi": 68,
          "time": 114.51249999999953,
          "velocity": 0.4094488188976378,
          "duration": 0.22083333333333144
        },
        {
          "name": "G#3",
          "midi": 56,
          "time": 114.51249999999953,
          "velocity": 0.7244094488188977,
          "duration": 0.2552083333333286
        },
        {
          "name": "D#4",
          "midi": 63,
          "time": 114.52395833333287,
          "velocity": 0.33858267716535434,
          "duration": 0.06979166666666003
        },
        {
          "name": "G#3",
          "midi": 56,
          "time": 114.76770833333286,
          "velocity": 0.5354330708661418,
          "duration": 0.23229166666666856
        },
        {
          "name": "G#5",
          "midi": 80,
          "time": 114.7916666666662,
          "velocity": 0.33070866141732286,
          "duration": 0.08124999999999716
        },
        {
          "name": "C5",
          "midi": 72,
          "time": 114.8729166666662,
          "velocity": 0.4015748031496063,
          "duration": 0.12812499999999716
        },
        {
          "name": "C4",
          "midi": 60,
          "time": 114.88437499999954,
          "velocity": 0.5196850393700787,
          "duration": 0.11562499999999432
        },
        {
          "name": "G#4",
          "midi": 68,
          "time": 114.99999999999953,
          "velocity": 0.4409448818897638,
          "duration": 0.17395833333333144
        },
        {
          "name": "C4",
          "midi": 60,
          "time": 114.99999999999953,
          "velocity": 0.4015748031496063,
          "duration": 0.4312500000000057
        },
        {
          "name": "G#3",
          "midi": 56,
          "time": 114.99999999999953,
          "velocity": 0.5118110236220472,
          "duration": 0.4541666666666657
        },
        {
          "name": "F3",
          "midi": 53,
          "time": 115.28020833333287,
          "velocity": 0.6141732283464567,
          "duration": 0.22083333333333144
        },
        {
          "name": "F4",
          "midi": 65,
          "time": 115.5010416666662,
          "velocity": 0.2440944881889764,
          "duration": 0.13958333333333428
        },
        {
          "name": "F3",
          "midi": 53,
          "time": 115.5010416666662,
          "velocity": 0.5984251968503937,
          "duration": 0.22083333333333144
        },
        {
          "name": "G4",
          "midi": 67,
          "time": 115.72187499999953,
          "velocity": 0.36220472440944884,
          "duration": 0.06979166666666003
        },
        {
          "name": "G3",
          "midi": 55,
          "time": 115.72187499999953,
          "velocity": 0.4566929133858268,
          "duration": 0.33645833333332575
        },
        {
          "name": "C5",
          "midi": 72,
          "time": 115.79062499999952,
          "velocity": 0.3858267716535433,
          "duration": 0.1041666666666714
        },
        {
          "name": "F3",
          "midi": 53,
          "time": 115.9416666666662,
          "velocity": 0.5748031496062992,
          "duration": 0.13958333333333428
        },
        {
          "name": "G3",
          "midi": 55,
          "time": 116.05833333333285,
          "velocity": 0.6771653543307087,
          "duration": 0.16250000000000853
        },
        {
          "name": "G4",
          "midi": 67,
          "time": 116.06979166666619,
          "velocity": 0.25196850393700787,
          "duration": 0.12812499999999716
        },
        {
          "name": "G4",
          "midi": 67,
          "time": 116.19791666666619,
          "velocity": 0.4330708661417323,
          "duration": 0.16250000000000853
        },
        {
          "name": "A#4",
          "midi": 70,
          "time": 116.20937499999953,
          "velocity": 0.33070866141732286,
          "duration": 0.1041666666666714
        },
        {
          "name": "A#3",
          "midi": 58,
          "time": 116.20937499999953,
          "velocity": 0.3543307086614173,
          "duration": 0.11562500000000853
        },
        {
          "name": "D#4",
          "midi": 63,
          "time": 116.22083333333286,
          "velocity": 0.4881889763779528,
          "duration": 0.23229166666666856
        },
        {
          "name": "G3",
          "midi": 55,
          "time": 116.22083333333286,
          "velocity": 0.5196850393700787,
          "duration": 0.5802083333333314
        },
        {
          "name": "A#3",
          "midi": 58,
          "time": 116.32499999999953,
          "velocity": 0.5196850393700787,
          "duration": 0.22083333333333144
        },
        {
          "name": "A#3",
          "midi": 58,
          "time": 116.54583333333287,
          "velocity": 0.48031496062992124,
          "duration": 1.1625000000000085
        },
        {
          "name": "D#4",
          "midi": 63,
          "time": 116.66145833333286,
          "velocity": 0.5433070866141733,
          "duration": 0.4645833333333371
        },
        {
          "name": "G3",
          "midi": 55,
          "time": 116.8010416666662,
          "velocity": 0.5039370078740157,
          "duration": 0.7208333333333456
        },
        {
          "name": "D#4",
          "midi": 63,
          "time": 117.13749999999953,
          "velocity": 0.5826771653543307,
          "duration": 0.5697916666666742
        },
        {
          "name": "C3",
          "midi": 48,
          "time": 117.37083333333287,
          "velocity": 0.3228346456692913,
          "duration": 0.1041666666666714
        },
        {
          "name": "D#4",
          "midi": 63,
          "time": 117.70833333333287,
          "velocity": 0.49606299212598426,
          "duration": 0.3135416666666657
        },
        {
          "name": "A#3",
          "midi": 58,
          "time": 117.70833333333287,
          "velocity": 0.48031496062992124,
          "duration": 0.1510416666666714
        },
        {
          "name": "G#4",
          "midi": 68,
          "time": 117.75416666666621,
          "velocity": 0.33070866141732286,
          "duration": 0.17395833333333144
        },
        {
          "name": "C4",
          "midi": 60,
          "time": 118.21874999999955,
          "velocity": 0.49606299212598426,
          "duration": 0.33645833333333997
        },
        {
          "name": "F4",
          "midi": 65,
          "time": 118.2885416666662,
          "velocity": 0.31496062992125984,
          "duration": 0.11562500000000853
        },
        {
          "name": "F3",
          "midi": 53,
          "time": 118.29999999999954,
          "velocity": 0.4330708661417323,
          "duration": 0.37187500000000284
        },
        {
          "name": "A#3",
          "midi": 58,
          "time": 118.35833333333288,
          "velocity": 0.30708661417322836,
          "duration": 0.18541666666666856
        },
        {
          "name": "F4",
          "midi": 65,
          "time": 118.40416666666621,
          "velocity": 0.3779527559055118,
          "duration": 0.08124999999999716
        },
        {
          "name": "D#4",
          "midi": 63,
          "time": 118.45104166666621,
          "velocity": 0.3543307086614173,
          "duration": 0.18541666666666856
        },
        {
          "name": "C4",
          "midi": 60,
          "time": 118.55520833333289,
          "velocity": 0.44881889763779526,
          "duration": 0.24374999999999147
        },
        {
          "name": "C5",
          "midi": 72,
          "time": 118.62499999999955,
          "velocity": 0.33858267716535434,
          "duration": 0.06979166666666003
        },
        {
          "name": "D#4",
          "midi": 63,
          "time": 118.75312499999954,
          "velocity": 0.25984251968503935,
          "duration": 0.1510416666666714
        },
        {
          "name": "G3",
          "midi": 55,
          "time": 118.75312499999954,
          "velocity": 0.4251968503937008,
          "duration": 0.26666666666667993
        },
        {
          "name": "C4",
          "midi": 60,
          "time": 118.79895833333288,
          "velocity": 0.4094488188976378,
          "duration": 0.22083333333334565
        },
        {
          "name": "C5",
          "midi": 72,
          "time": 119.00833333333289,
          "velocity": 0.3858267716535433,
          "duration": 0.08125000000001137
        },
        {
          "name": "G3",
          "midi": 55,
          "time": 119.01979166666622,
          "velocity": 0.4645669291338583,
          "duration": 0.21041666666667425
        },
        {
          "name": "C3",
          "midi": 48,
          "time": 119.07812499999956,
          "velocity": 0.33858267716535434,
          "duration": 0.06979166666667425
        },
        {
          "name": "C5",
          "midi": 72,
          "time": 119.0895833333329,
          "velocity": 0.3779527559055118,
          "duration": 0.09270833333333428
        },
        {
          "name": "C4",
          "midi": 60,
          "time": 119.21874999999956,
          "velocity": 0.30708661417322836,
          "duration": 0.06979166666667425
        },
        {
          "name": "G3",
          "midi": 55,
          "time": 119.2302083333329,
          "velocity": 0.5118110236220472,
          "duration": 0.1041666666666714
        },
        {
          "name": "C4",
          "midi": 60,
          "time": 119.3927083333329,
          "velocity": 0.23622047244094488,
          "duration": 0.12812499999999716
        },
        {
          "name": "D#3",
          "midi": 51,
          "time": 119.3927083333329,
          "velocity": 0.36220472440944884,
          "duration": 0.09270833333333428
        },
        {
          "name": "D#3",
          "midi": 51,
          "time": 119.48541666666624,
          "velocity": 0.47244094488188976,
          "duration": 0.11562499999999432
        },
        {
          "name": "F3",
          "midi": 53,
          "time": 119.74062499999957,
          "velocity": 0.5748031496062992,
          "duration": 0.13958333333333428
        },
        {
          "name": "D#3",
          "midi": 51,
          "time": 120.0083333333329,
          "velocity": 0.5590551181102362,
          "duration": 0.11562500000000853
        },
        {
          "name": "F4",
          "midi": 65,
          "time": 120.11249999999957,
          "velocity": 0.25984251968503935,
          "duration": 0.1041666666666714
        },
        {
          "name": "F3",
          "midi": 53,
          "time": 120.11249999999957,
          "velocity": 0.7244094488188977,
          "duration": 0.09270833333333428
        },
        {
          "name": "F3",
          "midi": 53,
          "time": 120.2052083333329,
          "velocity": 0.6299212598425197,
          "duration": 0.453125
        },
        {
          "name": "F4",
          "midi": 65,
          "time": 120.21666666666624,
          "velocity": 0.3228346456692913,
          "duration": 0.3479166666666629
        },
        {
          "name": "C4",
          "midi": 60,
          "time": 120.21666666666624,
          "velocity": 0.4330708661417323,
          "duration": 0.5916666666666686
        },
        {
          "name": "G#3",
          "midi": 56,
          "time": 120.21666666666624,
          "velocity": 0.5354330708661418,
          "duration": 0.09270833333333428
        },
        {
          "name": "G#3",
          "midi": 56,
          "time": 120.31041666666624,
          "velocity": 0.5590551181102362,
          "duration": 0.13958333333333428
        },
        {
          "name": "G#3",
          "midi": 56,
          "time": 120.44895833333291,
          "velocity": 0.5433070866141733,
          "duration": 0.3135416666666657
        },
        {
          "name": "C5",
          "midi": 72,
          "time": 120.6583333333329,
          "velocity": 0.3937007874015748,
          "duration": 0.12812500000001137
        },
        {
          "name": "F3",
          "midi": 53,
          "time": 120.6583333333329,
          "velocity": 0.3937007874015748,
          "duration": 0.453125
        },
        {
          "name": "D#3",
          "midi": 51,
          "time": 120.6583333333329,
          "velocity": 0.47244094488188976,
          "duration": 0.12812500000001137
        },
        {
          "name": "G#3",
          "midi": 56,
          "time": 120.76249999999958,
          "velocity": 0.47244094488188976,
          "duration": 1.11562499999998
        },
        {
          "name": "G4",
          "midi": 67,
          "time": 121.21666666666624,
          "velocity": 0.5039370078740157,
          "duration": 0.13958333333332007
        },
        {
          "name": "C5",
          "midi": 72,
          "time": 121.2864583333329,
          "velocity": 0.33858267716535434,
          "duration": 0.09270833333332007
        },
        {
          "name": "F3",
          "midi": 53,
          "time": 121.2864583333329,
          "velocity": 0.3858267716535433,
          "duration": 0.5104166666666572
        },
        {
          "name": "C5",
          "midi": 72,
          "time": 121.50729166666622,
          "velocity": 0.3228346456692913,
          "duration": 0.12812500000001137
        },
        {
          "name": "F4",
          "midi": 65,
          "time": 121.61145833333289,
          "velocity": 0.31496062992125984,
          "duration": 0.08125000000001137
        },
        {
          "name": "G4",
          "midi": 67,
          "time": 121.76249999999956,
          "velocity": 0.47244094488188976,
          "duration": 0.12812499999999716
        },
        {
          "name": "A#4",
          "midi": 70,
          "time": 121.87812499999956,
          "velocity": 0.47244094488188976,
          "duration": 0.13958333333333428
        },
        {
          "name": "F3",
          "midi": 53,
          "time": 122.14583333333289,
          "velocity": 0.4409448818897638,
          "duration": 0.1510416666666714
        },
        {
          "name": "F4",
          "midi": 65,
          "time": 122.15729166666623,
          "velocity": 0.25196850393700787,
          "duration": 0.17395833333333144
        },
        {
          "name": "G#3",
          "midi": 56,
          "time": 122.20416666666623,
          "velocity": 0.3700787401574803,
          "duration": 0.09270833333333428
        },
        {
          "name": "C4",
          "midi": 60,
          "time": 122.28541666666622,
          "velocity": 0.4251968503937008,
          "duration": 0.22083333333333144
        },
        {
          "name": "D#4",
          "midi": 63,
          "time": 122.29687499999956,
          "velocity": 0.5118110236220472,
          "duration": 0.19687499999999147
        },
        {
          "name": "G#3",
          "midi": 56,
          "time": 122.29687499999956,
          "velocity": 0.4881889763779528,
          "duration": 0.37187499999998863
        },
        {
          "name": "G#4",
          "midi": 68,
          "time": 122.3083333333329,
          "velocity": 0.3543307086614173,
          "duration": 0.08124999999999716
        },
        {
          "name": "C5",
          "midi": 72,
          "time": 122.41249999999955,
          "velocity": 0.31496062992125984,
          "duration": 0.3604166666666515
        },
        {
          "name": "F4",
          "midi": 65,
          "time": 122.42395833333289,
          "velocity": 0.3858267716535433,
          "duration": 0.1510416666666572
        },
        {
          "name": "F3",
          "midi": 53,
          "time": 122.42395833333289,
          "velocity": 0.4015748031496063,
          "duration": 0.1510416666666572
        },
        {
          "name": "C4",
          "midi": 60,
          "time": 122.54062499999955,
          "velocity": 0.41732283464566927,
          "duration": 0.23229166666665435
        },
        {
          "name": "G4",
          "midi": 67,
          "time": 122.55208333333289,
          "velocity": 0.48031496062992124,
          "duration": 0.13958333333332007
        },
        {
          "name": "D#4",
          "midi": 63,
          "time": 122.66770833333288,
          "velocity": 0.4409448818897638,
          "duration": 0.09270833333332007
        },
        {
          "name": "D#4",
          "midi": 63,
          "time": 122.76145833333287,
          "velocity": 0.4881889763779528,
          "duration": 0.1395833333333485
        },
        {
          "name": "C5",
          "midi": 72,
          "time": 122.7729166666662,
          "velocity": 0.4881889763779528,
          "duration": 0.1041666666666714
        },
        {
          "name": "C4",
          "midi": 60,
          "time": 122.7729166666662,
          "velocity": 0.7401574803149606,
          "duration": 0.09270833333333428
        },
        {
          "name": "G#3",
          "midi": 56,
          "time": 122.7729166666662,
          "velocity": 0.4251968503937008,
          "duration": 0.11562500000000853
        },
        {
          "name": "C4",
          "midi": 60,
          "time": 122.86562499999954,
          "velocity": 0.5748031496062992,
          "duration": 0.11562500000000853
        },
        {
          "name": "G#3",
          "midi": 56,
          "time": 122.88854166666621,
          "velocity": 0.4566929133858268,
          "duration": 0.11562500000000853
        },
        {
          "name": "C4",
          "midi": 60,
          "time": 122.98124999999955,
          "velocity": 0.3937007874015748,
          "duration": 0.12812499999999716
        },
        {
          "name": "G#4",
          "midi": 68,
          "time": 122.99270833333289,
          "velocity": 0.31496062992125984,
          "duration": 0.23333333333332007
        },
        {
          "name": "G#3",
          "midi": 56,
          "time": 123.00520833333289,
          "velocity": 0.7716535433070866,
          "duration": 0.08124999999999716
        },
        {
          "name": "G#3",
          "midi": 56,
          "time": 123.08645833333289,
          "velocity": 0.7480314960629921,
          "duration": 0.1406249999999858
        },
        {
          "name": "D#5",
          "midi": 75,
          "time": 123.22708333333287,
          "velocity": 0.30708661417322836,
          "duration": 0.06979166666666003
        },
        {
          "name": "G#4",
          "midi": 68,
          "time": 123.22708333333287,
          "velocity": 0.36220472440944884,
          "duration": 0.18541666666665435
        },
        {
          "name": "G#3",
          "midi": 56,
          "time": 123.22708333333287,
          "velocity": 0.6062992125984252,
          "duration": 0.1510416666666572
        },
        {
          "name": "G#3",
          "midi": 56,
          "time": 123.37708333333286,
          "velocity": 0.49606299212598426,
          "duration": 0.10416666666665719
        },
        {
          "name": "C5",
          "midi": 72,
          "time": 123.51666666666618,
          "velocity": 0.3464566929133858,
          "duration": 0.1510416666666714
        },
        {
          "name": "F3",
          "midi": 53,
          "time": 123.52812499999952,
          "velocity": 0.4015748031496063,
          "duration": 0.08124999999999716
        },
        {
          "name": "C4",
          "midi": 60,
          "time": 123.53958333333286,
          "velocity": 0.44881889763779526,
          "duration": 0.22083333333333144
        },
        {
          "name": "G#3",
          "midi": 56,
          "time": 123.72604166666619,
          "velocity": 0.5433070866141733,
          "duration": 0.06979166666666003
        },
        {
          "name": "G3",
          "midi": 55,
          "time": 123.79583333333285,
          "velocity": 0.5354330708661418,
          "duration": 0.12812500000001137
        },
        {
          "name": "C5",
          "midi": 72,
          "time": 123.85312499999952,
          "velocity": 0.3464566929133858,
          "duration": 0.09270833333334849
        },
        {
          "name": "F3",
          "midi": 53,
          "time": 123.93437499999953,
          "velocity": 0.5669291338582677,
          "duration": 0.13958333333333428
        },
        {
          "name": "G4",
          "midi": 67,
          "time": 124.07395833333287,
          "velocity": 0.4015748031496063,
          "duration": 0.12812499999999716
        },
        {
          "name": "G3",
          "midi": 55,
          "time": 124.07395833333287,
          "velocity": 0.5354330708661418,
          "duration": 0.9749999999999943
        },
        {
          "name": "G4",
          "midi": 67,
          "time": 124.20208333333287,
          "velocity": 0.4330708661417323,
          "duration": 0.42916666666667425
        },
        {
          "name": "D#4",
          "midi": 63,
          "time": 124.2135416666662,
          "velocity": 0.3937007874015748,
          "duration": 0.22083333333333144
        },
        {
          "name": "A#3",
          "midi": 58,
          "time": 124.2135416666662,
          "velocity": 0.4409448818897638,
          "duration": 0.32500000000000284
        },
        {
          "name": "D#3",
          "midi": 51,
          "time": 124.23645833333286,
          "velocity": 0.4330708661417323,
          "duration": 1.47604166666666
        },
        {
          "name": "A#3",
          "midi": 58,
          "time": 124.5385416666662,
          "velocity": 0.5196850393700787,
          "duration": 0.6510416666666572
        },
        {
          "name": "A#4",
          "midi": 70,
          "time": 124.71249999999954,
          "velocity": 0.3700787401574803,
          "duration": 0.16249999999999432
        },
        {
          "name": "D#5",
          "midi": 75,
          "time": 124.79374999999953,
          "velocity": 0.33858267716535434,
          "duration": 0.06979166666666003
        },
        {
          "name": "D#4",
          "midi": 63,
          "time": 124.95624999999953,
          "velocity": 0.3937007874015748,
          "duration": 0.08124999999999716
        },
        {
          "name": "D#4",
          "midi": 63,
          "time": 125.04895833333286,
          "velocity": 0.48031496062992124,
          "duration": 0.19895833333333712
        },
        {
          "name": "G4",
          "midi": 67,
          "time": 125.09583333333286,
          "velocity": 0.3779527559055118,
          "duration": 0.09375
        },
        {
          "name": "A#3",
          "midi": 58,
          "time": 125.18958333333286,
          "velocity": 0.4094488188976378,
          "duration": 0.33645833333332575
        },
        {
          "name": "D#4",
          "midi": 63,
          "time": 125.2479166666662,
          "velocity": 0.5196850393700787,
          "duration": 0.06979166666666003
        },
        {
          "name": "D#4",
          "midi": 63,
          "time": 125.31770833333286,
          "velocity": 0.3543307086614173,
          "duration": 0.3135416666666657
        },
        {
          "name": "D#4",
          "midi": 63,
          "time": 125.71249999999952,
          "velocity": 0.4094488188976378,
          "duration": 0.19687500000000568
        },
        {
          "name": "D#3",
          "midi": 51,
          "time": 125.71249999999952,
          "velocity": 0.5511811023622047,
          "duration": 0.20937500000000853
        },
        {
          "name": "G#3",
          "midi": 56,
          "time": 125.90937499999953,
          "velocity": 0.25196850393700787,
          "duration": 0.08124999999999716
        },
        {
          "name": "G#4",
          "midi": 68,
          "time": 125.99062499999953,
          "velocity": 0.4645669291338583,
          "duration": 0.16249999999999432
        },
        {
          "name": "G#3",
          "midi": 56,
          "time": 125.99062499999953,
          "velocity": 0.5354330708661418,
          "duration": 0.23229166666665435
        },
        {
          "name": "C4",
          "midi": 60,
          "time": 126.06041666666619,
          "velocity": 0.47244094488188976,
          "duration": 0.17395833333333144
        },
        {
          "name": "G#3",
          "midi": 56,
          "time": 126.22291666666618,
          "velocity": 0.5590551181102362,
          "duration": 0.11562500000000853
        },
        {
          "name": "C4",
          "midi": 60,
          "time": 126.23541666666618,
          "velocity": 0.33858267716535434,
          "duration": 0.3135416666666657
        },
        {
          "name": "G3",
          "midi": 55,
          "time": 126.33958333333285,
          "velocity": 0.2755905511811024,
          "duration": 0.19687499999999147
        },
        {
          "name": "F3",
          "midi": 53,
          "time": 126.40937499999951,
          "velocity": 0.4330708661417323,
          "duration": 0.08124999999999716
        },
        {
          "name": "D#3",
          "midi": 51,
          "time": 126.45520833333285,
          "velocity": 0.5433070866141733,
          "duration": 0.22083333333333144
        },
        {
          "name": "G3",
          "midi": 55,
          "time": 126.53645833333285,
          "velocity": 0.41732283464566927,
          "duration": 0.1041666666666714
        },
        {
          "name": "C4",
          "midi": 60,
          "time": 126.54791666666618,
          "velocity": 0.4409448818897638,
          "duration": 0.16249999999999432
        },
        {
          "name": "D#3",
          "midi": 51,
          "time": 126.67604166666618,
          "velocity": 0.3700787401574803,
          "duration": 0.06979166666666003
        },
        {
          "name": "D#3",
          "midi": 51,
          "time": 126.74583333333284,
          "velocity": 0.4645669291338583,
          "duration": 0.27812499999998863
        },
        {
          "name": "C4",
          "midi": 60,
          "time": 126.83854166666617,
          "velocity": 0.3543307086614173,
          "duration": 0.3614583333333172
        },
        {
          "name": "F3",
          "midi": 53,
          "time": 126.86145833333283,
          "velocity": 0.36220472440944884,
          "duration": 0.08124999999999716
        },
        {
          "name": "C3",
          "midi": 48,
          "time": 126.87395833333284,
          "velocity": 0.3937007874015748,
          "duration": 0.06979166666666003
        },
        {
          "name": "C3",
          "midi": 48,
          "time": 126.94270833333283,
          "velocity": 0.44881889763779526,
          "duration": 0.10416666666665719
        },
        {
          "name": "D#3",
          "midi": 51,
          "time": 127.02395833333283,
          "velocity": 0.5275590551181102,
          "duration": 0.23333333333333428
        },
        {
          "name": "C3",
          "midi": 48,
          "time": 127.18854166666615,
          "velocity": 0.2755905511811024,
          "duration": 0.06979166666667425
        },
        {
          "name": "D#3",
          "midi": 51,
          "time": 127.25833333333283,
          "velocity": 0.6535433070866141,
          "duration": 0.20937499999999432
        },
        {
          "name": "C3",
          "midi": 48,
          "time": 127.25833333333283,
          "velocity": 0.4330708661417323,
          "duration": 0.06979166666666003
        },
        {
          "name": "C3",
          "midi": 48,
          "time": 127.32708333333282,
          "velocity": 0.4645669291338583,
          "duration": 0.11562499999999432
        },
        {
          "name": "F3",
          "midi": 53,
          "time": 127.46666666666616,
          "velocity": 0.5354330708661418,
          "duration": 0.13958333333333428
        },
        {
          "name": "F4",
          "midi": 65,
          "time": 127.4781249999995,
          "velocity": 0.3779527559055118,
          "duration": 0.06979166666666003
        },
        {
          "name": "D#3",
          "midi": 51,
          "time": 127.72187499999949,
          "velocity": 0.5748031496062992,
          "duration": 0.13958333333333428
        },
        {
          "name": "A#2",
          "midi": 46,
          "time": 128.11666666666616,
          "velocity": 0.47244094488188976,
          "duration": 0.10416666666668561
        },
        {
          "name": "D#4",
          "midi": 63,
          "time": 128.19791666666617,
          "velocity": 0.33070866141732286,
          "duration": 0.33645833333332575
        },
        {
          "name": "G#3",
          "midi": 56,
          "time": 128.19791666666617,
          "velocity": 0.2204724409448819,
          "duration": 0.12812500000001137
        },
        {
          "name": "C3",
          "midi": 48,
          "time": 128.2093749999995,
          "velocity": 0.5984251968503937,
          "duration": 0.06979166666667425
        },
        {
          "name": "C5",
          "midi": 72,
          "time": 128.23333333333284,
          "velocity": 0.2440944881889764,
          "duration": 0.10416666666668561
        },
        {
          "name": "G4",
          "midi": 67,
          "time": 128.23333333333284,
          "velocity": 0.2755905511811024,
          "duration": 0.2906250000000057
        },
        {
          "name": "C4",
          "midi": 60,
          "time": 128.23333333333284,
          "velocity": 0.4094488188976378,
          "duration": 0.3020833333333428
        },
        {
          "name": "G#2",
          "midi": 44,
          "time": 128.24479166666617,
          "velocity": 0.4566929133858268,
          "duration": 0.36041666666667993
        },
        {
          "name": "C3",
          "midi": 48,
          "time": 128.29166666666617,
          "velocity": 0.6299212598425197,
          "duration": 0.3020833333333428
        },
        {
          "name": "G#3",
          "midi": 56,
          "time": 128.32604166666619,
          "velocity": 0.49606299212598426,
          "duration": 0.10416666666665719
        },
        {
          "name": "G#3",
          "midi": 56,
          "time": 128.43020833333284,
          "velocity": 0.4409448818897638,
          "duration": 0.19687500000000568
        },
        {
          "name": "G4",
          "midi": 67,
          "time": 128.5812499999995,
          "velocity": 0.2992125984251969,
          "duration": 0.2781250000000739
        },
        {
          "name": "C4",
          "midi": 60,
          "time": 128.59270833333284,
          "velocity": 0.3464566929133858,
          "duration": 0.2781250000000739
        },
        {
          "name": "C3",
          "midi": 48,
          "time": 128.59270833333284,
          "velocity": 0.5748031496062992,
          "duration": 0.11562500000002274
        },
        {
          "name": "G#2",
          "midi": 44,
          "time": 128.60416666666617,
          "velocity": 0.5433070866141733,
          "duration": 0.18541666666669698
        },
        {
          "name": "C3",
          "midi": 48,
          "time": 128.70937499999954,
          "velocity": 0.6535433070866141,
          "duration": 0.1281250000000398
        },
        {
          "name": "G#2",
          "midi": 44,
          "time": 128.79062499999955,
          "velocity": 0.5433070866141733,
          "duration": 0.16250000000002274
        },
        {
          "name": "G#3",
          "midi": 56,
          "time": 128.81354166666623,
          "velocity": 0.30708661417322836,
          "duration": 0.11562500000002274
        },
        {
          "name": "C3",
          "midi": 48,
          "time": 128.8364583333329,
          "velocity": 0.48031496062992124,
          "duration": 0.11562499999999432
        },
        {
          "name": "G#3",
          "midi": 56,
          "time": 128.94166666666624,
          "velocity": 0.3858267716535433,
          "duration": 0.17395833333333144
        },
        {
          "name": "G#2",
          "midi": 44,
          "time": 128.95312499999957,
          "velocity": 0.5511811023622047,
          "duration": 0.23333333333332007
        },
        {
          "name": "F2",
          "midi": 41,
          "time": 128.95312499999957,
          "velocity": 0.4409448818897638,
          "duration": 0.17395833333333144
        },
        {
          "name": "C3",
          "midi": 48,
          "time": 129.0802083333329,
          "velocity": 0.3543307086614173,
          "duration": 0.09375
        },
        {
          "name": "C3",
          "midi": 48,
          "time": 129.1864583333329,
          "velocity": 0.3464566929133858,
          "duration": 0.19687499999997726
        },
        {
          "name": "G#2",
          "midi": 44,
          "time": 129.1864583333329,
          "velocity": 0.4881889763779528,
          "duration": 0.09270833333332007
        },
        {
          "name": "G#2",
          "midi": 44,
          "time": 129.2791666666662,
          "velocity": 0.6299212598425197,
          "duration": 0.16249999999999432
        },
        {
          "name": "C4",
          "midi": 60,
          "time": 129.38333333333287,
          "velocity": 0.41732283464566927,
          "duration": 0.17395833333335986
        },
        {
          "name": "C5",
          "midi": 72,
          "time": 129.4072916666662,
          "velocity": 0.30708661417322836,
          "duration": 0.08125000000001137
        },
        {
          "name": "D#4",
          "midi": 63,
          "time": 129.4072916666662,
          "velocity": 0.2992125984251969,
          "duration": 0.1968750000000341
        },
        {
          "name": "G#2",
          "midi": 44,
          "time": 129.4416666666662,
          "velocity": 0.4094488188976378,
          "duration": 0.08125000000001137
        },
        {
          "name": "C4",
          "midi": 60,
          "time": 129.56979166666622,
          "velocity": 0.3858267716535433,
          "duration": 0.16250000000002274
        },
        {
          "name": "F3",
          "midi": 53,
          "time": 129.56979166666622,
          "velocity": 0.3700787401574803,
          "duration": 0.09270833333334849
        },
        {
          "name": "G#2",
          "midi": 44,
          "time": 129.5927083333329,
          "velocity": 0.31496062992125984,
          "duration": 0.23229166666666856
        },
        {
          "name": "C4",
          "midi": 60,
          "time": 129.73229166666624,
          "velocity": 0.31496062992125984,
          "duration": 0.22083333333333144
        },
        {
          "name": "C4",
          "midi": 60,
          "time": 129.95312499999957,
          "velocity": 0.5118110236220472,
          "duration": 0.2552083333333428
        },
        {
          "name": "G#2",
          "midi": 44,
          "time": 129.98749999999959,
          "velocity": 0.33858267716535434,
          "duration": 0.08125000000001137
        },
        {
          "name": "A#2",
          "midi": 46,
          "time": 130.09166666666627,
          "velocity": 0.4015748031496063,
          "duration": 0.10416666666665719
        },
        {
          "name": "C3",
          "midi": 48,
          "time": 130.1156249999996,
          "velocity": 0.25984251968503935,
          "duration": 0.11562499999999432
        },
        {
          "name": "C4",
          "midi": 60,
          "time": 130.20833333333292,
          "velocity": 0.7322834645669292,
          "duration": 0.11562500000002274
        },
        {
          "name": "C3",
          "midi": 48,
          "time": 130.2312499999996,
          "velocity": 0.49606299212598426,
          "duration": 0.20937500000002274
        },
        {
          "name": "G#2",
          "midi": 44,
          "time": 130.28958333333293,
          "velocity": 0.3700787401574803,
          "duration": 0.09270833333334849
        },
        {
          "name": "F2",
          "midi": 41,
          "time": 130.30104166666626,
          "velocity": 0.3700787401574803,
          "duration": 0.08125000000001137
        },
        {
          "name": "C4",
          "midi": 60,
          "time": 130.32395833333294,
          "velocity": 0.6141732283464567,
          "duration": 0.22083333333333144
        },
        {
          "name": "G#2",
          "midi": 44,
          "time": 130.59166666666627,
          "velocity": 0.3543307086614173,
          "duration": 0.18541666666666856
        },
        {
          "name": "G#3",
          "midi": 56,
          "time": 130.6031249999996,
          "velocity": 0.44881889763779526,
          "duration": 0.22083333333333144
        },
        {
          "name": "C3",
          "midi": 48,
          "time": 130.63749999999962,
          "velocity": 0.4015748031496063,
          "duration": 0.22083333333333144
        },
        {
          "name": "D#3",
          "midi": 51,
          "time": 130.68437499999962,
          "velocity": 0.4094488188976378,
          "duration": 0.12812499999998295
        },
        {
          "name": "G#2",
          "midi": 44,
          "time": 130.77708333333294,
          "velocity": 0.3464566929133858,
          "duration": 0.26666666666667993
        },
        {
          "name": "G#2",
          "midi": 44,
          "time": 131.04374999999962,
          "velocity": 0.41732283464566927,
          "duration": 0.08229166666666288
        },
        {
          "name": "C3",
          "midi": 48,
          "time": 131.06770833333294,
          "velocity": 0.3464566929133858,
          "duration": 0.05937500000001705
        },
        {
          "name": "G#3",
          "midi": 56,
          "time": 131.2541666666663,
          "velocity": 0.6535433070866141,
          "duration": 0.27812499999998863
        },
        {
          "name": "G#4",
          "midi": 68,
          "time": 131.26562499999963,
          "velocity": 0.3937007874015748,
          "duration": 0.1510416666666572
        },
        {
          "name": "G#2",
          "midi": 44,
          "time": 131.28958333333296,
          "velocity": 0.3543307086614173,
          "duration": 0.06979166666667425
        },
        {
          "name": "F3",
          "midi": 53,
          "time": 131.61458333333294,
          "velocity": 0.4881889763779528,
          "duration": 0.09270833333332007
        },
        {
          "name": "C3",
          "midi": 48,
          "time": 131.70729166666626,
          "velocity": 0.3464566929133858,
          "duration": 0.10416666666668561
        },
        {
          "name": "G#2",
          "midi": 44,
          "time": 131.77708333333294,
          "velocity": 0.4015748031496063,
          "duration": 0.23229166666669698
        },
        {
          "name": "F2",
          "midi": 41,
          "time": 131.81145833333295,
          "velocity": 0.33858267716535434,
          "duration": 0.06979166666667425
        },
        {
          "name": "G2",
          "midi": 43,
          "time": 132.10208333333296,
          "velocity": 0.28346456692913385,
          "duration": 0.1968750000000341
        },
        {
          "name": "G3",
          "midi": 55,
          "time": 132.1135416666663,
          "velocity": 0.5511811023622047,
          "duration": 0.08125000000001137
        },
        {
          "name": "D#4",
          "midi": 63,
          "time": 132.1947916666663,
          "velocity": 0.2125984251968504,
          "duration": 0.06979166666667425
        },
        {
          "name": "A#3",
          "midi": 58,
          "time": 132.1947916666663,
          "velocity": 0.3228346456692913,
          "duration": 0.31354166666670835
        },
        {
          "name": "G3",
          "midi": 55,
          "time": 132.1947916666663,
          "velocity": 0.5039370078740157,
          "duration": 0.2437500000000341
        },
        {
          "name": "D#2",
          "midi": 39,
          "time": 132.1947916666663,
          "velocity": 0.2755905511811024,
          "duration": 0.16250000000002274
        },
        {
          "name": "G4",
          "midi": 67,
          "time": 132.20624999999964,
          "velocity": 0.3937007874015748,
          "duration": 0.20937500000002274
        },
        {
          "name": "D#3",
          "midi": 51,
          "time": 132.20624999999964,
          "velocity": 0.3228346456692913,
          "duration": 0.11562500000002274
        },
        {
          "name": "D#4",
          "midi": 63,
          "time": 132.26458333333298,
          "velocity": 0.44881889763779526,
          "duration": 0.23229166666669698
        },
        {
          "name": "G3",
          "midi": 55,
          "time": 132.43854166666634,
          "velocity": 0.41732283464566927,
          "duration": 0.11562499999999432
        },
        {
          "name": "D#2",
          "midi": 39,
          "time": 132.55416666666633,
          "velocity": 0.30708661417322836,
          "duration": 0.27812500000001705
        },
        {
          "name": "A#2",
          "midi": 46,
          "time": 132.56666666666632,
          "velocity": 0.3779527559055118,
          "duration": 0.6052083333334224
        },
        {
          "name": "C3",
          "midi": 48,
          "time": 132.589583333333,
          "velocity": 0.29133858267716534,
          "duration": 0.22083333333335986
        },
        {
          "name": "D#3",
          "midi": 51,
          "time": 132.61249999999967,
          "velocity": 0.3779527559055118,
          "duration": 0.4875000000000398
        },
        {
          "name": "A#3",
          "midi": 58,
          "time": 132.72916666666634,
          "velocity": 0.2992125984251969,
          "duration": 0.20937500000002274
        },
        {
          "name": "C4",
          "midi": 60,
          "time": 132.76354166666636,
          "velocity": 0.3543307086614173,
          "duration": 0.09270833333334849
        },
        {
          "name": "D#4",
          "midi": 63,
          "time": 132.83333333333303,
          "velocity": 0.3779527559055118,
          "duration": 0.2916666666666856
        },
        {
          "name": "A#3",
          "midi": 58,
          "time": 132.94895833333302,
          "velocity": 0.3543307086614173,
          "duration": 0.10416666666668561
        },
        {
          "name": "F2",
          "midi": 41,
          "time": 132.94895833333302,
          "velocity": 0.3228346456692913,
          "duration": 0.15104166666668561
        },
        {
          "name": "G3",
          "midi": 55,
          "time": 132.96041666666636,
          "velocity": 0.3779527559055118,
          "duration": 0.12812500000001137
        },
        {
          "name": "C3",
          "midi": 48,
          "time": 132.96041666666636,
          "velocity": 0.3464566929133858,
          "duration": 0.18750000000002842
        },
        {
          "name": "C4",
          "midi": 60,
          "time": 133.03020833333304,
          "velocity": 0.3543307086614173,
          "duration": 0.11770833333335418
        },
        {
          "name": "D#3",
          "midi": 51,
          "time": 133.0999999999997,
          "velocity": 0.4094488188976378,
          "duration": 0.09375000000002842
        },
        {
          "name": "G#2",
          "midi": 44,
          "time": 133.11354166666638,
          "velocity": 0.3228346456692913,
          "duration": 0.06979166666670267
        },
        {
          "name": "A#2",
          "midi": 46,
          "time": 133.17083333333306,
          "velocity": 0.3700787401574803,
          "duration": 0.13958333333332007
        },
        {
          "name": "G4",
          "midi": 67,
          "time": 133.24062499999974,
          "velocity": 0.47244094488188976,
          "duration": 0.3020833333333144
        },
        {
          "name": "G3",
          "midi": 55,
          "time": 133.24062499999974,
          "velocity": 0.6220472440944882,
          "duration": 0.3020833333333144
        },
        {
          "name": "C3",
          "midi": 48,
          "time": 133.24062499999974,
          "velocity": 0.33858267716535434,
          "duration": 0.22083333333330302
        },
        {
          "name": "D#2",
          "midi": 39,
          "time": 133.25208333333308,
          "velocity": 0.44881889763779526,
          "duration": 0.22083333333330302
        },
        {
          "name": "D#4",
          "midi": 63,
          "time": 133.26458333333306,
          "velocity": 0.4566929133858268,
          "duration": 0.2666666666666515
        },
        {
          "name": "F3",
          "midi": 53,
          "time": 133.56562499999973,
          "velocity": 0.4330708661417323,
          "duration": 0.09270833333332007
        },
        {
          "name": "C3",
          "midi": 48,
          "time": 133.6010416666664,
          "velocity": 0.3464566929133858,
          "duration": 0.32499999999998863
        },
        {
          "name": "G#2",
          "midi": 44,
          "time": 133.68229166666637,
          "velocity": 0.3700787401574803,
          "duration": 0.10416666666668561
        },
        {
          "name": "D#2",
          "midi": 39,
          "time": 133.75208333333305,
          "velocity": 0.44881889763779526,
          "duration": 0.3020833333333428
        },
        {
          "name": "D#4",
          "midi": 63,
          "time": 133.76354166666638,
          "velocity": 0.3858267716535433,
          "duration": 0.27812499999998863
        },
        {
          "name": "D#2",
          "midi": 39,
          "time": 134.0531249999997,
          "velocity": 0.3858267716535433,
          "duration": 0.08125000000001137
        },
        {
          "name": "C3",
          "midi": 48,
          "time": 134.06562499999973,
          "velocity": 0.3228346456692913,
          "duration": 0.06979166666667425
        },
        {
          "name": "C3",
          "midi": 48,
          "time": 134.19270833333306,
          "velocity": 0.2755905511811024,
          "duration": 0.13958333333332007
        },
        {
          "name": "G4",
          "midi": 67,
          "time": 134.23958333333306,
          "velocity": 0.5039370078740157,
          "duration": 0.29062499999997726
        },
        {
          "name": "G3",
          "midi": 55,
          "time": 134.23958333333306,
          "velocity": 0.6456692913385826,
          "duration": 0.29062499999997726
        },
        {
          "name": "D#2",
          "midi": 39,
          "time": 134.28541666666638,
          "velocity": 0.3700787401574803,
          "duration": 0.09270833333332007
        },
        {
          "name": "D#3",
          "midi": 51,
          "time": 134.61041666666637,
          "velocity": 0.5511811023622047,
          "duration": 0.19687500000000568
        },
        {
          "name": "D#2",
          "midi": 39,
          "time": 134.61041666666637,
          "velocity": 0.3464566929133858,
          "duration": 0.3947916666666913
        },
        {
          "name": "C3",
          "midi": 48,
          "time": 134.72708333333304,
          "velocity": 0.36220472440944884,
          "duration": 0.12812500000001137
        },
        {
          "name": "D#3",
          "midi": 51,
          "time": 134.97083333333305,
          "velocity": 0.5669291338582677,
          "duration": 0.4885416666666629
        },
        {
          "name": "D#2",
          "midi": 39,
          "time": 135.00520833333306,
          "velocity": 0.3779527559055118,
          "duration": 0.5354166666666629
        },
        {
          "name": "G#2",
          "midi": 44,
          "time": 135.13437499999972,
          "velocity": 0.2992125984251969,
          "duration": 0.11562499999999432
        },
        {
          "name": "D#4",
          "midi": 63,
          "time": 135.4593749999997,
          "velocity": 0.2755905511811024,
          "duration": 0.15104166666668561
        },
        {
          "name": "D#3",
          "midi": 51,
          "time": 135.4593749999997,
          "velocity": 0.6535433070866141,
          "duration": 0.2437500000000341
        },
        {
          "name": "D#2",
          "midi": 39,
          "time": 135.54062499999972,
          "velocity": 0.4645669291338583,
          "duration": 0.10416666666668561
        },
        {
          "name": "F3",
          "midi": 53,
          "time": 135.70312499999974,
          "velocity": 0.5433070866141733,
          "duration": 0.3947916666666629
        },
        {
          "name": "D#3",
          "midi": 51,
          "time": 135.92395833333308,
          "velocity": 0.5275590551181102,
          "duration": 0.06979166666667425
        },
        {
          "name": "D#3",
          "midi": 51,
          "time": 135.99374999999975,
          "velocity": 0.5748031496062992,
          "duration": 0.11562499999999432
        },
        {
          "name": "F4",
          "midi": 65,
          "time": 136.0979166666664,
          "velocity": 0.2677165354330709,
          "duration": 0.16250000000002274
        },
        {
          "name": "F3",
          "midi": 53,
          "time": 136.0979166666664,
          "velocity": 0.5826771653543307,
          "duration": 0.10416666666668561
        },
        {
          "name": "G#2",
          "midi": 44,
          "time": 136.19062499999976,
          "velocity": 0.2677165354330709,
          "duration": 0.17395833333333144
        },
        {
          "name": "F3",
          "midi": 53,
          "time": 136.20312499999977,
          "velocity": 0.29133858267716534,
          "duration": 0.1510416666666572
        },
        {
          "name": "G#3",
          "midi": 56,
          "time": 136.2145833333331,
          "velocity": 0.33070866141732286,
          "duration": 0.18541666666664014
        },
        {
          "name": "C4",
          "midi": 60,
          "time": 136.28437499999976,
          "velocity": 0.33070866141732286,
          "duration": 0.10416666666665719
        },
        {
          "name": "F3",
          "midi": 53,
          "time": 136.35312499999975,
          "velocity": 0.3464566929133858,
          "duration": 0.20937499999999432
        },
        {
          "name": "C4",
          "midi": 60,
          "time": 136.3885416666664,
          "velocity": 0.3779527559055118,
          "duration": 0.16249999999999432
        },
        {
          "name": "G#3",
          "midi": 56,
          "time": 136.39999999999975,
          "velocity": 0.5039370078740157,
          "duration": 0.17395833333333144
        },
        {
          "name": "F2",
          "midi": 41,
          "time": 136.53958333333307,
          "velocity": 0.33070866141732286,
          "duration": 0.11562500000002274
        },
        {
          "name": "G#3",
          "midi": 56,
          "time": 136.57395833333308,
          "velocity": 0.3700787401574803,
          "duration": 0.06979166666667425
        },
        {
          "name": "G#2",
          "midi": 44,
          "time": 136.57395833333308,
          "velocity": 0.3700787401574803,
          "duration": 0.22083333333335986
        },
        {
          "name": "F3",
          "midi": 53,
          "time": 136.72499999999977,
          "velocity": 0.3858267716535433,
          "duration": 0.12812500000001137
        },
        {
          "name": "G#2",
          "midi": 44,
          "time": 136.79479166666644,
          "velocity": 0.44881889763779526,
          "duration": 0.1510416666666572
        },
        {
          "name": "G#3",
          "midi": 56,
          "time": 136.9458333333331,
          "velocity": 0.33070866141732286,
          "duration": 0.140625
        },
        {
          "name": "G#2",
          "midi": 44,
          "time": 136.9458333333331,
          "velocity": 0.4251968503937008,
          "duration": 0.17500000000001137
        },
        {
          "name": "F2",
          "midi": 41,
          "time": 136.9458333333331,
          "velocity": 0.3779527559055118,
          "duration": 0.10416666666665719
        },
        {
          "name": "F2",
          "midi": 41,
          "time": 137.04999999999976,
          "velocity": 0.3858267716535433,
          "duration": 0.07083333333335418
        },
        {
          "name": "G#2",
          "midi": 44,
          "time": 137.1208333333331,
          "velocity": 0.36220472440944884,
          "duration": 0.06979166666664582
        },
        {
          "name": "C3",
          "midi": 48,
          "time": 137.14479166666644,
          "velocity": 0.30708661417322836,
          "duration": 0.17395833333333144
        },
        {
          "name": "G#2",
          "midi": 44,
          "time": 137.19062499999976,
          "velocity": 0.4566929133858268,
          "duration": 0.27812500000001705
        },
        {
          "name": "F3",
          "midi": 53,
          "time": 137.34166666666644,
          "velocity": 0.3543307086614173,
          "duration": 0.24375000000000568
        },
        {
          "name": "F3",
          "midi": 53,
          "time": 137.59687499999978,
          "velocity": 0.4566929133858268,
          "duration": 0.11562500000002274
        },
        {
          "name": "G#2",
          "midi": 44,
          "time": 137.6781249999998,
          "velocity": 0.36220472440944884,
          "duration": 0.1395833333333485
        },
        {
          "name": "C4",
          "midi": 60,
          "time": 137.93333333333314,
          "velocity": 0.6062992125984252,
          "duration": 0.31354166666667993
        },
        {
          "name": "C4",
          "midi": 60,
          "time": 138.24687499999982,
          "velocity": 0.7322834645669292,
          "duration": 0.11562499999999432
        },
        {
          "name": "C3",
          "midi": 48,
          "time": 138.24687499999982,
          "velocity": 0.3543307086614173,
          "duration": 0.10416666666665719
        },
        {
          "name": "C4",
          "midi": 60,
          "time": 138.3635416666665,
          "velocity": 0.5905511811023622,
          "duration": 0.16249999999999432
        },
        {
          "name": "G#2",
          "midi": 44,
          "time": 138.58437499999982,
          "velocity": 0.2677165354330709,
          "duration": 0.08125000000001137
        },
        {
          "name": "G#3",
          "midi": 56,
          "time": 138.59583333333316,
          "velocity": 0.6929133858267716,
          "duration": 0.10416666666668561
        },
        {
          "name": "G#3",
          "midi": 56,
          "time": 138.69999999999985,
          "velocity": 0.5354330708661418,
          "duration": 0.19687500000000568
        },
        {
          "name": "C3",
          "midi": 48,
          "time": 139.08437499999985,
          "velocity": 0.36220472440944884,
          "duration": 0.06979166666667425
        },
        {
          "name": "G#3",
          "midi": 56,
          "time": 139.23541666666654,
          "velocity": 0.6850393700787402,
          "duration": 0.20937500000002274
        },
        {
          "name": "C3",
          "midi": 48,
          "time": 139.23541666666654,
          "velocity": 0.4094488188976378,
          "duration": 0.12812500000001137
        },
        {
          "name": "G3",
          "midi": 55,
          "time": 139.44479166666656,
          "velocity": 0.2677165354330709,
          "duration": 0.08125000000001137
        },
        {
          "name": "F3",
          "midi": 53,
          "time": 139.60729166666658,
          "velocity": 0.5748031496062992,
          "duration": 0.09270833333332007
        },
        {
          "name": "F3",
          "midi": 53,
          "time": 139.6999999999999,
          "velocity": 0.41732283464566927,
          "duration": 0.09270833333332007
        },
        {
          "name": "F2",
          "midi": 41,
          "time": 139.82708333333323,
          "velocity": 0.33858267716535434,
          "duration": 0.24375000000000568
        },
        {
          "name": "G3",
          "midi": 55,
          "time": 140.00208333333325,
          "velocity": 0.5511811023622047,
          "duration": 0.11562499999999432
        },
        {
          "name": "G3",
          "midi": 55,
          "time": 140.11770833333324,
          "velocity": 0.5196850393700787,
          "duration": 0.09270833333334849
        },
        {
          "name": "G2",
          "midi": 43,
          "time": 140.19895833333325,
          "velocity": 0.28346456692913385,
          "duration": 0.12812500000001137
        },
        {
          "name": "G4",
          "midi": 67,
          "time": 140.2104166666666,
          "velocity": 0.3228346456692913,
          "duration": 0.23229166666669698
        },
        {
          "name": "G3",
          "midi": 55,
          "time": 140.2104166666666,
          "velocity": 0.5433070866141733,
          "duration": 0.3833333333333826
        },
        {
          "name": "D#2",
          "midi": 39,
          "time": 140.22187499999993,
          "velocity": 0.25196850393700787,
          "duration": 0.09270833333332007
        },
        {
          "name": "D#4",
          "midi": 63,
          "time": 140.26874999999993,
          "velocity": 0.3700787401574803,
          "duration": 0.08125000000001137
        },
        {
          "name": "D#3",
          "midi": 51,
          "time": 140.26874999999993,
          "velocity": 0.4881889763779528,
          "duration": 0.09270833333334849
        },
        {
          "name": "D#2",
          "midi": 39,
          "time": 140.31562499999993,
          "velocity": 0.3464566929133858,
          "duration": 0.26666666666670835
        },
        {
          "name": "A#3",
          "midi": 58,
          "time": 140.3385416666666,
          "velocity": 0.4330708661417323,
          "duration": 0.06979166666667425
        },
        {
          "name": "D#4",
          "midi": 63,
          "time": 140.34999999999994,
          "velocity": 0.3464566929133858,
          "duration": 0.09270833333334849
        },
        {
          "name": "D#3",
          "midi": 51,
          "time": 140.36145833333327,
          "velocity": 0.5669291338582677,
          "duration": 0.2437500000000341
        },
        {
          "name": "A#3",
          "midi": 58,
          "time": 140.40833333333327,
          "velocity": 0.5354330708661418,
          "duration": 0.15104166666668561
        },
        {
          "name": "D#2",
          "midi": 39,
          "time": 140.58229166666663,
          "velocity": 0.3858267716535433,
          "duration": 0.12812500000001137
        },
        {
          "name": "A#2",
          "midi": 46,
          "time": 140.59374999999997,
          "velocity": 0.3543307086614173,
          "duration": 0.10416666666665719
        },
        {
          "name": "D#3",
          "midi": 51,
          "time": 140.6052083333333,
          "velocity": 0.7480314960629921,
          "duration": 0.10416666666665719
        },
        {
          "name": "A#2",
          "midi": 46,
          "time": 140.69791666666663,
          "velocity": 0.4409448818897638,
          "duration": 0.19687500000000568
        },
        {
          "name": "D#3",
          "midi": 51,
          "time": 140.71041666666665,
          "velocity": 0.6220472440944882,
          "duration": 0.26666666666667993
        },
        {
          "name": "D#2",
          "midi": 39,
          "time": 140.71041666666665,
          "velocity": 0.4251968503937008,
          "duration": 0.18541666666666856
        },
        {
          "name": "G3",
          "midi": 55,
          "time": 140.75624999999997,
          "velocity": 0.30708661417322836,
          "duration": 0.2906250000000341
        },
        {
          "name": "A#3",
          "midi": 58,
          "time": 140.79166666666663,
          "velocity": 0.3464566929133858,
          "duration": 0.22083333333335986
        },
        {
          "name": "D#3",
          "midi": 51,
          "time": 140.97708333333333,
          "velocity": 0.6062992125984252,
          "duration": 0.16354166666667425
        },
        {
          "name": "D#4",
          "midi": 63,
          "time": 141,
          "velocity": 0.36220472440944884,
          "duration": 0.0822916666666913
        },
        {
          "name": "D#2",
          "midi": 39,
          "time": 141.04791666666668,
          "velocity": 0.3464566929133858,
          "duration": 0.09270833333332007
        },
        {
          "name": "A#2",
          "midi": 46,
          "time": 141.09479166666668,
          "velocity": 0.3937007874015748,
          "duration": 0.09270833333332007
        },
        {
          "name": "D#3",
          "midi": 51,
          "time": 141.140625,
          "velocity": 0.5511811023622047,
          "duration": 0.10416666666665719
        },
        {
          "name": "D#2",
          "midi": 39,
          "time": 141.140625,
          "velocity": 0.2677165354330709,
          "duration": 0.12812499999998295
        },
        {
          "name": "G3",
          "midi": 55,
          "time": 141.24479166666666,
          "velocity": 0.5669291338582677,
          "duration": 0.2666666666666515
        },
        {
          "name": "D#3",
          "midi": 51,
          "time": 141.24479166666666,
          "velocity": 0.47244094488188976,
          "duration": 0.33645833333329733
        },
        {
          "name": "G4",
          "midi": 67,
          "time": 141.25729166666665,
          "velocity": 0.4409448818897638,
          "duration": 0.17395833333333144
        },
        {
          "name": "D#4",
          "midi": 63,
          "time": 141.25729166666665,
          "velocity": 0.41732283464566927,
          "duration": 0.23229166666666856
        },
        {
          "name": "D#2",
          "midi": 39,
          "time": 141.26874999999998,
          "velocity": 0.5118110236220472,
          "duration": 0.20937499999999432
        },
        {
          "name": "F3",
          "midi": 53,
          "time": 141.5708333333333,
          "velocity": 0.3543307086614173,
          "duration": 0.08125000000001137
        },
        {
          "name": "D#3",
          "midi": 51,
          "time": 141.58229166666663,
          "velocity": 0.6141732283464567,
          "duration": 0.11562500000002274
        },
        {
          "name": "D#4",
          "midi": 63,
          "time": 141.6052083333333,
          "velocity": 0.31496062992125984,
          "duration": 0.09270833333334849
        },
        {
          "name": "G#2",
          "midi": 44,
          "time": 141.66354166666665,
          "velocity": 0.28346456692913385,
          "duration": 0.15104166666668561
        },
        {
          "name": "D#3",
          "midi": 51,
          "time": 141.69791666666666,
          "velocity": 0.5275590551181102,
          "duration": 0.27812500000001705
        },
        {
          "name": "D#2",
          "midi": 39,
          "time": 141.709375,
          "velocity": 0.4015748031496063,
          "duration": 0.08125000000001137
        },
        {
          "name": "D#2",
          "midi": 39,
          "time": 141.790625,
          "velocity": 0.5590551181102362,
          "duration": 0.20937500000002274
        },
        {
          "name": "D#3",
          "midi": 51,
          "time": 141.97708333333335,
          "velocity": 0.4881889763779528,
          "duration": 0.2552083333333144
        },
        {
          "name": "D#2",
          "midi": 39,
          "time": 142.00000000000003,
          "velocity": 0.5118110236220472,
          "duration": 0.13958333333332007
        },
        {
          "name": "G4",
          "midi": 67,
          "time": 142.30208333333334,
          "velocity": 0.47244094488188976,
          "duration": 0.17395833333333144
        },
        {
          "name": "G3",
          "midi": 55,
          "time": 142.30208333333334,
          "velocity": 0.6141732283464567,
          "duration": 0.23229166666666856
        },
        {
          "name": "D#2",
          "midi": 39,
          "time": 142.33645833333335,
          "velocity": 0.3937007874015748,
          "duration": 0.10416666666665719
        },
        {
          "name": "D#3",
          "midi": 51,
          "time": 142.49895833333335,
          "velocity": 0.36220472440944884,
          "duration": 0.11562499999999432
        },
        {
          "name": "D#3",
          "midi": 51,
          "time": 142.62708333333333,
          "velocity": 0.7559055118110236,
          "duration": 0.08125000000001137
        },
        {
          "name": "D#3",
          "midi": 51,
          "time": 142.70833333333334,
          "velocity": 0.5433070866141733,
          "duration": 0.3020833333333428
        },
        {
          "name": "D#3",
          "midi": 51,
          "time": 143.01041666666669,
          "velocity": 0.5826771653543307,
          "duration": 0.8260416666666686
        },
        {
          "name": "D#3",
          "midi": 51,
          "time": 143.93958333333336,
          "velocity": 0.41732283464566927,
          "duration": 0.13958333333332007
        },
        {
          "name": "A#2",
          "midi": 46,
          "time": 144.265625,
          "velocity": 0.3937007874015748,
          "duration": 0.08125000000001137
        },
        {
          "name": "G#2",
          "midi": 44,
          "time": 144.265625,
          "velocity": 0.33858267716535434,
          "duration": 0.5229166666666458
        },
        {
          "name": "D#4",
          "midi": 63,
          "time": 144.3,
          "velocity": 0.3858267716535433,
          "duration": 0.19687499999997726
        },
        {
          "name": "G#3",
          "midi": 56,
          "time": 144.3,
          "velocity": 0.3700787401574803,
          "duration": 0.19687499999997726
        },
        {
          "name": "C4",
          "midi": 60,
          "time": 144.3,
          "velocity": 0.33858267716535434,
          "duration": 0.09270833333332007
        },
        {
          "name": "F1",
          "midi": 29,
          "time": 144.32291666666669,
          "velocity": 0.28346456692913385,
          "duration": 0.2093749999999659
        },
        {
          "name": "C4",
          "midi": 60,
          "time": 144.40416666666667,
          "velocity": 0.4251968503937008,
          "duration": 0.13958333333332007
        },
        {
          "name": "C3",
          "midi": 48,
          "time": 144.40416666666667,
          "velocity": 0.4094488188976378,
          "duration": 0.1510416666666572
        },
        {
          "name": "A#2",
          "midi": 46,
          "time": 144.64791666666665,
          "velocity": 0.4094488188976378,
          "duration": 0.23229166666666856
        },
        {
          "name": "G#2",
          "midi": 44,
          "time": 144.78749999999997,
          "velocity": 0.41732283464566927,
          "duration": 0.16250000000002274
        },
        {
          "name": "F2",
          "midi": 41,
          "time": 144.92708333333331,
          "velocity": 0.3228346456692913,
          "duration": 0.09270833333334849
        },
        {
          "name": "G#3",
          "midi": 56,
          "time": 144.95,
          "velocity": 0.3228346456692913,
          "duration": 0.11770833333335418
        },
        {
          "name": "G#2",
          "midi": 44,
          "time": 144.95,
          "velocity": 0.3937007874015748,
          "duration": 0.32604166666666856
        },
        {
          "name": "F2",
          "midi": 41,
          "time": 145.01979166666666,
          "velocity": 0.49606299212598426,
          "duration": 0.09375
        },
        {
          "name": "D#3",
          "midi": 51,
          "time": 145.01979166666666,
          "velocity": 0.3858267716535433,
          "duration": 0.09375
        },
        {
          "name": "G#2",
          "midi": 44,
          "time": 145.27604166666666,
          "velocity": 0.4566929133858268,
          "duration": 0.17395833333335986
        },
        {
          "name": "D#2",
          "midi": 39,
          "time": 145.27604166666666,
          "velocity": 0.33070866141732286,
          "duration": 0.09270833333334849
        },
        {
          "name": "C4",
          "midi": 60,
          "time": 145.32291666666666,
          "velocity": 0.3543307086614173,
          "duration": 0.10416666666668561
        },
        {
          "name": "F1",
          "midi": 29,
          "time": 145.34583333333333,
          "velocity": 0.33858267716535434,
          "duration": 0.10416666666668561
        },
        {
          "name": "C3",
          "midi": 48,
          "time": 145.72916666666669,
          "velocity": 0.36220472440944884,
          "duration": 0.33645833333332575
        },
        {
          "name": "G#2",
          "midi": 44,
          "time": 145.74062500000002,
          "velocity": 0.3543307086614173,
          "duration": 0.24375000000000568
        },
        {
          "name": "G#2",
          "midi": 44,
          "time": 145.99583333333337,
          "velocity": 0.4409448818897638,
          "duration": 0.06979166666664582
        },
        {
          "name": "D#3",
          "midi": 51,
          "time": 146.00833333333335,
          "velocity": 0.41732283464566927,
          "duration": 0.11562499999999432
        },
        {
          "name": "G#2",
          "midi": 44,
          "time": 146.065625,
          "velocity": 0.4015748031496063,
          "duration": 0.06979166666667425
        },
        {
          "name": "C3",
          "midi": 48,
          "time": 146.2635416666667,
          "velocity": 0.33858267716535434,
          "duration": 0.06979166666667425
        },
        {
          "name": "D#2",
          "midi": 39,
          "time": 146.28645833333337,
          "velocity": 0.3858267716535433,
          "duration": 0.13958333333332007
        },
        {
          "name": "F#2",
          "midi": 42,
          "time": 146.64687500000002,
          "velocity": 0.3228346456692913,
          "duration": 0.11562499999999432
        },
        {
          "name": "D#3",
          "midi": 51,
          "time": 147.00625000000002,
          "velocity": 0.44881889763779526,
          "duration": 0.15208333333333712
        },
        {
          "name": "G#1",
          "midi": 32,
          "time": 147.29791666666668,
          "velocity": 0.33070866141732286,
          "duration": 0.06979166666667425
        },
        {
          "name": "G4",
          "midi": 67,
          "time": 147.32083333333335,
          "velocity": 0.3858267716535433,
          "duration": 0.09270833333332007
        },
        {
          "name": "D#3",
          "midi": 51,
          "time": 147.48333333333335,
          "velocity": 0.5905511811023622,
          "duration": 0.24375000000000568
        },
        {
          "name": "G#1",
          "midi": 32,
          "time": 147.50729166666667,
          "velocity": 0.29133858267716534,
          "duration": 0.06979166666667425
        },
        {
          "name": "D#3",
          "midi": 51,
          "time": 147.72708333333335,
          "velocity": 0.3464566929133858,
          "duration": 0.23229166666666856
        },
        {
          "name": "F3",
          "midi": 53,
          "time": 147.8322916666667,
          "velocity": 0.5669291338582677,
          "duration": 0.12812500000001137
        },
        {
          "name": "D#3",
          "midi": 51,
          "time": 147.95937500000002,
          "velocity": 0.41732283464566927,
          "duration": 0.15104166666668561
        },
        {
          "name": "A#2",
          "midi": 46,
          "time": 148.21458333333337,
          "velocity": 0.29133858267716534,
          "duration": 0.10416666666665719
        },
        {
          "name": "D#2",
          "midi": 39,
          "time": 148.22708333333335,
          "velocity": 0.25984251968503935,
          "duration": 0.12812500000001137
        },
        {
          "name": "D#4",
          "midi": 63,
          "time": 148.29687500000003,
          "velocity": 0.3464566929133858,
          "duration": 0.16249999999999432
        },
        {
          "name": "C2",
          "midi": 36,
          "time": 148.33125,
          "velocity": 0.3937007874015748,
          "duration": 0.18541666666666856
        },
        {
          "name": "C3",
          "midi": 48,
          "time": 148.34270833333335,
          "velocity": 0.48031496062992124,
          "duration": 0.22083333333333144
        },
        {
          "name": "D#2",
          "midi": 39,
          "time": 148.35416666666669,
          "velocity": 0.4094488188976378,
          "duration": 0.1510416666666572
        },
        {
          "name": "C4",
          "midi": 60,
          "time": 148.5979166666667,
          "velocity": 0.2677165354330709,
          "duration": 0.15104166666668561
        },
        {
          "name": "A#2",
          "midi": 46,
          "time": 148.7260416666667,
          "velocity": 0.5118110236220472,
          "duration": 0.11562499999999432
        },
        {
          "name": "C4",
          "midi": 60,
          "time": 148.74895833333338,
          "velocity": 0.3700787401574803,
          "duration": 0.12812499999998295
        },
        {
          "name": "D#4",
          "midi": 63,
          "time": 148.8416666666667,
          "velocity": 0.33858267716535434,
          "duration": 0.2802083333333485
        },
        {
          "name": "A#2",
          "midi": 46,
          "time": 148.85416666666669,
          "velocity": 0.3779527559055118,
          "duration": 0.2333333333333485
        },
        {
          "name": "D#2",
          "midi": 39,
          "time": 148.8885416666667,
          "velocity": 0.33070866141732286,
          "duration": 0.11770833333332575
        },
        {
          "name": "F2",
          "midi": 41,
          "time": 148.90000000000003,
          "velocity": 0.2992125984251969,
          "duration": 0.11770833333332575
        },
        {
          "name": "D#3",
          "midi": 51,
          "time": 148.99375000000003,
          "velocity": 0.4015748031496063,
          "duration": 0.16249999999999432
        },
        {
          "name": "D#2",
          "midi": 39,
          "time": 149.00625000000002,
          "velocity": 0.36220472440944884,
          "duration": 0.12812500000001137
        },
        {
          "name": "F2",
          "midi": 41,
          "time": 149.01770833333336,
          "velocity": 0.41732283464566927,
          "duration": 0.09270833333334849
        },
        {
          "name": "D#2",
          "midi": 39,
          "time": 149.26145833333337,
          "velocity": 0.4015748031496063,
          "duration": 0.1395833333333485
        },
        {
          "name": "C4",
          "midi": 60,
          "time": 149.33125000000004,
          "velocity": 0.3779527559055118,
          "duration": 0.16249999999999432
        },
        {
          "name": "G3",
          "midi": 55,
          "time": 149.7260416666667,
          "velocity": 0.4015748031496063,
          "duration": 0.3718750000000455
        },
        {
          "name": "A#2",
          "midi": 46,
          "time": 149.73750000000004,
          "velocity": 0.3464566929133858,
          "duration": 0.10416666666668561
        },
        {
          "name": "G2",
          "midi": 43,
          "time": 149.73750000000004,
          "velocity": 0.3228346456692913,
          "duration": 0.08125000000001137
        },
        {
          "name": "D#2",
          "midi": 39,
          "time": 149.77187500000005,
          "velocity": 0.48031496062992124,
          "duration": 0.18541666666666856
        },
        {
          "name": "D#2",
          "midi": 39,
          "time": 149.9583333333334,
          "velocity": 0.4645669291338583,
          "duration": 0.08125000000001137
        },
        {
          "name": "D#2",
          "midi": 39,
          "time": 150.0395833333334,
          "velocity": 0.4409448818897638,
          "duration": 0.08125000000001137
        },
        {
          "name": "D#3",
          "midi": 51,
          "time": 150.0395833333334,
          "velocity": 0.3228346456692913,
          "duration": 0.08125000000001137
        },
        {
          "name": "D#2",
          "midi": 39,
          "time": 150.24791666666675,
          "velocity": 0.5039370078740157,
          "duration": 0.17395833333333144
        },
        {
          "name": "D#3",
          "midi": 51,
          "time": 150.46875000000009,
          "velocity": 0.31496062992125984,
          "duration": 0.12812500000001137
        },
        {
          "name": "D#3",
          "midi": 51,
          "time": 150.5968750000001,
          "velocity": 0.4251968503937008,
          "duration": 0.20937499999999432
        },
        {
          "name": "D#2",
          "midi": 39,
          "time": 150.60833333333343,
          "velocity": 0.2677165354330709,
          "duration": 0.1510416666666572
        },
        {
          "name": "C3",
          "midi": 48,
          "time": 150.72395833333343,
          "velocity": 0.36220472440944884,
          "duration": 0.09270833333332007
        },
        {
          "name": "D#2",
          "midi": 39,
          "time": 150.7593750000001,
          "velocity": 0.48031496062992124,
          "duration": 0.16249999999999432
        },
        {
          "name": "D#3",
          "midi": 51,
          "time": 150.88645833333342,
          "velocity": 0.2755905511811024,
          "duration": 0.08124999999998295
        },
        {
          "name": "D#3",
          "midi": 51,
          "time": 150.9677083333334,
          "velocity": 0.6614173228346457,
          "duration": 0.140625
        },
        {
          "name": "D#2",
          "midi": 39,
          "time": 150.9927083333334,
          "velocity": 0.3543307086614173,
          "duration": 0.06979166666667425
        },
        {
          "name": "D#2",
          "midi": 39,
          "time": 151.06250000000009,
          "velocity": 0.3543307086614173,
          "duration": 0.4760416666666458
        },
        {
          "name": "D#3",
          "midi": 51,
          "time": 151.1083333333334,
          "velocity": 0.49606299212598426,
          "duration": 0.09270833333332007
        },
        {
          "name": "D#5",
          "midi": 75,
          "time": 151.46875000000006,
          "velocity": 0.30708661417322836,
          "duration": 0.12812500000001137
        },
        {
          "name": "D#3",
          "midi": 51,
          "time": 151.4802083333334,
          "velocity": 0.5826771653543307,
          "duration": 0.20937500000002274
        },
        {
          "name": "D#2",
          "midi": 39,
          "time": 151.53854166666673,
          "velocity": 0.41732283464566927,
          "duration": 0.08125000000001137
        },
        {
          "name": "D2",
          "midi": 38,
          "time": 151.61979166666674,
          "velocity": 0.25984251968503935,
          "duration": 0.12812500000001137
        },
        {
          "name": "D#2",
          "midi": 39,
          "time": 151.79375000000007,
          "velocity": 0.3937007874015748,
          "duration": 0.11562500000002274
        },
        {
          "name": "F4",
          "midi": 65,
          "time": 151.82812500000009,
          "velocity": 0.3464566929133858,
          "duration": 0.08125000000001137
        },
        {
          "name": "B2",
          "midi": 47,
          "time": 152.23437500000009,
          "velocity": 0.4330708661417323,
          "duration": 0.11562499999999432
        },
        {
          "name": "G#3",
          "midi": 56,
          "time": 152.28125000000009,
          "velocity": 0.3228346456692913,
          "duration": 0.09270833333334849
        },
        {
          "name": "C4",
          "midi": 60,
          "time": 152.35104166666676,
          "velocity": 0.29133858267716534,
          "duration": 0.08125000000001137
        },
        {
          "name": "C3",
          "midi": 48,
          "time": 152.35104166666676,
          "velocity": 0.5275590551181102,
          "duration": 0.24375000000000568
        },
        {
          "name": "F1",
          "midi": 29,
          "time": 152.38541666666677,
          "velocity": 0.36220472440944884,
          "duration": 0.13958333333332007
        },
        {
          "name": "G#2",
          "midi": 44,
          "time": 152.96770833333343,
          "velocity": 0.3858267716535433,
          "duration": 0.17395833333330302
        },
        {
          "name": "F2",
          "midi": 41,
          "time": 153.01354166666675,
          "velocity": 0.44881889763779526,
          "duration": 0.11562499999999432
        },
        {
          "name": "C3",
          "midi": 48,
          "time": 153.26979166666675,
          "velocity": 0.33858267716535434,
          "duration": 0.09270833333332007
        },
        {
          "name": "F3",
          "midi": 53,
          "time": 153.55937500000007,
          "velocity": 0.30708661417322836,
          "duration": 0.08125000000001137
        },
        {
          "name": "C3",
          "midi": 48,
          "time": 153.7333333333334,
          "velocity": 0.3464566929133858,
          "duration": 0.08125000000001137
        },
        {
          "name": "G#2",
          "midi": 44,
          "time": 153.74479166666674,
          "velocity": 0.3937007874015748,
          "duration": 0.09270833333334849
        },
        {
          "name": "C3",
          "midi": 48,
          "time": 153.9656250000001,
          "velocity": 0.3700787401574803,
          "duration": 0.12812499999998295
        },
        {
          "name": "G#2",
          "midi": 44,
          "time": 153.98958333333343,
          "velocity": 0.3700787401574803,
          "duration": 0.10416666666665719
        },
        {
          "name": "C3",
          "midi": 48,
          "time": 154.27916666666675,
          "velocity": 0.4330708661417323,
          "duration": 0.11562499999999432
        },
        {
          "name": "D#3",
          "midi": 51,
          "time": 154.48854166666675,
          "velocity": 0.5748031496062992,
          "duration": 0.11562499999999432
        },
        {
          "name": "D#3",
          "midi": 51,
          "time": 154.60416666666674,
          "velocity": 0.30708661417322836,
          "duration": 0.3479166666666629
        },
        {
          "name": "C3",
          "midi": 48,
          "time": 154.77812500000007,
          "velocity": 0.3543307086614173,
          "duration": 0.06979166666667425
        },
        {
          "name": "D#4",
          "midi": 63,
          "time": 154.95312500000009,
          "velocity": 0.2204724409448819,
          "duration": 0.140625
        },
        {
          "name": "D#3",
          "midi": 51,
          "time": 154.95312500000009,
          "velocity": 0.5354330708661418,
          "duration": 0.21041666666667425
        },
        {
          "name": "F#2",
          "midi": 42,
          "time": 155.23229166666675,
          "velocity": 0.31496062992125984,
          "duration": 0.10416666666665719
        },
        {
          "name": "D#3",
          "midi": 51,
          "time": 155.45312500000009,
          "velocity": 0.5748031496062992,
          "duration": 0.2552083333333144
        },
        {
          "name": "D2",
          "midi": 38,
          "time": 155.61562500000008,
          "velocity": 0.31496062992125984,
          "duration": 0.09270833333332007
        },
        {
          "name": "D#3",
          "midi": 51,
          "time": 155.7083333333334,
          "velocity": 0.3937007874015748,
          "duration": 0.09270833333332007
        },
        {
          "name": "F3",
          "midi": 53,
          "time": 155.8135416666667,
          "velocity": 0.5984251968503937,
          "duration": 0.1395833333333485
        },
        {
          "name": "D#3",
          "midi": 51,
          "time": 155.95208333333338,
          "velocity": 0.49606299212598426,
          "duration": 0.10416666666668561
        },
        {
          "name": "G3",
          "midi": 55,
          "time": 156.25416666666672,
          "velocity": 0.5118110236220472,
          "duration": 0.08125000000001137
        },
        {
          "name": "D#4",
          "midi": 63,
          "time": 156.2770833333334,
          "velocity": 0.33858267716535434,
          "duration": 0.36041666666667993
        },
        {
          "name": "D#2",
          "midi": 39,
          "time": 156.30104166666672,
          "velocity": 0.4645669291338583,
          "duration": 0.15104166666668561
        },
        {
          "name": "G3",
          "midi": 55,
          "time": 156.34687500000007,
          "velocity": 0.5748031496062992,
          "duration": 0.27812499999998863
        },
        {
          "name": "D#3",
          "midi": 51,
          "time": 156.3583333333334,
          "velocity": 0.4409448818897638,
          "duration": 0.37187499999998863
        },
        {
          "name": "D#2",
          "midi": 39,
          "time": 156.4520833333334,
          "velocity": 0.4566929133858268,
          "duration": 0.16249999999999432
        },
        {
          "name": "A#2",
          "midi": 46,
          "time": 156.4520833333334,
          "velocity": 0.2677165354330709,
          "duration": 0.17395833333333144
        },
        {
          "name": "D#2",
          "midi": 39,
          "time": 156.6145833333334,
          "velocity": 0.3464566929133858,
          "duration": 0.1510416666666572
        },
        {
          "name": "D#3",
          "midi": 51,
          "time": 156.74166666666673,
          "velocity": 0.5433070866141733,
          "duration": 0.12812499999998295
        },
        {
          "name": "A#2",
          "midi": 46,
          "time": 156.74166666666673,
          "velocity": 0.2677165354330709,
          "duration": 0.08124999999998295
        },
        {
          "name": "D#2",
          "midi": 39,
          "time": 156.76562500000006,
          "velocity": 0.4015748031496063,
          "duration": 0.2802083333333769
        },
        {
          "name": "G2",
          "midi": 43,
          "time": 156.81145833333338,
          "velocity": 0.30708661417322836,
          "duration": 0.09270833333334849
        },
        {
          "name": "A#2",
          "midi": 46,
          "time": 156.8229166666667,
          "velocity": 0.3700787401574803,
          "duration": 0.19895833333336554
        },
        {
          "name": "F3",
          "midi": 53,
          "time": 156.83437500000005,
          "velocity": 0.5196850393700787,
          "duration": 0.3375000000000341
        },
        {
          "name": "F2",
          "midi": 41,
          "time": 156.85833333333338,
          "velocity": 0.3464566929133858,
          "duration": 0.0822916666666913
        },
        {
          "name": "G2",
          "midi": 43,
          "time": 156.90416666666673,
          "velocity": 0.33858267716535434,
          "duration": 0.11770833333335418
        },
        {
          "name": "F2",
          "midi": 41,
          "time": 156.94062500000007,
          "velocity": 0.47244094488188976,
          "duration": 0.17395833333335986
        },
        {
          "name": "F1",
          "midi": 29,
          "time": 156.97500000000008,
          "velocity": 0.31496062992125984,
          "duration": 0.08125000000001137
        },
        {
          "name": "C5",
          "midi": 72,
          "time": 157.02187500000008,
          "velocity": 0.33858267716535434,
          "duration": 0.08125000000001137
        },
        {
          "name": "D#2",
          "midi": 39,
          "time": 157.04479166666675,
          "velocity": 0.2992125984251969,
          "duration": 0.22083333333333144
        },
        {
          "name": "D#3",
          "midi": 51,
          "time": 157.06875000000008,
          "velocity": 0.4409448818897638,
          "duration": 0.16249999999999432
        },
        {
          "name": "D#3",
          "midi": 51,
          "time": 157.23125000000007,
          "velocity": 0.5275590551181102,
          "duration": 0.3479166666666629
        },
        {
          "name": "D#2",
          "midi": 39,
          "time": 157.26562500000009,
          "velocity": 0.5354330708661418,
          "duration": 0.22083333333333144
        },
        {
          "name": "D#3",
          "midi": 51,
          "time": 157.57916666666674,
          "velocity": 0.44881889763779526,
          "duration": 0.12812500000001137
        },
        {
          "name": "D#4",
          "midi": 63,
          "time": 157.74166666666676,
          "velocity": 0.33858267716535434,
          "duration": 0.06979166666667425
        },
        {
          "name": "C3",
          "midi": 48,
          "time": 157.7531250000001,
          "velocity": 0.3700787401574803,
          "duration": 0.09270833333334849
        },
        {
          "name": "D#2",
          "midi": 39,
          "time": 157.76458333333343,
          "velocity": 0.47244094488188976,
          "duration": 0.17395833333333144
        },
        {
          "name": "F1",
          "midi": 29,
          "time": 157.77604166666677,
          "velocity": 0.3543307086614173,
          "duration": 0.27812499999998863
        },
        {
          "name": "D#2",
          "midi": 39,
          "time": 157.95104166666675,
          "velocity": 0.5039370078740157,
          "duration": 0.19687500000000568
        },
        {
          "name": "D#3",
          "midi": 51,
          "time": 158.22916666666677,
          "velocity": 0.4645669291338583,
          "duration": 0.11562499999999432
        },
        {
          "name": "D#2",
          "midi": 39,
          "time": 158.2406250000001,
          "velocity": 0.47244094488188976,
          "duration": 0.20937499999999432
        },
        {
          "name": "G#3",
          "midi": 56,
          "time": 158.51979166666678,
          "velocity": 0.5511811023622047,
          "duration": 0.18541666666661172
        },
        {
          "name": "G#2",
          "midi": 44,
          "time": 158.5656250000001,
          "velocity": 0.3543307086614173,
          "duration": 0.06979166666664582
        },
        {
          "name": "C5",
          "midi": 72,
          "time": 158.57812500000009,
          "velocity": 0.3228346456692913,
          "duration": 0.06979166666664582
        },
        {
          "name": "G#2",
          "midi": 44,
          "time": 158.7864583333334,
          "velocity": 0.3858267716535433,
          "duration": 0.08125000000001137
        },
        {
          "name": "D#3",
          "midi": 51,
          "time": 158.79791666666674,
          "velocity": 0.4251968503937008,
          "duration": 0.16354166666667425
        },
        {
          "name": "D#2",
          "midi": 39,
          "time": 158.79791666666674,
          "velocity": 0.3858267716535433,
          "duration": 0.21041666666667425
        },
        {
          "name": "D#4",
          "midi": 63,
          "time": 158.95000000000007,
          "velocity": 0.25984251968503935,
          "duration": 0.22083333333333144
        },
        {
          "name": "D#3",
          "midi": 51,
          "time": 158.9625000000001,
          "velocity": 0.4409448818897638,
          "duration": 0.49895833333329165
        },
        {
          "name": "D#2",
          "midi": 39,
          "time": 159.0083333333334,
          "velocity": 0.3700787401574803,
          "duration": 0.3020833333333144
        },
        {
          "name": "D#2",
          "midi": 39,
          "time": 159.31041666666673,
          "velocity": 0.36220472440944884,
          "duration": 0.3020833333333144
        },
        {
          "name": "D#3",
          "midi": 51,
          "time": 159.46145833333338,
          "velocity": 0.5669291338582677,
          "duration": 0.23229166666666856
        },
        {
          "name": "F3",
          "midi": 53,
          "time": 159.83229166666672,
          "velocity": 0.49606299212598426,
          "duration": 0.10416666666665719
        },
        {
          "name": "D#2",
          "midi": 39,
          "time": 159.89062500000006,
          "velocity": 0.36220472440944884,
          "duration": 0.10416666666665719
        },
        {
          "name": "D#3",
          "midi": 51,
          "time": 159.9604166666667,
          "velocity": 0.5118110236220472,
          "duration": 0.12812500000001137
        },
        {
          "name": "D#2",
          "midi": 39,
          "time": 159.9958333333334,
          "velocity": 0.36220472440944884,
          "duration": 0.09270833333332007
        },
        {
          "name": "A#2",
          "midi": 46,
          "time": 160.22708333333338,
          "velocity": 0.3228346456692913,
          "duration": 0.06979166666667425
        },
        {
          "name": "G#2",
          "midi": 44,
          "time": 160.28541666666672,
          "velocity": 0.30708661417322836,
          "duration": 0.18541666666669698
        },
        {
          "name": "C4",
          "midi": 60,
          "time": 160.3552083333334,
          "velocity": 0.36220472440944884,
          "duration": 0.11562500000002274
        },
        {
          "name": "G#3",
          "midi": 56,
          "time": 160.3552083333334,
          "velocity": 0.3858267716535433,
          "duration": 0.23229166666669698
        },
        {
          "name": "C3",
          "midi": 48,
          "time": 160.36666666666673,
          "velocity": 0.44881889763779526,
          "duration": 0.17395833333335986
        },
        {
          "name": "F1",
          "midi": 29,
          "time": 160.44791666666674,
          "velocity": 0.31496062992125984,
          "duration": 0.12812500000001137
        },
        {
          "name": "G#2",
          "midi": 44,
          "time": 160.47083333333342,
          "velocity": 0.4566929133858268,
          "duration": 0.11562499999999432
        },
        {
          "name": "G#2",
          "midi": 44,
          "time": 160.5875000000001,
          "velocity": 0.4566929133858268,
          "duration": 0.20937499999999432
        },
        {
          "name": "G#3",
          "midi": 56,
          "time": 160.73854166666675,
          "velocity": 0.33070866141732286,
          "duration": 0.30312500000002274
        },
        {
          "name": "G#2",
          "midi": 44,
          "time": 160.79687500000009,
          "velocity": 0.44881889763779526,
          "duration": 0.17500000000001137
        },
        {
          "name": "F1",
          "midi": 29,
          "time": 160.79687500000009,
          "velocity": 0.33070866141732286,
          "duration": 0.06979166666667425
        },
        {
          "name": "F2",
          "midi": 41,
          "time": 160.9250000000001,
          "velocity": 0.3464566929133858,
          "duration": 0.09270833333332007
        },
        {
          "name": "D#3",
          "midi": 51,
          "time": 160.96041666666676,
          "velocity": 0.3543307086614173,
          "duration": 0.1395833333333485
        },
        {
          "name": "G#2",
          "midi": 44,
          "time": 160.9718750000001,
          "velocity": 0.5669291338582677,
          "duration": 0.1395833333333485
        },
        {
          "name": "F2",
          "midi": 41,
          "time": 161.0187500000001,
          "velocity": 0.48031496062992124,
          "duration": 0.11562500000002274
        },
        {
          "name": "G#2",
          "midi": 44,
          "time": 161.11145833333345,
          "velocity": 0.31496062992125984,
          "duration": 0.17395833333333144
        },
        {
          "name": "G#2",
          "midi": 44,
          "time": 161.28541666666678,
          "velocity": 0.47244094488188976,
          "duration": 0.19687500000000568
        },
        {
          "name": "C5",
          "midi": 72,
          "time": 161.3312500000001,
          "velocity": 0.3228346456692913,
          "duration": 0.06979166666667425
        },
        {
          "name": "F1",
          "midi": 29,
          "time": 161.3781250000001,
          "velocity": 0.31496062992125984,
          "duration": 0.06979166666667425
        },
        {
          "name": "G#3",
          "midi": 56,
          "time": 161.3781250000001,
          "velocity": 0.3228346456692913,
          "duration": 0.06979166666667425
        },
        {
          "name": "F3",
          "midi": 53,
          "time": 161.5635416666668,
          "velocity": 0.3464566929133858,
          "duration": 0.10416666666665719
        },
        {
          "name": "G#2",
          "midi": 44,
          "time": 161.76145833333345,
          "velocity": 0.4094488188976378,
          "duration": 0.19687499999997726
        },
        {
          "name": "D#4",
          "midi": 63,
          "time": 161.80729166666677,
          "velocity": 0.3543307086614173,
          "duration": 0.09270833333332007
        },
        {
          "name": "G#2",
          "midi": 44,
          "time": 161.95833333333343,
          "velocity": 0.4094488188976378,
          "duration": 0.17395833333333144
        },
        {
          "name": "F2",
          "midi": 41,
          "time": 162.28333333333342,
          "velocity": 0.3228346456692913,
          "duration": 0.08125000000001137
        },
        {
          "name": "G#1",
          "midi": 32,
          "time": 162.34166666666675,
          "velocity": 0.36220472440944884,
          "duration": 0.08125000000001137
        },
        {
          "name": "G#3",
          "midi": 56,
          "time": 162.36458333333343,
          "velocity": 0.4251968503937008,
          "duration": 0.19687500000000568
        },
        {
          "name": "C4",
          "midi": 60,
          "time": 162.38854166666675,
          "velocity": 0.3779527559055118,
          "duration": 0.10416666666668561
        },
        {
          "name": "G#2",
          "midi": 44,
          "time": 162.50416666666678,
          "velocity": 0.33070866141732286,
          "duration": 0.3947916666666629
        },
        {
          "name": "C3",
          "midi": 48,
          "time": 162.74791666666675,
          "velocity": 0.3779527559055118,
          "duration": 0.09270833333334849
        },
        {
          "name": "G#3",
          "midi": 56,
          "time": 162.7593750000001,
          "velocity": 0.4251968503937008,
          "duration": 0.10416666666668561
        },
        {
          "name": "C5",
          "midi": 72,
          "time": 162.8062500000001,
          "velocity": 0.44881889763779526,
          "duration": 0.10625000000001705
        },
        {
          "name": "C5",
          "midi": 72,
          "time": 162.94687500000012,
          "velocity": 0.3700787401574803,
          "duration": 0.15104166666668561
        },
        {
          "name": "C4",
          "midi": 60,
          "time": 162.94687500000012,
          "velocity": 0.28346456692913385,
          "duration": 0.06979166666667425
        },
        {
          "name": "G#2",
          "midi": 44,
          "time": 162.94687500000012,
          "velocity": 0.3858267716535433,
          "duration": 0.17395833333335986
        },
        {
          "name": "C3",
          "midi": 48,
          "time": 163.16770833333348,
          "velocity": 0.29133858267716534,
          "duration": 0.20937499999999432
        },
        {
          "name": "F2",
          "midi": 41,
          "time": 163.30625000000015,
          "velocity": 0.36220472440944884,
          "duration": 0.2552083333333144
        },
        {
          "name": "G#2",
          "midi": 44,
          "time": 163.49270833333347,
          "velocity": 0.4645669291338583,
          "duration": 0.09270833333332007
        },
        {
          "name": "G#2",
          "midi": 44,
          "time": 163.59687500000013,
          "velocity": 0.33070866141732286,
          "duration": 0.3020833333333428
        },
        {
          "name": "C5",
          "midi": 72,
          "time": 163.7135416666668,
          "velocity": 0.3464566929133858,
          "duration": 0.12812500000001137
        },
        {
          "name": "C3",
          "midi": 48,
          "time": 163.7135416666668,
          "velocity": 0.3700787401574803,
          "duration": 0.10416666666668561
        },
        {
          "name": "G#1",
          "midi": 32,
          "time": 163.7479166666668,
          "velocity": 0.3858267716535433,
          "duration": 0.19687499999997726
        },
        {
          "name": "F4",
          "midi": 65,
          "time": 163.77083333333348,
          "velocity": 0.3937007874015748,
          "duration": 0.17395833333330302
        },
        {
          "name": "C#2",
          "midi": 37,
          "time": 163.7947916666668,
          "velocity": 0.4094488188976378,
          "duration": 0.1624999999999659
        },
        {
          "name": "F2",
          "midi": 41,
          "time": 163.80625000000015,
          "velocity": 0.31496062992125984,
          "duration": 0.23229166666661172
        },
        {
          "name": "C5",
          "midi": 72,
          "time": 163.85208333333347,
          "velocity": 0.41732283464566927,
          "duration": 0.1156249999999659
        },
        {
          "name": "F4",
          "midi": 65,
          "time": 163.95729166666678,
          "velocity": 0.30708661417322836,
          "duration": 0.11562499999999432
        },
        {
          "name": "G#2",
          "midi": 44,
          "time": 164.01458333333343,
          "velocity": 0.2992125984251969,
          "duration": 0.06979166666667425
        },
        {
          "name": "D#2",
          "midi": 39,
          "time": 164.23541666666677,
          "velocity": 0.31496062992125984,
          "duration": 0.08125000000001137
        },
        {
          "name": "G#2",
          "midi": 44,
          "time": 164.31666666666678,
          "velocity": 0.29133858267716534,
          "duration": 0.22083333333335986
        },
        {
          "name": "D#2",
          "midi": 39,
          "time": 164.31666666666678,
          "velocity": 0.33858267716535434,
          "duration": 0.22083333333335986
        },
        {
          "name": "D#4",
          "midi": 63,
          "time": 164.33958333333345,
          "velocity": 0.3700787401574803,
          "duration": 0.17395833333335986
        },
        {
          "name": "C2",
          "midi": 36,
          "time": 164.33958333333345,
          "velocity": 0.33858267716535434,
          "duration": 0.1395833333333485
        },
        {
          "name": "A#3",
          "midi": 58,
          "time": 164.45625000000013,
          "velocity": 0.3228346456692913,
          "duration": 0.15104166666668561
        },
        {
          "name": "D#3",
          "midi": 51,
          "time": 164.73437500000014,
          "velocity": 0.3779527559055118,
          "duration": 0.08124999999998295
        },
        {
          "name": "D#5",
          "midi": 75,
          "time": 164.75833333333347,
          "velocity": 0.3858267716535433,
          "duration": 0.09270833333332007
        },
        {
          "name": "D#2",
          "midi": 39,
          "time": 164.7697916666668,
          "velocity": 0.2992125984251969,
          "duration": 0.2562499999999659
        },
        {
          "name": "D#4",
          "midi": 63,
          "time": 164.8281250000001,
          "velocity": 0.29133858267716534,
          "duration": 0.1875
        },
        {
          "name": "A#2",
          "midi": 46,
          "time": 164.98020833333345,
          "velocity": 0.36220472440944884,
          "duration": 0.06979166666664582
        },
        {
          "name": "G#2",
          "midi": 44,
          "time": 164.9916666666668,
          "velocity": 0.33070866141732286,
          "duration": 0.12812499999995453
        },
        {
          "name": "F2",
          "midi": 41,
          "time": 165.02604166666677,
          "velocity": 0.41732283464566927,
          "duration": 0.08124999999998295
        },
        {
          "name": "D#2",
          "midi": 39,
          "time": 165.02604166666677,
          "velocity": 0.33858267716535434,
          "duration": 0.08124999999998295
        },
        {
          "name": "D#2",
          "midi": 39,
          "time": 165.24687500000007,
          "velocity": 0.4094488188976378,
          "duration": 0.23229166666666856
        },
        {
          "name": "C4",
          "midi": 60,
          "time": 165.37500000000009,
          "velocity": 0.36220472440944884,
          "duration": 0.12812499999998295
        },
        {
          "name": "G#2",
          "midi": 44,
          "time": 165.68854166666674,
          "velocity": 0.28346456692913385,
          "duration": 0.16249999999999432
        },
        {
          "name": "G#4",
          "midi": 68,
          "time": 165.7458333333334,
          "velocity": 0.36220472440944884,
          "duration": 0.18541666666669698
        },
        {
          "name": "D#2",
          "midi": 39,
          "time": 165.78125000000006,
          "velocity": 0.4409448818897638,
          "duration": 0.15104166666671404
        },
        {
          "name": "D#5",
          "midi": 75,
          "time": 165.7927083333334,
          "velocity": 0.4094488188976378,
          "duration": 0.09270833333334849
        },
        {
          "name": "F#1",
          "midi": 30,
          "time": 165.89687500000008,
          "velocity": 0.3779527559055118,
          "duration": 0.16250000000002274
        },
        {
          "name": "D#2",
          "midi": 39,
          "time": 165.93229166666677,
          "velocity": 0.4015748031496063,
          "duration": 0.19687500000000568
        },
        {
          "name": "G#2",
          "midi": 44,
          "time": 166.01354166666678,
          "velocity": 0.3228346456692913,
          "duration": 0.29062499999997726
        },
        {
          "name": "C4",
          "midi": 60,
          "time": 166.2218750000001,
          "velocity": 0.3228346456692913,
          "duration": 0.23229166666664014
        },
        {
          "name": "G#1",
          "midi": 32,
          "time": 166.24583333333342,
          "velocity": 0.3228346456692913,
          "duration": 0.12812499999998295
        },
        {
          "name": "F2",
          "midi": 41,
          "time": 166.28020833333343,
          "velocity": 0.3700787401574803,
          "duration": 0.22083333333330302
        },
        {
          "name": "G#2",
          "midi": 44,
          "time": 166.31458333333342,
          "velocity": 0.41732283464566927,
          "duration": 0.29062499999997726
        },
        {
          "name": "C4",
          "midi": 60,
          "time": 166.46562500000007,
          "velocity": 0.3228346456692913,
          "duration": 0.39479166666663446
        },
        {
          "name": "F2",
          "midi": 41,
          "time": 166.51250000000007,
          "velocity": 0.3779527559055118,
          "duration": 0.10416666666665719
        },
        {
          "name": "G#2",
          "midi": 44,
          "time": 166.6052083333334,
          "velocity": 0.29133858267716534,
          "duration": 0.1510416666666572
        },
        {
          "name": "G#2",
          "midi": 44,
          "time": 166.75625000000005,
          "velocity": 0.3858267716535433,
          "duration": 0.6052083333333371
        },
        {
          "name": "D#2",
          "midi": 39,
          "time": 166.77916666666673,
          "velocity": 0.3779527559055118,
          "duration": 0.09374999999997158
        },
        {
          "name": "F2",
          "midi": 41,
          "time": 166.8145833333334,
          "velocity": 0.3228346456692913,
          "duration": 0.2562499999999943
        },
        {
          "name": "C4",
          "midi": 60,
          "time": 166.8604166666667,
          "velocity": 0.3858267716535433,
          "duration": 0.07083333333332575
        },
        {
          "name": "C4",
          "midi": 60,
          "time": 166.93125000000003,
          "velocity": 0.3543307086614173,
          "duration": 0.12812500000001137
        },
        {
          "name": "D#2",
          "midi": 39,
          "time": 167.28020833333338,
          "velocity": 0.3700787401574803,
          "duration": 0.12812500000001137
        },
        {
          "name": "F2",
          "midi": 41,
          "time": 167.48854166666672,
          "velocity": 0.3228346456692913,
          "duration": 0.06979166666667425
        },
        {
          "name": "G#3",
          "midi": 56,
          "time": 168.2552083333334,
          "velocity": 0.3464566929133858,
          "duration": 0.26666666666667993
        },
        {
          "name": "G#2",
          "midi": 44,
          "time": 168.27812500000007,
          "velocity": 0.30708661417322836,
          "duration": 0.17395833333333144
        },
        {
          "name": "F1",
          "midi": 29,
          "time": 168.34791666666675,
          "velocity": 0.33070866141732286,
          "duration": 0.12812499999998295
        },
        {
          "name": "C4",
          "midi": 60,
          "time": 168.39479166666675,
          "velocity": 0.33070866141732286,
          "duration": 0.09270833333332007
        },
        {
          "name": "G#2",
          "midi": 44,
          "time": 168.4520833333334,
          "velocity": 0.33070866141732286,
          "duration": 0.32500000000001705
        },
        {
          "name": "G#2",
          "midi": 44,
          "time": 168.77708333333342,
          "velocity": 0.3700787401574803,
          "duration": 0.21041666666664582
        },
        {
          "name": "G#3",
          "midi": 56,
          "time": 168.80104166666675,
          "velocity": 0.33858267716535434,
          "duration": 0.32604166666664014
        },
        {
          "name": "G#2",
          "midi": 44,
          "time": 168.98750000000007,
          "velocity": 0.49606299212598426,
          "duration": 0.17395833333333144
        },
        {
          "name": "F2",
          "midi": 41,
          "time": 169.02291666666673,
          "velocity": 0.4251968503937008,
          "duration": 0.11562499999999432
        },
        {
          "name": "G5",
          "midi": 79,
          "time": 169.24375000000006,
          "velocity": 0.33858267716535434,
          "duration": 0.11562499999999432
        },
        {
          "name": "G#2",
          "midi": 44,
          "time": 169.28958333333338,
          "velocity": 0.3228346456692913,
          "duration": 0.11562499999999432
        },
        {
          "name": "F3",
          "midi": 53,
          "time": 169.60312500000003,
          "velocity": 0.3779527559055118,
          "duration": 0.08125000000001137
        },
        {
          "name": "C3",
          "midi": 48,
          "time": 169.97500000000005,
          "velocity": 0.3464566929133858,
          "duration": 0.06979166666667425
        },
        {
          "name": "F5",
          "midi": 77,
          "time": 170.21875000000006,
          "velocity": 0.4015748031496063,
          "duration": 0.06979166666667425
        },
        {
          "name": "C3",
          "midi": 48,
          "time": 170.24166666666673,
          "velocity": 0.33858267716535434,
          "duration": 0.08125000000001137
        },
        {
          "name": "F2",
          "midi": 41,
          "time": 170.28854166666673,
          "velocity": 0.4094488188976378,
          "duration": 0.33645833333332575
        },
        {
          "name": "C4",
          "midi": 60,
          "time": 170.36979166666674,
          "velocity": 0.3543307086614173,
          "duration": 0.10416666666665719
        },
        {
          "name": "G#3",
          "midi": 56,
          "time": 170.41562500000006,
          "velocity": 0.33070866141732286,
          "duration": 0.06979166666667425
        },
        {
          "name": "C4",
          "midi": 60,
          "time": 170.6364583333334,
          "velocity": 0.3228346456692913,
          "duration": 0.16250000000002274
        },
        {
          "name": "G#2",
          "midi": 44,
          "time": 170.7645833333334,
          "velocity": 0.3464566929133858,
          "duration": 0.06979166666667425
        },
        {
          "name": "C4",
          "midi": 60,
          "time": 170.9625000000001,
          "velocity": 0.29133858267716534,
          "duration": 0.08125000000001137
        },
        {
          "name": "G#3",
          "midi": 56,
          "time": 170.9625000000001,
          "velocity": 0.3464566929133858,
          "duration": 0.08125000000001137
        },
        {
          "name": "F2",
          "midi": 41,
          "time": 171.0093750000001,
          "velocity": 0.3464566929133858,
          "duration": 0.08125000000001137
        },
        {
          "name": "G#1",
          "midi": 32,
          "time": 171.2531250000001,
          "velocity": 0.4015748031496063,
          "duration": 0.13958333333332007
        },
        {
          "name": "F2",
          "midi": 41,
          "time": 171.26458333333343,
          "velocity": 0.4251968503937008,
          "duration": 0.3479166666666913
        },
        {
          "name": "C3",
          "midi": 48,
          "time": 171.3000000000001,
          "velocity": 0.3779527559055118,
          "duration": 0.08124999999998295
        },
        {
          "name": "C#2",
          "midi": 37,
          "time": 171.34583333333342,
          "velocity": 0.29133858267716534,
          "duration": 0.08125000000001137
        },
        {
          "name": "C#2",
          "midi": 37,
          "time": 171.43854166666677,
          "velocity": 0.36220472440944884,
          "duration": 0.1395833333333485
        },
        {
          "name": "G#2",
          "midi": 44,
          "time": 171.51979166666678,
          "velocity": 0.30708661417322836,
          "duration": 0.09270833333334849
        },
        {
          "name": "C3",
          "midi": 48,
          "time": 171.7291666666668,
          "velocity": 0.3700787401574803,
          "duration": 0.10416666666668561
        },
        {
          "name": "G#1",
          "midi": 32,
          "time": 171.74062500000014,
          "velocity": 0.4015748031496063,
          "duration": 0.1968750000000341
        },
        {
          "name": "C#2",
          "midi": 37,
          "time": 171.78750000000014,
          "velocity": 0.36220472440944884,
          "duration": 0.2437500000000341
        },
        {
          "name": "C5",
          "midi": 72,
          "time": 171.79895833333347,
          "velocity": 0.36220472440944884,
          "duration": 0.10416666666668561
        },
        {
          "name": "F2",
          "midi": 41,
          "time": 171.8104166666668,
          "velocity": 0.48031496062992124,
          "duration": 0.27812500000001705
        },
        {
          "name": "F4",
          "midi": 65,
          "time": 171.8104166666668,
          "velocity": 0.33858267716535434,
          "duration": 0.16250000000002274
        },
        {
          "name": "D#3",
          "midi": 51,
          "time": 172.23958333333348,
          "velocity": 0.29133858267716534,
          "duration": 0.18541666666666856
        },
        {
          "name": "G#2",
          "midi": 44,
          "time": 172.29791666666682,
          "velocity": 0.2755905511811024,
          "duration": 0.22083333333333144
        },
        {
          "name": "D#2",
          "midi": 39,
          "time": 172.30937500000016,
          "velocity": 0.47244094488188976,
          "duration": 0.20937499999999432
        },
        {
          "name": "D#2",
          "midi": 39,
          "time": 172.51875000000015,
          "velocity": 0.33858267716535434,
          "duration": 0.06979166666667425
        },
        {
          "name": "D#3",
          "midi": 51,
          "time": 172.55312500000016,
          "velocity": 0.3228346456692913,
          "duration": 0.2916666666666572
        },
        {
          "name": "A#2",
          "midi": 46,
          "time": 172.75104166666682,
          "velocity": 0.3543307086614173,
          "duration": 0.10624999999998863
        },
        {
          "name": "D#2",
          "midi": 39,
          "time": 172.9729166666668,
          "velocity": 0.3779527559055118,
          "duration": 0.1510416666666572
        },
        {
          "name": "D#2",
          "midi": 39,
          "time": 173.26250000000013,
          "velocity": 0.49606299212598426,
          "duration": 0.23229166666666856
        },
        {
          "name": "F3",
          "midi": 53,
          "time": 173.5760416666668,
          "velocity": 0.4330708661417323,
          "duration": 0.10416666666665719
        },
        {
          "name": "D#5",
          "midi": 75,
          "time": 173.76250000000013,
          "velocity": 0.4015748031496063,
          "duration": 0.1395833333333485
        },
        {
          "name": "D#2",
          "midi": 39,
          "time": 173.7854166666668,
          "velocity": 0.36220472440944884,
          "duration": 0.16249999999999432
        },
        {
          "name": "F1",
          "midi": 29,
          "time": 173.9010416666668,
          "velocity": 0.3543307086614173,
          "duration": 0.11562499999999432
        },
        {
          "name": "D#2",
          "midi": 39,
          "time": 173.95937500000014,
          "velocity": 0.4251968503937008,
          "duration": 0.18541666666664014
        },
        {
          "name": "C5",
          "midi": 72,
          "time": 174.02916666666678,
          "velocity": 0.31496062992125984,
          "duration": 0.06979166666667425
        },
        {
          "name": "C3",
          "midi": 48,
          "time": 174.15729166666677,
          "velocity": 0.28346456692913385,
          "duration": 0.15104166666668561
        },
        {
          "name": "F2",
          "midi": 41,
          "time": 174.29583333333343,
          "velocity": 0.36220472440944884,
          "duration": 0.10416666666668561
        },
        {
          "name": "G#1",
          "midi": 32,
          "time": 174.30729166666677,
          "velocity": 0.4094488188976378,
          "duration": 0.19687500000000568
        },
        {
          "name": "D#2",
          "midi": 39,
          "time": 174.3197916666668,
          "velocity": 0.36220472440944884,
          "duration": 0.09270833333332007
        },
        {
          "name": "D#2",
          "midi": 39,
          "time": 174.8312500000001,
          "velocity": 0.30708661417322836,
          "duration": 0.23229166666666856
        },
        {
          "name": "G#1",
          "midi": 32,
          "time": 174.86666666666676,
          "velocity": 0.3700787401574803,
          "duration": 0.10416666666665719
        },
        {
          "name": "C5",
          "midi": 72,
          "time": 175.00520833333343,
          "velocity": 0.3464566929133858,
          "duration": 0.06979166666667425
        },
        {
          "name": "C4",
          "midi": 60,
          "time": 175.4812500000001,
          "velocity": 0.36220472440944884,
          "duration": 0.09270833333332007
        },
        {
          "name": "F2",
          "midi": 41,
          "time": 175.4937500000001,
          "velocity": 0.4251968503937008,
          "duration": 0.11562499999999432
        },
        {
          "name": "F4",
          "midi": 65,
          "time": 175.87604166666677,
          "velocity": 0.33070866141732286,
          "duration": 0.22083333333333144
        }
      ],
      "controlChanges": {},
      "id": 1,
      "name": "",
      "instrumentNumber": 0,
      "instrument": "acoustic grand piano",
      "instrumentFamily": "piano",
      "channelNumber": 0,
      "isPercussion": false
    }
  ]
}